<svg width="1440" height="522" viewBox="0 0 1440 522" fill="none" xmlns="http://www.w3.org/2000/svg">
<g clip-path="url(#clip0_17_825)">
<rect width="1440" height="522" fill="#FCFCFD"/>
<line x1="256" y1="15" x2="256" y2="851" stroke="#CCD4FF" stroke-width="2"/>
<line x1="129" y1="15" x2="129" y2="268" stroke="#CCD4FF" stroke-width="2"/>
<line x1="129" y1="521" x2="129" y2="774" stroke="#CCD4FF" stroke-width="2"/>
<path d="M1057.99 15L1058 265.5" stroke="#CCD4FF" stroke-width="2"/>
<path d="M519 15L519 140" stroke="#CCD4FF" stroke-width="2"/>
<path d="M518 395L518 522" stroke="#CCD4FF" stroke-width="2"/>
<path d="M1058 395L1058 522" stroke="#CCD4FF" stroke-width="2"/>
<path d="M793 139L793 807" stroke="#CCD4FF" stroke-width="2"/>
<path d="M657 15L657 522" stroke="#CCD4FF" stroke-width="2"/>
<path d="M657 520.5L657 811" stroke="#CCD4FF" stroke-width="2"/>
<path d="M1314 395L1314 811" stroke="#CCD4FF" stroke-width="2"/>
<path d="M930 15L930 523" stroke="#CCD4FF" stroke-width="2"/>
<path d="M382 15L382 811" stroke="#CCD4FF" stroke-width="2"/>
<line x1="1187" y1="15" x2="1187" y2="851" stroke="#CCD4FF" stroke-width="2"/>
<line x1="1314" y1="15" x2="1314" y2="141" stroke="#CCD4FF" stroke-width="2"/>
<line x1="255" y1="394" x2="793" y2="394" stroke="#CCD4FF" stroke-width="2"/>
<line x1="793" y1="394" x2="1439" y2="394" stroke="#CCD4FF" stroke-width="2"/>
<line y1="521" x2="1058" y2="521" stroke="#CCD4FF" stroke-width="2"/>
<line x1="1057" y1="521" x2="1439" y2="521" stroke="#CCD4FF" stroke-width="2"/>
<line y1="267" x2="382" y2="267" stroke="#CCD4FF" stroke-width="2"/>
<line x1="658" y1="267" x2="1187" y2="267" stroke="#CCD4FF" stroke-width="2"/>
<line x1="7.92306e-08" y1="140" x2="1440" y2="140" stroke="#CCD4FF" stroke-width="2"/>
<path d="M1209 140C1198.93 145.37 1191.08 153.851 1187 164C1182.92 153.851 1175.07 145.376 1165 140C1175.07 134.63 1182.92 126.149 1187 116C1191.08 126.149 1198.93 134.63 1209 140Z" fill="#FFE41B" stroke="#CCD4FF" stroke-width="2" stroke-miterlimit="10"/>
<g clip-path="url(#clip1_17_825)">
<path d="M864.096 438.388C864.696 438.248 865.225 438.053 865.682 437.802C866.14 437.551 866.439 437.424 866.583 437.424C866.726 437.424 866.854 437.312 866.969 437.089C867.083 436.866 867.297 436.656 867.611 436.461C867.925 436.264 868.182 435.957 868.383 435.539C868.582 435.12 868.811 434.798 869.068 434.575C869.325 434.352 869.554 433.961 869.753 433.401C869.953 432.841 870.125 432.493 870.268 432.353C870.412 432.213 870.568 431.934 870.74 431.514C870.912 431.095 870.997 430.801 870.997 430.633C870.997 430.465 871.054 430.312 871.169 430.171C871.284 430.031 871.368 429.85 871.426 429.627C871.483 429.404 871.555 429.278 871.639 429.25C871.725 429.222 871.754 429.138 871.725 428.999C871.697 428.858 871.74 428.635 871.854 428.328C871.969 428.021 872.111 427.756 872.283 427.531C872.454 427.308 872.497 427.126 872.412 426.987C872.326 426.847 872.283 426.694 872.283 426.525C872.283 426.357 872.326 426.246 872.412 426.19C872.498 426.134 872.541 426.009 872.541 425.813C872.541 425.616 872.599 425.421 872.714 425.226C872.828 425.032 872.886 424.765 872.886 424.43C872.886 424.094 872.957 423.857 873.099 423.717C873.243 423.577 873.313 423.438 873.313 423.297C873.313 423.157 873.284 423.074 873.227 423.046C873.169 423.018 873.184 422.823 873.27 422.46C873.356 422.097 873.385 421.832 873.356 421.663C873.327 421.495 873.356 421.342 873.442 421.202C873.528 421.061 873.571 420.908 873.571 420.74C873.571 420.572 873.629 420.461 873.743 420.405C873.858 420.349 873.872 420.097 873.786 419.65C873.7 419.202 873.743 418.839 873.915 418.56C874.086 418.281 874.316 418.112 874.601 418.056C874.881 418 875.095 417.986 875.239 418.014C875.382 418.042 875.481 418.098 875.538 418.182C875.596 418.267 875.61 418.434 875.581 418.686C875.553 418.937 875.481 419.106 875.368 419.19C875.253 419.274 875.195 419.371 875.195 419.483C875.195 419.595 875.267 419.665 875.409 419.692C875.553 419.72 875.623 419.86 875.623 420.111V420.489H875.366C875.194 420.489 875.081 420.573 875.023 420.74C874.995 420.824 874.966 420.908 874.937 420.991H875.066C875.152 420.991 875.21 421.061 875.239 421.2C875.253 421.27 875.267 421.34 875.282 421.409C875.339 421.353 875.396 421.297 875.454 421.241C875.511 421.184 875.568 421.128 875.626 421.072V421.323C875.626 421.492 875.568 421.588 875.454 421.616C875.339 421.644 875.282 421.701 875.282 421.783V421.91C875.339 421.895 875.396 421.881 875.454 421.867C875.511 421.853 875.568 421.839 875.626 421.825V421.91C875.626 421.966 875.554 422.078 875.412 422.245C875.269 422.413 875.184 422.608 875.156 422.831C875.127 423.054 875.184 423.265 875.328 423.46C875.471 423.656 875.584 423.753 875.671 423.753H875.8V424.004C875.8 424.172 875.742 424.269 875.629 424.297C875.514 424.325 875.443 424.437 875.415 424.632C875.387 424.827 875.458 425.038 875.629 425.261C875.8 425.484 875.814 425.652 875.672 425.764C875.529 425.877 875.444 426.044 875.415 426.268C875.401 426.38 875.387 426.491 875.372 426.603C875.329 426.589 875.286 426.575 875.243 426.561C875.2 426.547 875.157 426.533 875.114 426.519V426.603C875.114 426.66 875.172 426.702 875.286 426.73C875.344 426.744 875.401 426.758 875.458 426.772C875.43 426.842 875.401 426.912 875.372 426.981C875.344 427.051 875.315 427.121 875.286 427.19C875.344 427.176 875.401 427.162 875.458 427.148C875.573 427.12 875.672 427.218 875.758 427.441C875.801 427.553 875.844 427.664 875.887 427.776C875.801 427.804 875.717 427.832 875.631 427.86C875.545 427.888 875.458 427.917 875.374 427.945V427.358C875.259 427.4 875.146 427.442 875.031 427.485C874.917 427.527 874.803 427.569 874.689 427.611C874.703 427.541 874.717 427.471 874.732 427.402C874.76 427.262 874.732 427.137 874.646 427.025C874.559 426.912 874.502 426.633 874.473 426.186C874.445 425.738 874.387 425.501 874.301 425.473C874.215 425.445 874.172 425.292 874.172 425.011C874.172 424.731 874.143 424.578 874.086 424.55C874.029 424.522 873.915 424.564 873.743 424.676C873.571 424.788 873.515 424.969 873.571 425.22C873.629 425.471 873.6 425.654 873.485 425.766C873.37 425.878 873.327 425.989 873.356 426.101C873.385 426.214 873.327 426.437 873.185 426.772C873.042 427.107 872.972 427.358 872.972 427.527C872.972 427.695 872.929 427.82 872.843 427.904C872.757 427.988 872.714 428.113 872.714 428.281C872.714 428.45 872.757 428.547 872.843 428.575C872.929 428.603 872.972 428.659 872.972 428.743V428.869H872.8V429.038C872.8 429.15 872.742 429.233 872.627 429.289C872.513 429.345 872.443 429.457 872.414 429.624C872.385 429.793 872.328 429.903 872.243 429.959C872.157 430.016 872.114 430.182 872.114 430.463C872.114 430.744 872.042 430.967 871.901 431.134C871.757 431.302 871.687 431.483 871.687 431.678C871.687 431.873 871.544 432.154 871.258 432.517C870.973 432.88 870.872 433.173 870.959 433.398C871.045 433.621 871.016 433.803 870.872 433.944C870.729 434.084 870.659 434.195 870.659 434.279C870.659 434.363 870.587 434.447 870.445 434.53C870.302 434.614 870.217 434.725 870.189 434.865C870.16 435.006 869.86 435.369 869.288 435.955C868.717 436.542 868.416 436.891 868.387 437.003C868.359 437.116 868.273 437.212 868.131 437.297C867.987 437.381 867.903 437.477 867.874 437.59C867.845 437.702 867.731 437.758 867.531 437.758C867.332 437.758 867.203 437.87 867.146 438.093C867.088 438.316 866.973 438.499 866.803 438.638C866.631 438.778 866.446 438.875 866.247 438.931C866.047 438.987 865.904 439.126 865.818 439.35C865.732 439.573 865.775 439.77 865.947 439.937C866.119 440.105 866.204 440.244 866.204 440.356C866.204 440.468 866.247 440.537 866.333 440.565C866.419 440.593 866.49 440.565 866.546 440.481C866.604 440.397 866.69 440.383 866.803 440.439C866.918 440.495 866.975 440.593 866.975 440.732C866.975 440.871 867.032 440.955 867.147 440.983C867.262 441.011 867.375 441.192 867.49 441.527C867.605 441.863 867.718 442.017 867.833 441.989C867.947 441.961 868.046 441.975 868.132 442.031C868.218 442.087 868.29 442.24 868.346 442.493C868.403 442.744 868.389 442.94 868.303 443.079C868.217 443.219 868.246 443.358 868.389 443.498C868.532 443.639 868.717 443.736 868.947 443.792C869.175 443.848 869.275 443.959 869.247 444.127C869.218 444.295 869.29 444.462 869.46 444.631C869.632 444.797 869.789 445.022 869.932 445.301C870.075 445.58 870.16 445.831 870.189 446.056C870.217 446.279 870.174 446.433 870.06 446.518C869.945 446.602 869.887 446.7 869.887 446.811V446.979H870.144V446.644H870.23C870.287 446.644 870.359 446.686 870.444 446.77C870.53 446.854 870.544 446.993 870.487 447.19C870.429 447.386 870.501 447.539 870.7 447.651C870.901 447.764 871.072 448.238 871.215 449.077C871.359 449.916 871.501 450.376 871.644 450.46C871.787 450.544 871.858 450.837 871.858 451.341C871.858 451.845 871.958 452.194 872.157 452.389C872.357 452.584 872.4 452.794 872.286 453.017C872.172 453.24 872.114 453.437 872.114 453.604C872.114 453.771 872.143 453.869 872.2 453.897C872.258 453.925 872.344 453.925 872.457 453.897C872.572 453.869 872.629 453.771 872.629 453.604C872.629 453.437 872.672 453.325 872.758 453.268C872.844 453.212 872.887 453.1 872.887 452.933C872.887 452.766 872.945 452.598 873.059 452.429C873.174 452.261 873.217 452.122 873.189 452.01C873.16 451.898 873.203 451.773 873.318 451.633C873.432 451.492 873.49 451.311 873.49 451.088C873.49 450.865 873.547 450.711 873.662 450.627C873.777 450.542 873.82 450.458 873.791 450.376C873.762 450.291 873.805 450.221 873.92 450.167C874.035 450.111 874.177 449.888 874.349 449.496C874.521 449.105 874.606 448.826 874.606 448.657C874.606 448.489 874.663 448.364 874.778 448.28C874.893 448.196 874.977 448.015 875.034 447.735C875.092 447.456 875.234 447.218 875.463 447.023C875.691 446.828 875.806 446.659 875.806 446.519C875.806 446.379 875.849 446.226 875.935 446.058C876.021 445.889 876.093 445.806 876.149 445.806C876.205 445.806 876.263 445.708 876.321 445.513C876.378 445.317 876.479 445.178 876.621 445.094C876.764 445.01 876.892 444.843 877.006 444.59C877.121 444.339 877.32 444.1 877.606 443.877C877.891 443.654 878.049 443.472 878.077 443.332C878.106 443.191 878.192 443.081 878.334 442.996C878.478 442.912 878.562 442.814 878.591 442.703C878.619 442.592 878.749 442.48 878.977 442.368C879.204 442.256 879.42 442.089 879.619 441.864C879.818 441.641 879.919 441.487 879.919 441.403C879.919 441.318 880.005 441.234 880.175 441.152C880.261 441.109 880.347 441.067 880.432 441.025C880.26 440.816 880.089 440.606 879.917 440.397C879.574 439.977 879.303 439.726 879.102 439.642C878.903 439.558 878.774 439.419 878.717 439.222C878.659 439.028 878.53 438.887 878.331 438.803C878.132 438.719 877.988 438.552 877.902 438.299C877.816 438.048 877.631 437.782 877.346 437.502C877.06 437.223 876.888 436.916 876.831 436.581C876.774 436.245 876.673 436.008 876.531 435.868C876.388 435.728 876.16 435.226 875.846 434.359C875.532 433.492 875.36 432.807 875.331 432.305C875.302 431.801 875.245 431.508 875.159 431.424C875.073 431.339 874.987 431.004 874.902 430.418C874.816 429.832 874.816 429.398 874.902 429.119C874.945 428.978 874.988 428.84 875.031 428.699C874.974 428.685 874.917 428.671 874.861 428.657C874.746 428.629 874.689 428.517 874.689 428.322V428.029H874.861C874.976 428.029 875.06 428.113 875.117 428.28C875.175 428.447 875.317 428.587 875.546 428.699C875.774 428.812 875.889 428.964 875.889 429.161C875.889 429.357 875.788 429.468 875.589 429.496C875.39 429.524 875.29 429.609 875.29 429.747C875.29 429.886 875.376 429.97 875.546 429.998C875.718 430.026 875.846 430.139 875.932 430.334C876.018 430.529 876.118 430.627 876.232 430.627C876.345 430.627 876.445 430.585 876.531 430.501C876.574 430.458 876.617 430.416 876.66 430.374V430.543C876.66 430.655 876.531 430.836 876.275 431.087C876.018 431.338 875.889 431.52 875.889 431.631C875.889 431.742 876.018 431.868 876.275 432.008C876.531 432.149 876.646 432.344 876.617 432.595C876.589 432.846 876.689 433.014 876.917 433.099C877.032 433.141 877.145 433.183 877.26 433.225C877.202 433.351 877.145 433.476 877.088 433.602C876.973 433.853 877.03 434.078 877.26 434.273C877.375 434.371 877.488 434.468 877.602 434.566C877.531 434.622 877.459 434.678 877.389 434.734C877.245 434.847 877.175 434.943 877.175 435.028C877.175 435.112 877.403 435.279 877.861 435.531C878.318 435.782 878.647 436.076 878.846 436.412C879.045 436.748 879.131 437.041 879.102 437.293C879.074 437.545 879.145 437.685 879.316 437.713C879.488 437.741 879.616 437.839 879.702 438.006C879.788 438.173 879.887 438.257 880.001 438.257C880.116 438.257 880.229 438.313 880.344 438.426C880.459 438.538 880.516 438.649 880.516 438.761C880.516 438.873 880.574 438.97 880.689 439.054C880.803 439.138 880.846 439.249 880.818 439.389C880.789 439.53 880.803 439.654 880.861 439.767C880.918 439.879 881.018 439.921 881.16 439.893C881.232 439.879 881.304 439.865 881.374 439.851C881.331 439.879 881.288 439.907 881.245 439.935C881.159 439.991 881.13 440.061 881.159 440.144C881.173 440.186 881.187 440.228 881.202 440.27C881.331 440.2 881.458 440.13 881.588 440.061C881.844 439.921 882.117 439.838 882.402 439.81C882.687 439.782 882.874 439.909 882.958 440.188C883.044 440.467 883.016 440.706 882.872 440.9C882.729 441.095 882.659 441.278 882.659 441.445V441.696H882.316C882.088 441.696 881.887 441.738 881.717 441.822C881.546 441.906 881.374 442.073 881.202 442.326C881.03 442.577 880.701 442.884 880.217 443.247C879.731 443.611 879.33 444.016 879.016 444.464C878.702 444.911 878.487 445.148 878.374 445.176C878.259 445.204 878.146 445.331 878.031 445.554C877.916 445.777 877.789 445.917 877.646 445.973C877.502 446.029 877.389 446.224 877.303 446.56C877.217 446.895 877.104 447.105 876.96 447.188C876.817 447.272 876.732 447.371 876.703 447.481C876.675 447.594 876.574 447.676 876.404 447.732C876.232 447.788 876.133 447.859 876.104 447.941C876.075 448.026 876.133 448.136 876.276 448.277C876.348 448.347 876.42 448.417 876.49 448.486C876.447 448.5 876.404 448.514 876.361 448.528C876.275 448.556 876.217 448.626 876.189 448.737C876.16 448.849 876.074 448.891 875.932 448.863C875.788 448.835 875.69 448.863 875.632 448.947C875.575 449.031 875.517 449.17 875.46 449.367C875.403 449.562 875.417 449.674 875.503 449.702C875.589 449.73 875.632 449.8 875.632 449.911C875.632 450.022 875.604 450.148 875.546 450.288C875.489 450.429 875.403 450.497 875.29 450.497C875.176 450.497 875.076 450.553 874.99 450.666C874.904 450.778 874.889 450.917 874.947 451.085C874.976 451.169 875.004 451.252 875.033 451.336C874.932 451.322 874.834 451.308 874.733 451.294C874.633 451.28 874.534 451.266 874.434 451.252C874.505 451.449 874.577 451.643 874.647 451.838C874.791 452.23 874.791 452.467 874.647 452.551C874.504 452.635 874.419 452.914 874.39 453.39C874.362 453.866 874.29 454.117 874.177 454.145C874.12 454.159 874.062 454.173 874.006 454.187C874.035 454.271 874.064 454.355 874.092 454.438C874.15 454.605 874.092 454.801 873.922 455.024C873.75 455.247 873.694 455.388 873.75 455.444C873.807 455.5 873.793 455.667 873.707 455.948C873.621 456.227 873.592 456.52 873.621 456.829C873.649 457.136 873.592 457.359 873.448 457.499C873.305 457.64 873.235 457.947 873.235 458.421C873.235 458.895 873.192 459.176 873.106 459.26C873.02 459.344 872.991 459.511 873.02 459.763C873.048 460.015 873.02 460.225 872.934 460.392C872.847 460.56 872.72 460.671 872.548 460.727C872.376 460.783 872.262 460.908 872.205 461.105C872.148 461.301 872.047 461.454 871.905 461.566C871.762 461.678 871.62 461.664 871.477 461.524C871.333 461.384 871.249 461.245 871.22 461.105C871.191 460.964 871.234 460.699 871.349 460.308C871.464 459.916 871.507 459.232 871.478 458.254C871.45 457.276 871.265 456.256 870.92 455.194C870.578 454.132 870.42 453.518 870.448 453.349C870.477 453.181 870.434 453.042 870.319 452.93C870.205 452.818 870.147 452.623 870.147 452.344C870.147 452.064 870.09 451.826 869.975 451.631C869.86 451.436 869.804 451.282 869.804 451.169C869.804 451.057 869.862 450.946 869.975 450.834C870.032 450.778 870.09 450.722 870.147 450.666C870.104 450.694 870.061 450.722 870.018 450.75C869.932 450.806 869.848 450.806 869.761 450.75C869.675 450.694 869.632 450.595 869.632 450.457C869.632 450.318 869.575 450.192 869.46 450.079C869.345 449.967 869.288 449.828 869.288 449.66C869.288 449.491 869.216 449.296 869.074 449.073C868.931 448.85 868.875 448.612 868.904 448.361C868.933 448.11 868.832 447.871 868.604 447.648C868.376 447.425 868.204 447.13 868.089 446.767C867.975 446.404 867.847 446.097 867.704 445.845C867.56 445.594 867.447 445.454 867.361 445.426C867.275 445.398 867.147 445.189 866.975 444.797C866.803 444.406 866.546 444.057 866.204 443.75C865.861 443.442 865.674 443.204 865.647 443.037C865.619 442.868 865.461 442.659 865.175 442.408C864.89 442.157 864.732 441.961 864.704 441.822C864.675 441.682 864.375 441.389 863.803 440.941C863.232 440.493 862.917 440.088 862.861 439.725C862.803 439.361 862.847 439.082 862.99 438.886C863.133 438.691 863.505 438.522 864.104 438.382L864.096 438.388ZM878.409 437.551C878.395 437.453 878.38 437.356 878.366 437.258C878.309 437.37 878.251 437.481 878.195 437.593C878.138 437.705 878.081 437.816 878.023 437.928C878.095 437.914 878.167 437.9 878.237 437.886C878.38 437.858 878.438 437.746 878.409 437.551ZM880.508 440.149V440.022C880.451 440.079 880.394 440.135 880.336 440.191C880.279 440.247 880.221 440.303 880.164 440.359C880.221 440.345 880.279 440.331 880.336 440.317C880.451 440.289 880.508 440.233 880.508 440.149Z" fill="#FCFCFD"/>
<path d="M833.113 457.925C833.228 457.73 833.371 457.575 833.542 457.463C833.714 457.351 834.1 457.24 834.701 457.128C835.3 457.016 835.77 456.877 836.115 456.708C836.459 456.54 836.673 456.401 836.757 456.289C836.842 456.177 836.985 456.122 837.186 456.122C837.387 456.122 837.541 456.164 837.658 456.248C837.773 456.333 837.957 456.361 838.216 456.333C838.343 456.319 838.472 456.305 838.6 456.29C838.586 456.403 838.571 456.513 838.557 456.626C838.528 456.849 838.458 456.989 838.343 457.045C838.23 457.101 838.185 457.172 838.216 457.254C838.23 457.296 838.244 457.338 838.259 457.381C838.343 457.31 838.431 457.24 838.515 457.172C838.688 457.031 838.772 456.864 838.772 456.668C838.772 456.471 838.856 456.305 839.029 456.164C839.201 456.024 839.373 455.717 839.544 455.243C839.628 455.006 839.714 454.767 839.8 454.53C839.714 454.67 839.628 454.809 839.544 454.949C839.371 455.229 839.228 455.411 839.115 455.494C839 455.578 838.842 455.62 838.641 455.62C838.44 455.62 838.286 455.69 838.169 455.829C838.056 455.969 837.927 456.024 837.785 455.997C837.642 455.969 837.557 455.885 837.527 455.746C837.498 455.606 837.498 455.509 837.527 455.453C837.557 455.397 837.656 455.383 837.828 455.411C838 455.439 838.157 455.355 838.3 455.16C838.444 454.965 838.557 454.867 838.641 454.867C838.726 454.867 838.799 454.783 838.855 454.616C838.914 454.449 838.998 454.336 839.113 454.28C839.226 454.224 839.284 454.126 839.284 453.987C839.284 453.848 839.398 453.68 839.628 453.483C839.856 453.289 840.014 453.008 840.1 452.645C840.184 452.281 840.286 452.086 840.4 452.058C840.514 452.03 840.629 451.932 840.744 451.765C840.859 451.597 840.916 451.374 840.916 451.094C840.916 450.815 841.002 450.591 841.173 450.424C841.345 450.255 841.515 449.962 841.687 449.543C841.86 449.123 841.987 448.9 842.073 448.872C842.159 448.844 842.202 448.677 842.202 448.369C842.202 448.06 842.274 447.796 842.416 447.572C842.559 447.349 842.687 446.943 842.802 446.355C842.916 445.769 843.044 445.392 843.187 445.223C843.331 445.055 843.374 444.874 843.317 444.679C843.259 444.482 843.288 444.259 843.403 444.008C843.517 443.757 843.575 443.464 843.575 443.127C843.575 442.79 843.647 442.555 843.788 442.415C843.932 442.274 843.973 442.107 843.918 441.911C843.86 441.716 843.889 441.562 844.004 441.449C844.118 441.337 844.246 441.268 844.389 441.24C844.533 441.212 844.732 441.212 844.989 441.24C845.245 441.268 845.374 441.421 845.374 441.702V442.121H845.118C845.161 442.248 845.204 442.372 845.247 442.499C845.29 442.625 845.333 442.75 845.376 442.876C845.304 442.89 845.233 442.904 845.162 442.918C845.019 442.946 844.949 443.016 844.949 443.127C844.949 443.238 844.978 443.31 845.035 443.336C845.092 443.364 845.15 443.545 845.207 443.882C845.264 444.217 845.264 444.482 845.207 444.679C845.178 444.777 845.15 444.874 845.121 444.972H845.378V444.553C845.421 444.581 845.464 444.609 845.507 444.637C845.593 444.693 845.579 444.832 845.464 445.056C845.349 445.281 845.363 445.434 845.507 445.518C845.65 445.602 845.72 445.699 845.72 445.811C845.72 445.923 845.62 445.993 845.421 446.02C845.221 446.048 845.121 446.188 845.121 446.439C845.121 446.691 845.25 446.873 845.507 446.985C845.763 447.098 845.907 447.25 845.936 447.447C845.964 447.642 845.936 447.866 845.85 448.117C845.763 448.369 845.778 448.537 845.893 448.621C845.95 448.663 846.007 448.705 846.065 448.747C846.022 448.79 845.979 448.832 845.936 448.874C845.85 448.958 845.835 449.251 845.893 449.755C845.95 450.259 846.05 450.524 846.192 450.552C846.336 450.58 846.492 450.734 846.664 451.013C846.836 451.292 846.878 451.517 846.793 451.684C846.707 451.852 846.693 451.991 846.75 452.103C846.808 452.216 846.894 452.286 847.007 452.312C847.122 452.34 847.179 452.439 847.179 452.606C847.179 452.772 847.236 452.913 847.349 453.025C847.464 453.137 847.522 453.276 847.522 453.444C847.522 453.613 847.479 453.724 847.393 453.78C847.349 453.808 847.306 453.836 847.265 453.864C847.436 453.878 847.608 453.892 847.78 453.906C848.123 453.934 848.323 453.976 848.379 454.032C848.437 454.089 848.465 454.159 848.465 454.241C848.465 454.324 848.394 454.396 848.252 454.45C848.108 454.506 848.038 454.563 848.038 454.617V454.701C848.139 454.687 848.237 454.673 848.338 454.659C848.438 454.645 848.537 454.631 848.637 454.617C848.623 454.659 848.609 454.701 848.594 454.744C848.566 454.828 848.58 454.884 848.637 454.912C848.695 454.94 848.724 455.08 848.724 455.331C848.724 455.582 848.666 455.723 848.551 455.751C848.437 455.779 848.379 455.835 848.379 455.919V456.046H848.851C849.165 456.046 849.352 456.2 849.407 456.507C849.465 456.814 849.58 456.983 849.75 457.011C849.921 457.039 850.021 457.165 850.05 457.388C850.064 457.501 850.078 457.611 850.093 457.724C850.179 457.696 850.265 457.667 850.349 457.639C850.436 457.611 850.522 457.583 850.606 457.555V457.682C850.606 457.766 850.678 457.876 850.82 458.017C850.963 458.157 851.119 458.226 851.292 458.226C851.464 458.226 851.577 458.296 851.634 458.435C851.692 458.575 851.891 458.658 852.234 458.686C852.576 458.714 852.748 458.77 852.748 458.854C852.748 458.938 852.705 459.009 852.619 459.063C852.576 459.091 852.533 459.119 852.49 459.147C852.533 459.175 852.576 459.204 852.619 459.232C852.705 459.288 852.748 459.358 852.748 459.441C852.748 459.523 852.734 459.621 852.705 459.734C852.677 459.846 852.591 459.916 852.449 459.943C852.305 459.971 852.192 460.083 852.106 460.278C852.02 460.474 851.763 460.712 851.335 460.991C850.906 461.27 850.663 461.508 850.606 461.703C850.549 461.898 850.463 461.996 850.349 461.996C850.236 461.996 850.15 462.067 850.093 462.205C850.035 462.346 849.894 462.513 849.664 462.709C849.436 462.904 849.207 463.044 848.979 463.129C848.751 463.213 848.521 463.45 848.293 463.841C848.065 464.233 847.793 464.554 847.479 464.805C847.165 465.056 846.937 465.295 846.793 465.518C846.65 465.741 846.493 465.881 846.321 465.937C846.149 465.993 846.065 466.104 846.065 466.272C846.065 466.441 845.95 466.636 845.722 466.859C845.494 467.082 845.365 467.292 845.336 467.487C845.308 467.682 845.164 467.865 844.907 468.032C844.651 468.2 844.522 468.353 844.522 468.493C844.522 468.633 844.35 468.997 844.007 469.583C843.664 470.17 843.436 470.701 843.321 471.177C843.207 471.653 843.178 472.016 843.235 472.267C843.293 472.518 843.25 472.672 843.106 472.729C842.963 472.785 842.907 472.938 842.936 473.19C842.964 473.441 842.878 473.666 842.679 473.861C842.579 473.959 842.478 474.056 842.379 474.154C842.437 474.21 842.494 474.266 842.551 474.321C842.666 474.433 842.709 474.74 842.681 475.242C842.652 475.746 842.438 476.164 842.038 476.501C841.839 476.668 841.638 476.836 841.439 477.005C841.381 476.934 841.324 476.864 841.268 476.796C841.153 476.655 841.096 476.348 841.096 475.874C841.096 475.4 841.039 475.091 840.926 474.952C840.811 474.812 840.753 474.421 840.753 473.778C840.753 473.136 840.64 472.618 840.409 472.226C840.181 471.835 840.095 471.556 840.152 471.387C840.211 471.219 840.124 470.884 839.896 470.382C839.668 469.878 839.54 469.446 839.51 469.083C839.481 468.719 839.411 468.496 839.296 468.412C839.183 468.328 839.112 468.175 839.083 467.95C839.054 467.727 838.97 467.587 838.826 467.531C838.684 467.475 838.598 467.266 838.57 466.902C838.541 466.539 838.456 466.218 838.313 465.939C838.169 465.66 838.155 465.463 838.27 465.352C838.327 465.296 838.383 465.24 838.442 465.184C838.327 465.17 838.212 465.156 838.098 465.142C837.87 465.114 837.683 465.03 837.54 464.891C837.398 464.75 837.355 464.485 837.412 464.094C837.441 463.899 837.47 463.703 837.497 463.508C837.427 463.564 837.355 463.62 837.283 463.674C837.141 463.787 837.027 463.829 836.942 463.801C836.856 463.773 836.728 463.578 836.556 463.214C836.384 462.851 836.3 462.6 836.3 462.46V462.251C836.357 462.307 836.413 462.363 836.472 462.419C836.529 462.475 836.585 462.531 836.642 462.588V462.294C836.642 462.099 836.614 461.973 836.558 461.917C836.501 461.861 836.414 461.847 836.301 461.875C836.244 461.889 836.186 461.903 836.129 461.917C836.115 461.833 836.1 461.75 836.086 461.666C836.072 461.582 836.057 461.497 836.043 461.415C835.957 461.443 835.871 461.471 835.785 461.499C835.614 461.555 835.499 461.527 835.444 461.415C835.386 461.303 835.272 461.206 835.099 461.122C834.929 461.037 834.814 460.955 834.758 460.871C834.699 460.786 834.685 460.634 834.715 460.409C834.744 460.186 834.6 460.004 834.286 459.865C833.971 459.724 833.7 459.558 833.472 459.361C833.244 459.165 833.1 458.928 833.043 458.648C832.986 458.369 833.014 458.131 833.128 457.936L833.113 457.925ZM844.212 447.779C844.198 447.681 844.184 447.584 844.169 447.486C844.083 447.556 843.997 447.626 843.913 447.695C843.741 447.835 843.67 447.974 843.699 448.114C843.714 448.184 843.728 448.255 843.742 448.323C843.828 448.281 843.914 448.239 843.999 448.197C844.171 448.113 844.241 447.974 844.212 447.777V447.779ZM845.199 459.35V459.727C845.257 459.671 845.314 459.615 845.371 459.559C845.486 459.447 845.543 459.294 845.543 459.097V458.804C845.486 458.832 845.429 458.86 845.371 458.889C845.257 458.945 845.199 459.097 845.199 459.35ZM845.885 457.002C845.942 457.309 845.913 457.477 845.798 457.505C845.684 457.533 845.585 457.632 845.499 457.798C845.413 457.967 845.384 458.106 845.413 458.218C845.441 458.33 845.542 458.386 845.712 458.386C845.883 458.386 846.012 458.33 846.098 458.218C846.184 458.106 846.227 457.953 846.227 457.756C846.227 457.56 846.313 457.309 846.484 457.002C846.656 456.694 846.712 456.443 846.656 456.247C846.627 456.149 846.599 456.052 846.57 455.954C846.541 456.01 846.513 456.066 846.484 456.122C846.427 456.234 846.34 456.289 846.227 456.289C846.114 456.289 846.014 456.331 845.928 456.415C845.842 456.499 845.827 456.694 845.885 457.002ZM846.999 454.906C846.884 454.821 846.757 454.807 846.613 454.864C846.47 454.92 846.385 454.92 846.356 454.864C846.342 454.836 846.328 454.807 846.313 454.779C846.27 454.85 846.227 454.92 846.184 454.988C846.098 455.129 846.055 455.253 846.055 455.366C846.055 455.478 846.141 455.589 846.312 455.701C846.482 455.813 846.669 455.771 846.868 455.575C847.067 455.38 847.168 455.239 847.168 455.155C847.168 455.071 847.11 454.987 846.996 454.904L846.999 454.906ZM849.999 460.607C850.056 460.747 850.171 460.844 850.341 460.9C850.514 460.956 850.67 460.816 850.813 460.481C850.885 460.312 850.957 460.145 851.027 459.977C850.955 459.949 850.883 459.921 850.813 459.893C850.67 459.837 850.514 459.823 850.341 459.851C850.169 459.879 850.027 459.837 849.913 459.724C849.798 459.612 849.755 459.473 849.784 459.305C849.812 459.136 849.898 459.012 850.04 458.928C850.184 458.843 850.239 458.759 850.212 458.676C850.198 458.634 850.184 458.592 850.169 458.55C850.083 458.606 849.997 458.662 849.913 458.717C849.742 458.829 849.599 458.982 849.484 459.179C849.369 459.374 849.34 459.57 849.398 459.765C849.455 459.96 849.455 460.1 849.398 460.184C849.369 460.227 849.34 460.269 849.312 460.311C849.412 460.325 849.511 460.339 849.611 460.353C849.811 460.381 849.94 460.465 849.997 460.604L849.999 460.607ZM848.755 461.865C848.77 461.908 848.784 461.95 848.798 461.992C848.87 461.922 848.942 461.851 849.012 461.783C849.156 461.642 849.283 461.574 849.398 461.574H849.57V461.154C849.47 461.182 849.371 461.211 849.27 461.239C849.071 461.295 848.928 461.393 848.842 461.532C848.755 461.672 848.727 461.783 848.755 461.867V461.865ZM848.583 461.278C848.598 461.348 848.612 461.418 848.626 461.487C848.684 461.36 848.741 461.235 848.798 461.109C848.856 460.983 848.913 460.858 848.969 460.732C848.897 460.788 848.826 460.844 848.755 460.9C848.612 461.012 848.556 461.137 848.583 461.278ZM845.499 465.933C845.755 465.82 845.885 465.695 845.885 465.555C845.885 465.415 845.928 465.332 846.014 465.304C846.1 465.276 846.186 465.081 846.27 464.718C846.355 464.354 846.527 463.935 846.785 463.461C847.042 462.985 847.228 462.525 847.342 462.078C847.456 461.63 847.584 461.295 847.727 461.072C847.871 460.849 847.984 460.582 848.07 460.275C848.156 459.968 848.255 459.771 848.37 459.689C848.484 459.604 848.556 459.395 848.583 459.06C848.612 458.725 848.684 458.502 848.797 458.389C848.912 458.277 848.926 458.096 848.84 457.844C848.754 457.593 848.653 457.48 848.54 457.508C848.427 457.536 848.312 457.649 848.198 457.844C848.083 458.04 847.998 458.305 847.941 458.641C847.883 458.976 847.883 459.158 847.941 459.186C847.97 459.2 847.998 459.214 848.027 459.228H847.77C847.785 459.313 847.799 459.397 847.813 459.48C847.842 459.648 847.756 459.815 847.557 459.983C847.357 460.152 847.2 460.347 847.085 460.57C846.97 460.793 846.898 461.17 846.871 461.702C846.843 462.232 846.728 462.583 846.529 462.75C846.329 462.918 846.258 463.099 846.315 463.296C846.372 463.49 846.344 463.617 846.229 463.673C846.114 463.729 846.057 463.827 846.057 463.966C846.057 464.105 846.014 464.189 845.928 464.217C845.885 464.231 845.842 464.245 845.798 464.259C845.827 464.329 845.856 464.4 845.885 464.468C845.942 464.609 845.885 464.747 845.712 464.888C845.542 465.028 845.456 465.167 845.456 465.307C845.456 465.448 845.413 465.53 845.327 465.558C845.241 465.586 845.183 465.685 845.155 465.851C845.14 465.936 845.126 466.018 845.111 466.103C845.241 466.046 845.368 465.99 845.497 465.936L845.499 465.933ZM844.984 451.93C845.07 451.762 845.142 451.469 845.198 451.049C845.226 450.84 845.255 450.63 845.284 450.421C845.226 450.449 845.169 450.477 845.111 450.505C844.997 450.561 844.912 450.561 844.855 450.505C844.826 450.477 844.797 450.449 844.769 450.421C844.797 450.519 844.826 450.616 844.855 450.714C844.912 450.909 844.869 451.035 844.726 451.091C844.654 451.119 844.582 451.147 844.512 451.176C844.541 451.246 844.569 451.316 844.598 451.384C844.627 451.455 844.656 451.525 844.684 451.593C844.641 451.607 844.598 451.622 844.555 451.636C844.469 451.664 844.44 451.816 844.469 452.097C844.498 452.376 844.541 452.517 844.598 452.517H844.684V452.181H844.77C844.828 452.181 844.899 452.097 844.984 451.93ZM844.385 461.655C844.413 461.767 844.471 461.823 844.557 461.823H844.686V461.32C844.628 461.348 844.571 461.376 844.514 461.404C844.399 461.46 844.356 461.544 844.385 461.655ZM844.342 457.547C844.399 457.547 844.442 457.477 844.471 457.338C844.485 457.268 844.499 457.198 844.514 457.129H844.428C844.37 457.129 844.327 457.2 844.299 457.338C844.284 457.409 844.27 457.479 844.255 457.547H844.342ZM843.87 453.565C843.884 453.663 843.898 453.76 843.913 453.858C843.984 453.788 844.056 453.717 844.126 453.649C844.27 453.508 844.313 453.384 844.255 453.271C844.227 453.215 844.198 453.159 844.169 453.103C844.112 453.131 844.055 453.159 843.997 453.187C843.882 453.243 843.839 453.37 843.868 453.565H843.87ZM843.57 449.289C843.742 449.261 843.827 449.176 843.827 449.038V448.829C843.769 448.843 843.712 448.857 843.655 448.871C843.54 448.899 843.455 448.983 843.398 449.122C843.369 449.192 843.34 449.262 843.312 449.331C843.398 449.317 843.484 449.303 843.568 449.289H843.57ZM843.098 456.499C843.184 456.471 843.227 456.359 843.227 456.164V455.871H843.141C843.084 455.871 843.041 455.983 843.012 456.206C842.998 456.319 842.983 456.429 842.969 456.542C843.012 456.528 843.055 456.513 843.098 456.499ZM839.971 461.362V461.488C840.055 461.474 840.141 461.46 840.227 461.446C840.398 461.418 840.484 461.334 840.484 461.195V460.986C840.398 461.028 840.312 461.07 840.227 461.112C840.055 461.196 839.971 461.281 839.971 461.363V461.362ZM840.613 455.452C840.584 455.395 840.529 455.381 840.443 455.409C840.398 455.423 840.356 455.437 840.313 455.452C840.328 455.494 840.342 455.536 840.356 455.578C840.371 455.62 840.385 455.662 840.4 455.704C840.444 455.676 840.486 455.648 840.529 455.62C840.613 455.564 840.643 455.508 840.613 455.452ZM840.656 459.894C840.627 459.95 840.597 460.007 840.57 460.063C840.541 460.119 840.513 460.175 840.486 460.231C840.556 460.245 840.629 460.259 840.699 460.273C840.769 460.287 840.841 460.301 840.913 460.315C840.87 460.245 840.827 460.175 840.784 460.106C840.741 460.036 840.699 459.966 840.656 459.897V459.894ZM841.342 452.768C841.313 452.683 841.284 452.599 841.256 452.517C841.169 452.573 841.083 452.629 840.999 452.685C840.827 452.797 840.742 453.034 840.742 453.398V453.942C840.8 453.928 840.857 453.914 840.914 453.9C841.028 453.872 841.142 453.719 841.257 453.438C841.372 453.159 841.401 452.935 841.343 452.768H841.342ZM840.999 458.804H841.128C841.214 458.804 841.271 458.706 841.3 458.511C841.314 458.413 841.329 458.316 841.343 458.218H841.257C841.2 458.218 841.142 458.316 841.085 458.511C841.056 458.609 841.028 458.706 840.999 458.804ZM842.456 455.409C842.513 455.269 842.485 455.172 842.37 455.116C842.255 455.06 842.185 454.976 842.156 454.865C842.142 454.809 842.127 454.753 842.113 454.697V455.032C842.113 455.255 842.156 455.409 842.242 455.494C842.285 455.536 842.328 455.578 842.371 455.62C842.4 455.55 842.429 455.48 842.457 455.411L842.456 455.409ZM842.027 461.488H842.113C842.17 461.488 842.228 461.404 842.284 461.237C842.312 461.153 842.341 461.07 842.37 460.986C842.312 461 842.255 461.014 842.199 461.028C842.084 461.056 842.027 461.14 842.027 461.279V461.488ZM841.471 471.299C841.499 471.411 841.557 471.467 841.643 471.467C841.729 471.467 841.786 471.369 841.815 471.174C841.829 471.076 841.844 470.979 841.858 470.881C841.786 470.923 841.715 470.965 841.644 471.007C841.501 471.091 841.445 471.189 841.472 471.3L841.471 471.299ZM841.342 468.364C841.356 468.294 841.37 468.223 841.385 468.155C841.399 468.085 841.413 468.014 841.428 467.946C841.385 467.96 841.342 467.974 841.299 467.988C841.256 468.002 841.212 468.016 841.169 468.03C841.198 468.086 841.227 468.142 841.256 468.198C841.284 468.255 841.313 468.311 841.342 468.367V468.364ZM840.871 469.118C840.886 469.175 840.9 469.231 840.914 469.285C840.957 469.215 841 469.145 841.042 469.076C841.085 469.006 841.128 468.936 841.171 468.867C841.114 468.881 841.056 468.895 840.999 468.909C840.941 468.924 840.886 468.938 840.827 468.952C840.841 469.008 840.857 469.064 840.871 469.12V469.118ZM839.585 466.141C839.669 466.17 839.698 466.24 839.669 466.35C839.641 466.463 839.698 466.616 839.842 466.812C839.985 467.009 840.084 467.105 840.141 467.105C840.199 467.105 840.27 466.896 840.355 466.477C840.441 466.057 840.568 465.736 840.741 465.513C840.913 465.29 841.026 464.995 841.083 464.632C841.141 464.269 841.227 464.032 841.34 463.919C841.455 463.807 841.582 463.43 841.726 462.787C841.797 462.466 841.869 462.145 841.939 461.823C841.839 461.922 841.74 462.018 841.64 462.117C841.44 462.311 841.24 462.592 841.04 462.956C840.839 463.319 840.755 463.584 840.782 463.752C840.811 463.921 840.768 464.06 840.655 464.172C840.54 464.284 840.482 464.409 840.482 464.549C840.482 464.69 840.31 464.927 839.969 465.262C839.625 465.597 839.454 465.82 839.454 465.933C839.454 466.045 839.497 466.113 839.583 466.141H839.585ZM838.943 464.17C839.013 464.142 839.084 464.114 839.156 464.086C839.298 464.03 839.384 463.918 839.413 463.751C839.441 463.582 839.497 463.472 839.585 463.416C839.669 463.359 839.712 463.221 839.712 462.996V462.661C839.585 462.773 839.456 462.884 839.328 462.996C839.07 463.219 838.943 463.472 838.943 463.751V464.17ZM837.785 458.386C837.642 458.443 837.572 458.555 837.572 458.722V458.973C837.629 458.945 837.685 458.917 837.742 458.889C837.857 458.832 837.929 458.72 837.956 458.553C837.97 458.469 837.985 458.385 838 458.302C837.927 458.33 837.857 458.358 837.787 458.386H837.785ZM838.471 459.979C838.613 459.922 838.672 459.784 838.641 459.559C838.613 459.336 838.627 459.154 838.686 459.015C838.715 458.945 838.743 458.874 838.77 458.806C838.713 458.932 838.657 459.057 838.598 459.183C838.485 459.434 838.397 459.561 838.342 459.561H838.257V460.064C838.327 460.036 838.399 460.008 838.471 459.98V459.979ZM837.785 463.207C837.828 463.277 837.87 463.347 837.913 463.416C837.898 463.303 837.884 463.193 837.87 463.08C837.855 462.968 837.841 462.857 837.827 462.745C837.798 462.787 837.769 462.829 837.741 462.871C837.683 462.956 837.698 463.066 837.785 463.207ZM837.098 462.159C837.143 462.271 837.184 462.382 837.227 462.494C837.285 462.466 837.342 462.438 837.4 462.41C837.513 462.354 837.572 462.255 837.572 462.117V461.908C837.6 461.922 837.629 461.936 837.656 461.95C837.714 461.978 837.726 462.048 837.699 462.159C837.685 462.215 837.671 462.271 837.656 462.327C837.741 462.285 837.828 462.243 837.913 462.201C838.085 462.117 838.198 461.978 838.257 461.781C838.315 461.586 838.315 461.446 838.257 461.362C838.198 461.278 838.198 461.167 838.257 461.027C838.315 460.886 838.327 460.733 838.3 460.565C838.286 460.481 838.271 460.396 838.257 460.314C838.128 460.398 838 460.482 837.871 460.565C837.615 460.733 837.457 460.928 837.4 461.151C837.342 461.374 837.256 461.543 837.143 461.655C837.028 461.767 837.014 461.934 837.098 462.159ZM836.714 458.134V457.714H836.457C836.472 457.784 836.486 457.855 836.501 457.923C836.529 458.064 836.571 458.132 836.628 458.132H836.714V458.134ZM836.113 460.733C836.198 460.663 836.285 460.593 836.37 460.524C836.542 460.384 836.626 460.231 836.626 460.063V459.812C836.528 459.91 836.426 460.007 836.327 460.105C836.126 460.3 836.041 460.454 836.07 460.566C836.084 460.623 836.099 460.679 836.113 460.735V460.733ZM835.171 459.894C835.214 459.866 835.256 459.838 835.299 459.81C835.385 459.754 835.413 459.615 835.385 459.391C835.37 459.278 835.356 459.168 835.34 459.055C835.311 459.069 835.283 459.083 835.256 459.097C835.198 459.126 835.171 459.266 835.171 459.517V459.894Z" fill="#FCFCFD"/>
</g>
<path d="M676 140C667.305 144.475 660.525 151.542 657 160C653.475 151.542 646.695 144.48 638 140C646.695 135.525 653.475 128.458 657 120C660.525 128.458 667.305 135.525 676 140Z" fill="#FCFCFD" stroke="#CCD4FF" stroke-width="2" stroke-miterlimit="10"/>
<path d="M949 268C940.305 272.475 933.525 279.542 930 288C926.475 279.542 919.695 272.48 911 268C919.695 263.525 926.475 256.458 930 248C933.525 256.458 940.305 263.525 949 268Z" fill="#FCFCFD" stroke="#CCD4FF" stroke-width="2" stroke-miterlimit="10"/>
<path d="M659.054 369.809L661.675 379.651C662.041 381.021 663.606 381.67 664.838 380.961L673.651 375.858C674.619 375.297 675.703 376.381 675.142 377.349L670.039 386.162C669.326 387.389 669.979 388.959 671.349 389.325L681.191 391.946C682.27 392.234 682.27 393.766 681.191 394.054L671.349 396.675C669.979 397.041 669.33 398.606 670.039 399.838L675.142 408.651C675.703 409.619 674.619 410.703 673.651 410.142L664.838 405.039C663.611 404.326 662.041 404.979 661.675 406.349L659.054 416.191C658.766 417.27 657.234 417.27 656.946 416.191L654.325 406.349C653.959 404.979 652.394 404.33 651.162 405.039L642.349 410.142C641.381 410.703 640.297 409.619 640.858 408.651L645.961 399.838C646.674 398.611 646.021 397.041 644.651 396.675L634.809 394.054C633.73 393.766 633.73 392.234 634.809 391.946L644.651 389.325C646.021 388.959 646.67 387.394 645.961 386.162L640.858 377.349C640.297 376.381 641.381 375.297 642.349 375.858L651.162 380.961C652.389 381.674 653.959 381.021 654.325 379.651L656.946 369.809C657.234 368.73 658.766 368.73 659.054 369.809Z" fill="#FFE41B" stroke="#CCD4FF" stroke-width="2" stroke-miterlimit="10"/>
<g clip-path="url(#clip2_17_825)">
<path d="M549.929 362.734C544.237 365.476 526.042 378.454 519.008 377.134C518.707 377.191 518.384 377.218 518.042 377.218H517.872C517.691 377.218 517.545 377.218 517.376 377.191C512.81 376.867 505.638 372.972 499.471 369.341C480.888 359.93 464.747 347.608 451.424 333.338C430.849 311.578 417.133 285.387 411.053 257.986C410.852 257.105 410.665 256.22 410.475 255.338C406.848 237.859 406.35 219.965 409.293 202.562C421.852 196.996 435.035 191.98 448.439 187.166C449.872 186.647 451.317 186.124 452.773 185.613C468.101 180.112 483.683 174.856 499.011 169.42C504.589 167.402 510.125 165.349 515.582 163.232C517.627 162.5 519.049 161.989 521.24 162.778C556.408 175.477 591.561 188.18 626.718 200.88C627.696 200.944 628.563 201.463 628.776 202.543C628.787 202.634 628.81 202.718 628.821 202.814C628.988 203.157 629.034 203.435 628.943 203.649C638.145 263.334 609.147 327.295 549.929 362.73V362.734Z" fill="#FCFCFD" stroke="#CCD4FF" stroke-width="2" stroke-miterlimit="10"/>
<path d="M556.252 258.676C539.206 268.632 525.909 284.341 519 303.148C512.087 284.341 498.79 268.632 481.744 258.676C498.79 248.719 512.087 233.007 519 214.2C525.909 233.007 539.206 248.719 556.252 258.676Z" fill="#FFE41B" stroke="#CCD4FF" stroke-width="2" stroke-miterlimit="10"/>
</g>
<g clip-path="url(#clip3_17_825)">
<path d="M191.617 413.577C204.665 413.577 215.242 403.022 215.242 390C215.242 376.979 204.665 366.423 191.617 366.423H66.3991C53.3512 366.423 42.7738 376.979 42.7738 390C42.7738 403.022 53.3512 413.577 66.3991 413.577H191.617Z" fill="#FCFCFD" stroke="#CCD4FF" stroke-width="2" stroke-miterlimit="10"/>
<path d="M129.004 356.197C144.619 356.197 157.278 343.564 157.278 327.981C157.278 312.397 144.619 299.764 129.004 299.764C113.389 299.764 100.73 312.397 100.73 327.981C100.73 343.564 113.389 356.197 129.004 356.197Z" fill="#FCFCFD" stroke="#CCD4FF" stroke-width="2" stroke-miterlimit="10"/>
<path d="M129.004 480.236C144.619 480.236 157.278 467.603 157.278 452.019C157.278 436.436 144.619 423.803 129.004 423.803C113.389 423.803 100.73 436.436 100.73 452.019C100.73 467.603 113.389 480.236 129.004 480.236Z" fill="#FCFCFD" stroke="#CCD4FF" stroke-width="2" stroke-miterlimit="10"/>
</g>
<path d="M1119.44 357C1132.45 357 1143 346.479 1143 333.5C1143 320.521 1132.45 310 1119.44 310H994.561C981.549 310 971 320.521 971 333.5C971 346.479 981.549 357 994.561 357H1119.44Z" fill="#FCFCFD" stroke="#CCD4FF" stroke-width="2" stroke-miterlimit="10"/>
<path d="M256.807 112.583L259.751 123.634C260.162 125.173 261.92 125.901 263.303 125.106L273.199 119.375C274.286 118.746 275.503 119.963 274.874 121.049L269.143 130.946C268.342 132.324 269.075 134.087 270.615 134.498L281.666 137.441C282.877 137.764 282.877 139.485 281.666 139.807L270.615 142.751C269.075 143.162 268.347 144.919 269.143 146.303L274.874 156.199C275.503 157.286 274.286 158.503 273.199 157.874L263.303 152.143C261.925 151.342 260.162 152.075 259.751 153.615L256.807 164.666C256.485 165.877 254.764 165.877 254.441 164.666L251.498 153.615C251.087 152.075 249.329 151.347 247.946 152.143L238.049 157.874C236.963 158.503 235.746 157.286 236.375 156.199L242.106 146.303C242.907 144.925 242.173 143.162 240.634 142.751L229.583 139.807C228.371 139.485 228.371 137.764 229.583 137.441L240.634 134.498C242.173 134.087 242.902 132.329 242.106 130.946L236.375 121.049C235.746 119.963 236.963 118.746 238.049 119.375L247.946 125.106C249.324 125.907 251.087 125.173 251.498 123.634L254.441 112.583C254.764 111.371 256.485 111.371 256.807 112.583Z" fill="#FFE41B" stroke="#CCD4FF" stroke-width="2" stroke-miterlimit="10"/>
<g clip-path="url(#clip4_17_825)">
<path d="M1354.01 268L1387.84 234.163C1399.17 222.838 1399.17 204.483 1387.84 193.158C1376.52 181.833 1358.16 181.833 1346.84 193.158L1313 226.994L1279.16 193.151C1267.84 181.833 1249.48 181.833 1238.15 193.151C1226.83 204.476 1226.83 222.838 1238.15 234.163L1271.99 268L1238.15 301.837C1226.83 313.162 1226.83 331.517 1238.15 342.842C1249.48 354.167 1267.83 354.167 1279.16 342.842L1312.99 309.006L1346.83 342.842C1358.16 354.167 1376.51 354.167 1387.84 342.842C1399.16 331.517 1399.16 313.162 1387.84 301.837L1354 268H1354.01Z" fill="#FCFCFD" stroke="#CCD4FF" stroke-width="2" stroke-miterlimit="10"/>
</g>
<g clip-path="url(#clip5_17_825)">
<path d="M929.303 417.923V393.834C923.084 395.058 916.998 396.808 911.072 399.085C898.802 403.803 887.781 410.552 878.32 419.147C871.446 425.397 865.646 432.392 860.996 440.029C856.346 432.392 850.546 425.397 843.672 419.147C834.212 410.552 823.197 403.803 810.92 399.085C805.008 396.808 798.915 395.058 792.697 393.834V417.923C804.967 421.192 816.205 427.222 825.498 435.667C832.023 441.595 837.237 448.399 841.009 455.784C828.405 447.838 813.451 443.565 797.779 443.565C796.078 443.565 794.377 443.619 792.697 443.715V467.155C794.37 467.004 796.064 466.922 797.779 466.922C818.993 466.922 837.189 478.902 844.592 495.811H792.697V521.316H929.303V495.811H877.4C884.804 478.902 902.999 466.922 924.213 466.922C925.928 466.922 927.629 467.004 929.296 467.155V443.715C927.608 443.612 925.914 443.565 924.213 443.565C908.542 443.565 893.595 447.838 880.983 455.784C884.755 448.399 889.977 441.595 896.502 435.667C905.795 427.222 917.033 421.192 929.296 417.923H929.303Z" fill="white" stroke="#CCD4FF" stroke-width="2" stroke-miterlimit="10"/>
</g>
</g>
<defs>
<clipPath id="clip0_17_825">
<rect width="1440" height="522" fill="white"/>
</clipPath>
<clipPath id="clip1_17_825">
<rect width="50" height="59" fill="white" transform="matrix(-1 0 0 1 883 418)"/>
</clipPath>
<clipPath id="clip2_17_825">
<rect width="226" height="218" fill="white" transform="translate(406 161)"/>
</clipPath>
<clipPath id="clip3_17_825">
<rect width="174" height="182" fill="white" transform="translate(42 299)"/>
</clipPath>
<clipPath id="clip4_17_825">
<rect width="168" height="168" fill="white" transform="translate(1229 184)"/>
</clipPath>
<clipPath id="clip5_17_825">
<rect width="138" height="129" fill="white" transform="translate(792 393)"/>
</clipPath>
</defs>
</svg>
