<svg width="1216" height="201" viewBox="0 0 1216 201" fill="none" xmlns="http://www.w3.org/2000/svg">
<g clip-path="url(#clip0_84_1219)">
<line x1="48" y1="239" x2="48" y2="2.0565e-08" stroke="#A8B6FF" stroke-width="2"/>
<line x1="418" y1="39" x2="418" y2="3.35579e-09" stroke="#A8B6FF" stroke-width="2"/>
<line x1="788" y1="39" x2="788" y2="3.35579e-09" stroke="#A8B6FF" stroke-width="2"/>
<line x1="1158" y1="239" x2="1158" y2="2.0565e-08" stroke="#A8B6FF" stroke-width="2"/>
<line x1="175" y1="39" x2="175" y2="3.35579e-09" stroke="#A8B6FF" stroke-width="2"/>
<line x1="545" y1="39" x2="545" y2="3.35579e-09" stroke="#A8B6FF" stroke-width="2"/>
<line x1="915" y1="245" x2="915" y2="-4.37114e-08" stroke="#A8B6FF" stroke-width="2"/>
<line x1="302" y1="39" x2="302" y2="-3.35579e-09" stroke="#A8B6FF" stroke-width="2"/>
<line x1="672" y1="39" x2="672" y2="-3.35579e-09" stroke="#A8B6FF" stroke-width="2"/>
<line x1="1042" y1="239" x2="1042" y2="-2.0565e-08" stroke="#A8B6FF" stroke-width="2"/>
<line x1="-15" y1="38" x2="1216" y2="38" stroke="#A8B6FF" stroke-width="2"/>
<line x1="-15" y1="156" x2="1216" y2="156" stroke="#A8B6FF" stroke-width="2"/>
<line x1="786" y1="239" x2="786" y2="157" stroke="#A8B6FF" stroke-width="2"/>
<line x1="670" y1="239" x2="670" y2="157" stroke="#A8B6FF" stroke-width="2"/>
<line x1="543" y1="239" x2="543" y2="157" stroke="#A8B6FF" stroke-width="2"/>
<line x1="416" y1="239" x2="416" y2="157" stroke="#A8B6FF" stroke-width="2"/>
<line x1="300" y1="239" x2="300" y2="157" stroke="#A8B6FF" stroke-width="2"/>
<line x1="173" y1="239" x2="173" y2="157" stroke="#A8B6FF" stroke-width="2"/>
<path d="M69 38C59.3902 43.3704 51.8963 51.8507 48 62C44.1037 51.8507 36.6098 43.3763 27 38C36.6098 32.6296 44.1037 24.1493 48 14C51.8963 24.1493 59.3902 32.6296 69 38Z" fill="#FFE41B" stroke="#A8B6FF" stroke-width="2" stroke-miterlimit="10"/>
<path d="M1043.32 127.012L1046.59 139.313C1047.05 141.027 1049.01 141.837 1050.55 140.952L1061.56 134.572C1062.77 133.872 1064.13 135.226 1063.43 136.436L1057.05 147.453C1056.16 148.987 1056.97 150.949 1058.69 151.406L1070.99 154.683C1072.34 155.042 1072.34 156.958 1070.99 157.317L1058.69 160.594C1056.97 161.051 1056.16 163.008 1057.05 164.547L1063.43 175.564C1064.13 176.774 1062.77 178.128 1061.56 177.428L1050.55 171.048C1049.01 170.157 1047.05 170.973 1046.59 172.687L1043.32 184.988C1042.96 186.337 1041.04 186.337 1040.68 184.988L1037.41 172.687C1036.95 170.973 1034.99 170.163 1033.45 171.048L1022.44 177.428C1021.23 178.128 1019.87 176.774 1020.57 175.564L1026.95 164.547C1027.84 163.013 1027.03 161.051 1025.31 160.594L1013.01 157.317C1011.66 156.958 1011.66 155.042 1013.01 154.683L1025.31 151.406C1027.03 150.949 1027.84 148.992 1026.95 147.453L1020.57 136.436C1019.87 135.226 1021.23 133.872 1022.44 134.572L1033.45 140.952C1034.99 141.843 1036.95 141.027 1037.41 139.313L1040.68 127.012C1041.04 125.663 1042.96 125.663 1043.32 127.012Z" fill="#FFE41B" stroke="#A8B6FF" stroke-width="2" stroke-miterlimit="10"/>
</g>
<rect x="1" y="1" width="1214" height="199" rx="19" stroke="#082EF5" stroke-width="2"/>
<path d="M132.144 81.152C131.92 86.56 131.808 92.368 131.808 98.576C131.808 104.784 131.92 110.592 132.144 116H120.864V102.944H103.2V116H91.92C92.176 109.792 92.304 103.984 92.304 98.576C92.304 93.168 92.176 87.36 91.92 81.152H103.2V94.208H120.864V81.152H132.144ZM152.398 116.48C146.926 116.48 142.894 115.232 140.302 112.736C137.742 110.208 136.462 106.896 136.462 102.8C136.462 98.8 137.742 95.552 140.302 93.056C142.894 90.56 146.926 89.312 152.398 89.312C156.079 89.312 159.151 89.92 161.615 91.136C164.111 92.32 165.951 93.936 167.135 95.984C168.319 98 168.911 100.272 168.911 102.8C168.911 106.928 167.535 110.24 164.782 112.736C162.062 115.232 157.935 116.48 152.398 116.48ZM152.591 108.32C154.671 108.32 156.223 107.824 157.247 106.832C158.271 105.84 158.783 104.512 158.783 102.848C158.783 101.28 158.271 100 157.247 99.008C156.223 97.984 154.671 97.472 152.591 97.472C150.511 97.472 148.991 97.968 148.031 98.96C147.07 99.952 146.59 101.248 146.59 102.848C146.59 104.512 147.07 105.84 148.031 106.832C148.991 107.824 150.511 108.32 152.591 108.32ZM204.014 108.032C204.014 109.12 204.142 109.888 204.398 110.336C204.654 110.784 205.166 111.104 205.934 111.296L205.742 115.808C204.718 115.968 203.822 116.08 203.054 116.144C202.318 116.208 201.326 116.24 200.078 116.24C197.326 116.24 195.502 115.632 194.606 114.416C193.71 113.168 193.262 111.584 193.262 109.664V108.464C192.334 111.088 190.974 113.04 189.182 114.32C187.422 115.6 185.166 116.24 182.414 116.24C179.214 116.24 176.798 115.6 175.166 114.32C173.566 113.04 172.766 111.136 172.766 108.608C172.766 106.528 173.454 104.896 174.83 103.712C176.206 102.528 178.334 101.712 181.214 101.264C178.782 99.536 176.35 98.032 173.918 96.752C175.838 94.32 178.03 92.48 180.494 91.232C182.958 89.952 185.95 89.312 189.47 89.312C194.398 89.312 198.046 90.384 200.414 92.528C202.814 94.64 204.014 97.904 204.014 102.32V108.032ZM190.478 97.76C188.846 97.76 187.406 98.032 186.158 98.576C184.91 99.12 183.79 99.936 182.798 101.024C184.718 100.8 187.118 100.688 189.998 100.688C191.182 100.688 192.014 100.544 192.494 100.256C192.974 99.968 193.214 99.6 193.214 99.152C193.214 98.768 192.974 98.448 192.494 98.192C192.014 97.904 191.342 97.76 190.478 97.76ZM185.438 108.416C187.23 108.416 188.846 108.08 190.286 107.408C191.726 106.704 192.718 105.792 193.262 104.672V103.424C192.494 103.808 191.646 104.112 190.718 104.336C189.79 104.528 188.67 104.72 187.358 104.912L185.63 105.2C183.838 105.552 182.942 106.16 182.942 107.024C182.942 107.952 183.774 108.416 185.438 108.416ZM189.134 125.312C188.078 125.312 187.166 124.928 186.398 124.16C185.662 123.392 185.294 122.48 185.294 121.424C185.294 120.368 185.662 119.456 186.398 118.688C187.134 117.952 188.046 117.584 189.134 117.584C190.158 117.584 191.054 117.952 191.822 118.688C192.59 119.456 192.974 120.368 192.974 121.424C192.974 122.48 192.59 123.392 191.822 124.16C191.054 124.928 190.158 125.312 189.134 125.312ZM231.528 98.384C228.584 98.192 225.896 98.048 223.464 97.952L223.416 103.04C223.416 104.768 223.784 106.128 224.52 107.12C225.288 108.08 226.632 108.56 228.552 108.56C229.288 108.56 229.992 108.496 230.664 108.368C230.536 109.552 230.472 110.752 230.472 111.968C230.472 112.544 230.504 113.856 230.568 115.904C229.16 116.16 227.976 116.32 227.016 116.384C226.056 116.448 224.808 116.48 223.272 116.48C219.528 116.48 216.872 115.584 215.304 113.792C213.768 111.968 213 109.44 213 106.208L213.048 98.096C211.544 98.16 209.976 98.256 208.344 98.384V89.888C210.008 89.888 211.416 89.36 212.568 88.304C213.72 87.248 214.408 85.984 214.632 84.512H227.688C226.056 86.752 224.248 88.544 222.264 89.888H231.528V98.384ZM280.771 89.024H277.075C277.043 90.848 277.027 93.6 277.027 97.28C277.027 103.744 277.123 109.984 277.315 116H266.467L266.611 110.24C265.683 112.384 264.339 113.968 262.579 114.992C260.819 115.984 258.739 116.48 256.339 116.48C254.259 116.48 252.387 115.888 250.723 114.704C249.059 113.52 247.763 111.92 246.835 109.904C245.907 107.856 245.443 105.616 245.443 103.184C245.443 100.784 245.907 98.528 246.835 96.416C247.763 94.272 249.059 92.56 250.723 91.28C252.419 89.968 254.339 89.312 256.483 89.312C258.979 89.312 261.107 89.84 262.867 90.896C264.659 91.92 265.987 93.52 266.851 95.696C266.851 93.552 266.803 91.328 266.707 89.024H262.339V81.536H266.515C266.483 80.864 266.467 79.904 266.467 78.656H277.315L277.219 81.536H280.771V89.024ZM261.379 108.416C262.947 108.416 264.227 107.984 265.219 107.12C266.211 106.224 266.707 104.816 266.707 102.896C266.707 101.2 266.211 99.952 265.219 99.152C264.227 98.352 262.979 97.952 261.475 97.952C260.035 97.952 258.819 98.416 257.827 99.344C256.867 100.24 256.387 101.424 256.387 102.896C256.387 104.528 256.835 105.856 257.731 106.88C258.627 107.904 259.843 108.416 261.379 108.416ZM297.589 116.48C292.117 116.48 288.085 115.232 285.493 112.736C282.933 110.208 281.653 106.896 281.653 102.8C281.653 98.8 282.933 95.552 285.493 93.056C288.085 90.56 292.117 89.312 297.589 89.312C301.269 89.312 304.341 89.92 306.805 91.136C309.301 92.32 311.141 93.936 312.325 95.984C313.509 98 314.101 100.272 314.101 102.8C314.101 106.928 312.725 110.24 309.973 112.736C307.253 115.232 303.125 116.48 297.589 116.48ZM297.781 108.32C299.861 108.32 301.413 107.824 302.437 106.832C303.461 105.84 303.973 104.512 303.973 102.848C303.973 101.28 303.461 100 302.437 99.008C301.413 97.984 299.861 97.472 297.781 97.472C295.701 97.472 294.181 97.968 293.221 98.96C292.261 99.952 291.781 101.248 291.781 102.848C291.781 104.512 292.261 105.84 293.221 106.832C294.181 107.824 295.701 108.32 297.781 108.32ZM302.005 80.432L306.085 87.392H299.797L297.541 83.264L295.285 87.392H289.045L293.125 80.432H302.005ZM297.589 125.648C296.533 125.648 295.621 125.264 294.853 124.496C294.117 123.728 293.749 122.816 293.749 121.76C293.749 120.704 294.117 119.792 294.853 119.024C295.589 118.288 296.501 117.92 297.589 117.92C298.613 117.92 299.509 118.288 300.277 119.024C301.045 119.792 301.429 120.704 301.429 121.76C301.429 122.816 301.045 123.728 300.277 124.496C299.509 125.264 298.613 125.648 297.589 125.648ZM337.157 116C337.349 111.296 337.445 106.96 337.445 102.992C337.445 101.584 337.093 100.464 336.389 99.632C335.717 98.8 334.853 98.384 333.797 98.384C332.741 98.384 331.845 98.864 331.109 99.824C330.373 100.752 329.941 102.032 329.813 103.664C329.749 106.096 329.717 107.824 329.717 108.848C329.717 111.024 329.781 113.408 329.909 116H318.437C318.693 111.392 318.821 107.04 318.821 102.944C318.821 98.848 318.693 94.464 318.437 89.792C320.549 89.888 322.165 89.936 323.285 89.936C324.469 89.936 326.085 89.888 328.133 89.792L329.525 96.848C330.261 94.288 331.413 92.4 332.981 91.184C334.549 89.936 336.373 89.312 338.453 89.312C340.373 89.312 342.037 89.744 343.445 90.608C344.853 91.44 345.909 92.576 346.613 94.016C347.349 95.456 347.717 97.072 347.717 98.864V105.776C347.717 110.032 347.797 113.44 347.957 116H337.157ZM375.428 89.792H384.644C384.484 95.04 384.404 102.496 384.404 112.16C384.404 115.968 383.636 119.088 382.1 121.52C380.596 123.952 378.596 125.712 376.1 126.8C373.604 127.92 370.82 128.48 367.748 128.48C364.708 128.48 361.988 128.032 359.588 127.136C357.188 126.272 355.364 125.104 354.116 123.632L356.276 116.288C358.004 117.28 359.636 117.984 361.172 118.4C362.708 118.848 364.308 119.072 365.972 119.072C371.412 119.072 374.132 116.768 374.132 112.16C374.132 111.488 374.148 111.008 374.18 110.72C374.18 110.528 374.18 110.272 374.18 109.952C374.212 109.632 374.212 109.216 374.18 108.704C372.548 113.248 369.092 115.52 363.812 115.52C361.668 115.52 359.748 114.944 358.052 113.792C356.388 112.64 355.092 111.088 354.164 109.136C353.236 107.152 352.772 104.976 352.772 102.608C352.772 100.176 353.236 97.952 354.164 95.936C355.092 93.888 356.388 92.272 358.052 91.088C359.716 89.904 361.588 89.312 363.668 89.312C369.076 89.312 372.596 91.216 374.228 95.024L375.428 89.792ZM368.804 107.84C369.54 107.84 370.308 107.68 371.108 107.36C371.908 107.008 372.596 106.464 373.172 105.728C373.748 104.96 374.036 104.016 374.036 102.896C374.036 100.912 373.588 99.504 372.692 98.672C371.796 97.808 370.468 97.376 368.708 97.376C367.172 97.376 365.956 97.888 365.06 98.912C364.164 99.936 363.716 101.264 363.716 102.896C363.716 104.368 364.196 105.568 365.156 106.496C366.148 107.392 367.364 107.84 368.804 107.84ZM434.868 89.024H431.172C431.14 90.848 431.124 93.6 431.124 97.28C431.124 103.744 431.22 109.984 431.412 116H420.564L420.708 110.24C419.78 112.384 418.436 113.968 416.676 114.992C414.916 115.984 412.836 116.48 410.436 116.48C408.356 116.48 406.484 115.888 404.82 114.704C403.156 113.52 401.86 111.92 400.932 109.904C400.004 107.856 399.54 105.616 399.54 103.184C399.54 100.784 400.004 98.528 400.932 96.416C401.86 94.272 403.156 92.56 404.82 91.28C406.516 89.968 408.436 89.312 410.58 89.312C413.076 89.312 415.204 89.84 416.964 90.896C418.756 91.92 420.084 93.52 420.948 95.696C420.948 93.552 420.9 91.328 420.804 89.024H416.436V81.536H420.612C420.58 80.864 420.564 79.904 420.564 78.656H431.412L431.316 81.536H434.868V89.024ZM415.476 108.416C417.044 108.416 418.324 107.984 419.316 107.12C420.308 106.224 420.804 104.816 420.804 102.896C420.804 101.2 420.308 99.952 419.316 99.152C418.324 98.352 417.076 97.952 415.572 97.952C414.132 97.952 412.916 98.416 411.924 99.344C410.964 100.24 410.484 101.424 410.484 102.896C410.484 104.528 410.932 105.856 411.828 106.88C412.724 107.904 413.94 108.416 415.476 108.416ZM466.998 108.032C466.998 109.12 467.126 109.888 467.382 110.336C467.638 110.784 468.15 111.104 468.918 111.296L468.726 115.808C467.702 115.968 466.806 116.08 466.038 116.144C465.302 116.208 464.31 116.24 463.062 116.24C460.31 116.24 458.486 115.632 457.59 114.416C456.694 113.168 456.246 111.584 456.246 109.664V108.464C455.318 111.088 453.958 113.04 452.166 114.32C450.406 115.6 448.15 116.24 445.398 116.24C442.198 116.24 439.782 115.6 438.15 114.32C436.55 113.04 435.75 111.136 435.75 108.608C435.75 106.528 436.438 104.896 437.814 103.712C439.19 102.528 441.318 101.712 444.198 101.264C441.766 99.536 439.334 98.032 436.902 96.752C438.822 94.32 441.014 92.48 443.478 91.232C445.942 89.952 448.934 89.312 452.454 89.312C457.382 89.312 461.03 90.384 463.398 92.528C465.798 94.64 466.998 97.904 466.998 102.32V108.032ZM453.462 97.76C451.83 97.76 450.39 98.032 449.142 98.576C447.894 99.12 446.774 99.936 445.782 101.024C447.702 100.8 450.102 100.688 452.982 100.688C454.166 100.688 454.998 100.544 455.478 100.256C455.958 99.968 456.198 99.6 456.198 99.152C456.198 98.768 455.958 98.448 455.478 98.192C454.998 97.904 454.326 97.76 453.462 97.76ZM448.422 108.416C450.214 108.416 451.83 108.08 453.27 107.408C454.71 106.704 455.702 105.792 456.246 104.672V103.424C455.478 103.808 454.63 104.112 453.702 104.336C452.774 104.528 451.654 104.72 450.342 104.912L448.614 105.2C446.822 105.552 445.926 106.16 445.926 107.024C445.926 107.952 446.758 108.416 448.422 108.416ZM491.488 116C491.68 111.296 491.776 106.96 491.776 102.992C491.776 101.584 491.424 100.464 490.72 99.632C490.048 98.8 489.184 98.384 488.128 98.384C487.072 98.384 486.176 98.864 485.44 99.824C484.704 100.752 484.272 102.032 484.144 103.664C484.08 106.096 484.048 107.824 484.048 108.848C484.048 111.024 484.112 113.408 484.24 116H472.768C473.024 111.392 473.152 107.04 473.152 102.944C473.152 98.848 473.024 94.464 472.768 89.792C474.88 89.888 476.496 89.936 477.616 89.936C478.8 89.936 480.416 89.888 482.464 89.792L483.856 96.848C484.592 94.288 485.744 92.4 487.312 91.184C488.88 89.936 490.704 89.312 492.784 89.312C494.704 89.312 496.368 89.744 497.776 90.608C499.184 91.44 500.24 92.576 500.944 94.016C501.68 95.456 502.048 97.072 502.048 98.864V105.776C502.048 110.032 502.128 113.44 502.288 116H491.488ZM529.759 89.792H538.975C538.815 95.04 538.735 102.496 538.735 112.16C538.735 115.968 537.967 119.088 536.431 121.52C534.927 123.952 532.927 125.712 530.431 126.8C527.935 127.92 525.151 128.48 522.079 128.48C519.039 128.48 516.319 128.032 513.919 127.136C511.519 126.272 509.695 125.104 508.447 123.632L510.607 116.288C512.335 117.28 513.967 117.984 515.503 118.4C517.039 118.848 518.639 119.072 520.303 119.072C525.743 119.072 528.463 116.768 528.463 112.16C528.463 111.488 528.479 111.008 528.511 110.72C528.511 110.528 528.511 110.272 528.511 109.952C528.543 109.632 528.543 109.216 528.511 108.704C526.879 113.248 523.423 115.52 518.143 115.52C515.999 115.52 514.079 114.944 512.383 113.792C510.719 112.64 509.423 111.088 508.495 109.136C507.567 107.152 507.103 104.976 507.103 102.608C507.103 100.176 507.567 97.952 508.495 95.936C509.423 93.888 510.719 92.272 512.383 91.088C514.047 89.904 515.919 89.312 517.999 89.312C523.407 89.312 526.927 91.216 528.559 95.024L529.759 89.792ZM523.135 107.84C523.871 107.84 524.639 107.68 525.439 107.36C526.239 107.008 526.927 106.464 527.503 105.728C528.079 104.96 528.367 104.016 528.367 102.896C528.367 100.912 527.919 99.504 527.023 98.672C526.127 97.808 524.799 97.376 523.039 97.376C521.503 97.376 520.287 97.888 519.391 98.912C518.495 99.936 518.047 101.264 518.047 102.896C518.047 104.368 518.527 105.568 519.487 106.496C520.479 107.392 521.695 107.84 523.135 107.84ZM585.743 78.656C585.551 84.608 585.455 90.832 585.455 97.328C585.455 103.76 585.551 109.984 585.743 116H574.895L575.039 110.24C574.111 112.384 572.767 113.968 571.007 114.992C569.247 115.984 567.167 116.48 564.767 116.48C562.687 116.48 560.815 115.888 559.151 114.704C557.487 113.52 556.191 111.92 555.263 109.904C554.335 107.856 553.871 105.616 553.871 103.184C553.871 100.784 554.335 98.528 555.263 96.416C556.191 94.272 557.487 92.56 559.151 91.28C560.847 89.968 562.767 89.312 564.911 89.312C567.407 89.312 569.535 89.84 571.295 90.896C573.087 91.92 574.415 93.52 575.279 95.696C575.279 93.872 575.215 90.944 575.087 86.912C574.959 83.008 574.895 80.256 574.895 78.656H585.743ZM569.807 108.416C571.375 108.416 572.655 107.984 573.647 107.12C574.639 106.224 575.135 104.816 575.135 102.896C575.135 101.2 574.639 99.952 573.647 99.152C572.655 98.352 571.407 97.952 569.903 97.952C568.463 97.952 567.247 98.416 566.255 99.344C565.295 100.24 564.815 101.424 564.815 102.896C564.815 104.528 565.263 105.856 566.159 106.88C567.055 107.904 568.271 108.416 569.807 108.416ZM596.993 86.96C594.977 86.96 593.473 86.464 592.481 85.472C591.521 84.48 591.041 83.184 591.041 81.584C591.041 80.016 591.521 78.72 592.481 77.696C593.473 76.672 594.977 76.16 596.993 76.16C598.913 76.16 600.385 76.688 601.409 77.744C602.433 78.768 602.945 80.048 602.945 81.584C602.945 83.184 602.449 84.48 601.457 85.472C600.465 86.464 598.977 86.96 596.993 86.96ZM591.425 116C591.649 110.848 591.761 106.592 591.761 103.232C591.761 99.232 591.633 94.752 591.377 89.792H602.897C602.641 94.56 602.513 99.04 602.513 103.232C602.513 106.752 602.625 111.008 602.849 116H591.425ZM633.601 104H617.953C618.209 105.408 618.833 106.56 619.825 107.456C620.849 108.32 622.289 108.752 624.145 108.752C625.489 108.752 626.753 108.496 627.937 107.984C629.121 107.44 630.065 106.688 630.769 105.728C632.913 106.784 635.761 107.92 639.313 109.136C638.321 111.376 636.513 113.168 633.889 114.512C631.297 115.824 627.905 116.48 623.713 116.48C618.273 116.48 614.241 115.232 611.617 112.736C609.025 110.208 607.729 106.896 607.729 102.8C607.729 98.8 609.025 95.552 611.617 93.056C614.209 90.56 618.241 89.312 623.713 89.312C626.977 89.312 629.809 89.856 632.209 90.944C634.609 92.032 636.449 93.552 637.729 95.504C639.009 97.424 639.649 99.632 639.649 102.128C639.649 102.96 639.617 103.584 639.553 104H633.601ZM624.385 96.56C622.785 96.56 621.473 96.864 620.449 97.472C619.425 98.08 618.705 98.912 618.289 99.968H629.617C629.233 98.944 628.609 98.128 627.745 97.52C626.881 96.88 625.761 96.56 624.385 96.56ZM628.129 80.432L632.209 87.392H625.921L623.665 83.264L621.409 87.392H615.169L619.249 80.432H628.129ZM632.161 73.472C632.161 75.168 631.697 76.56 630.769 77.648C629.841 78.704 628.513 79.232 626.785 79.232C625.473 79.232 624.225 78.768 623.041 77.84C622.753 77.584 622.449 77.264 622.129 76.88C621.873 76.56 621.649 76.336 621.457 76.208C621.265 76.048 621.057 75.968 620.833 75.968C620.545 75.968 620.321 76.096 620.161 76.352C620.001 76.576 619.953 76.864 620.017 77.216H615.265C615.265 75.712 615.745 74.384 616.705 73.232C617.665 72.048 618.977 71.456 620.641 71.456C622.113 71.456 623.441 71.968 624.625 72.992L625.345 73.76C625.825 74.368 626.225 74.672 626.545 74.672C626.865 74.672 627.089 74.592 627.217 74.432C627.345 74.24 627.409 73.92 627.409 73.472H632.161ZM662.67 116C662.862 111.296 662.958 106.96 662.958 102.992C662.958 101.584 662.606 100.464 661.902 99.632C661.23 98.8 660.366 98.384 659.31 98.384C658.254 98.384 657.358 98.864 656.622 99.824C655.886 100.752 655.454 102.032 655.326 103.664C655.262 106.096 655.23 107.824 655.23 108.848C655.23 111.024 655.294 113.408 655.422 116H643.95C644.206 111.392 644.334 107.04 644.334 102.944C644.334 98.848 644.206 94.464 643.95 89.792C646.062 89.888 647.678 89.936 648.798 89.936C649.982 89.936 651.598 89.888 653.646 89.792L655.038 96.848C655.774 94.288 656.926 92.4 658.494 91.184C660.062 89.936 661.886 89.312 663.966 89.312C665.886 89.312 667.55 89.744 668.958 90.608C670.366 91.44 671.422 92.576 672.126 94.016C672.862 95.456 673.23 97.072 673.23 98.864V105.776C673.23 110.032 673.31 113.44 673.47 116H662.67ZM699.99 96.896C701.334 92.064 704.678 89.648 710.022 89.648C710.95 89.648 711.846 89.712 712.71 89.84L711.174 100.592C708.87 99.728 706.982 99.296 705.51 99.296C703.686 99.296 702.342 99.84 701.478 100.928C700.614 102.016 700.182 103.472 700.182 105.296V105.248L700.134 108.416C700.134 110.688 700.198 113.216 700.326 116H688.854C689.11 111.392 689.238 107.04 689.238 102.944C689.238 98.848 689.11 94.464 688.854 89.792C690.966 89.888 692.582 89.936 693.702 89.936C694.886 89.936 696.502 89.888 698.55 89.792L699.99 96.896ZM745.426 108.032C745.426 109.12 745.554 109.888 745.81 110.336C746.066 110.784 746.578 111.104 747.346 111.296L747.154 115.808C746.13 115.968 745.234 116.08 744.466 116.144C743.73 116.208 742.738 116.24 741.49 116.24C738.738 116.24 736.914 115.632 736.018 114.416C735.122 113.168 734.674 111.584 734.674 109.664V108.464C733.746 111.088 732.386 113.04 730.594 114.32C728.834 115.6 726.578 116.24 723.826 116.24C720.626 116.24 718.21 115.6 716.578 114.32C714.978 113.04 714.178 111.136 714.178 108.608C714.178 106.528 714.866 104.896 716.242 103.712C717.618 102.528 719.746 101.712 722.626 101.264C720.194 99.536 717.762 98.032 715.33 96.752C717.25 94.32 719.442 92.48 721.906 91.232C724.37 89.952 727.362 89.312 730.882 89.312C735.81 89.312 739.458 90.384 741.826 92.528C744.226 94.64 745.426 97.904 745.426 102.32V108.032ZM731.89 97.76C730.258 97.76 728.818 98.032 727.57 98.576C726.322 99.12 725.202 99.936 724.21 101.024C726.13 100.8 728.53 100.688 731.41 100.688C732.594 100.688 733.426 100.544 733.906 100.256C734.386 99.968 734.626 99.6 734.626 99.152C734.626 98.768 734.386 98.448 733.906 98.192C733.426 97.904 732.754 97.76 731.89 97.76ZM726.85 108.416C728.642 108.416 730.258 108.08 731.698 107.408C733.138 106.704 734.13 105.792 734.674 104.672V103.424C733.906 103.808 733.058 104.112 732.13 104.336C731.202 104.528 730.082 104.72 728.77 104.912L727.042 105.2C725.25 105.552 724.354 106.16 724.354 107.024C724.354 107.952 725.186 108.416 726.85 108.416Z" fill="#082EF5"/>
<defs>
<clipPath id="clip0_84_1219">
<rect width="1216" height="201" rx="20" fill="white"/>
</clipPath>
</defs>
</svg>
