<svg width="375" height="769" viewBox="0 0 375 769" fill="none" xmlns="http://www.w3.org/2000/svg">
<g clip-path="url(#clip0_77_1412)">
<mask id="path-1-inside-1_77_1412" fill="white">
<path d="M0 0H375V769H0V0Z"/>
</mask>
<path d="M0 0H375V769H0V0Z" fill="#FCFCFD"/>
<path d="M263 227L263 768" stroke="#CCD4FF" stroke-width="2"/>
<path d="M83 -35L83 51.5" stroke="#CCD4FF" stroke-width="2"/>
<path d="M82.9995 743V768" stroke="#CCD4FF" stroke-width="2"/>
<path d="M82.9995 226.5L82.9995 573.5" stroke="#CCD4FF" stroke-width="2"/>
<path d="M173 225L173 767.5" stroke="#CCD4FF" stroke-width="2"/>
<path d="M172.999 -35L172.999 52" stroke="#CCD4FF" stroke-width="2"/>
<path d="M263 -35L263 52" stroke="#CCD4FF" stroke-width="2"/>
<path d="M353 -35L353 769" stroke="#CCD4FF" stroke-width="2"/>
<line x1="265" y1="226" x2="394" y2="226" stroke="#CCD4FF" stroke-width="2"/>
<line x1="-4" y1="313" x2="318" y2="313" stroke="#CCD4FF" stroke-width="2"/>
<line x1="265" y1="313" x2="383" y2="313" stroke="#CCD4FF" stroke-width="2"/>
<line x1="-21" y1="226" x2="383" y2="226" stroke="#CCD4FF" stroke-width="2"/>
<path d="M354 139H375" stroke="#CCD4FF" stroke-width="2"/>
<line x1="-21" y1="50.9999" x2="386" y2="50.9999" stroke="#CCD4FF" stroke-width="2"/>
<path d="M369 50.5001C361.907 54.1923 356.376 60.0224 353.5 67.0001C350.624 60.0224 345.093 54.1963 338 50.5001C345.093 46.8079 350.624 40.9778 353.5 34.0001C356.376 40.9778 361.907 46.8079 369 50.5001Z" fill="#FFE41B" stroke="#CCD4FF" stroke-width="2" stroke-miterlimit="10"/>
<line x1="83" y1="401" x2="386" y2="401" stroke="#CCD4FF" stroke-width="2"/>
<line x1="-4" y1="487" x2="386" y2="487" stroke="#CCD4FF" stroke-width="2"/>
<line x1="-4" y1="573" x2="386" y2="573" stroke="#CCD4FF" stroke-width="2"/>
<line x1="-4" y1="743" x2="386" y2="743" stroke="#CCD4FF" stroke-width="2"/>
<line x1="173" y1="659" x2="386" y2="659" stroke="#CCD4FF" stroke-width="2"/>
<path d="M34.2949 104.273C32.5085 104.273 30.9089 103.859 29.4961 103.029C28.0924 102.2 26.985 101.006 26.1738 99.4473C25.3717 97.8887 24.9707 96.0156 24.9707 93.8281C24.9707 91.6315 25.3763 89.7539 26.1875 88.1953C27.0078 86.6276 28.1198 85.429 29.5234 84.5996C30.9362 83.7702 32.5267 83.3555 34.2949 83.3555C35.416 83.3555 36.4642 83.515 37.4395 83.834C38.4238 84.153 39.2988 84.6224 40.0645 85.2422C40.8301 85.8529 41.4544 86.6048 41.9375 87.498C42.4297 88.3822 42.7533 89.3893 42.9082 90.5195H39.1895C39.0892 89.8997 38.8932 89.3529 38.6016 88.8789C38.319 88.4049 37.9635 88.0039 37.5352 87.6758C37.1159 87.3385 36.6374 87.0879 36.0996 86.9238C35.5618 86.7507 34.9831 86.6641 34.3633 86.6641C33.2513 86.6641 32.2669 86.9421 31.4102 87.498C30.5534 88.0449 29.8835 88.8561 29.4004 89.9316C28.9173 90.998 28.6758 92.2969 28.6758 93.8281C28.6758 95.3776 28.9173 96.6855 29.4004 97.752C29.8926 98.8092 30.5625 99.6113 31.4102 100.158C32.2669 100.696 33.2467 100.965 34.3496 100.965C34.9603 100.965 35.5299 100.887 36.0586 100.732C36.5872 100.568 37.0658 100.327 37.4941 100.008C37.9316 99.6797 38.2917 99.2878 38.5742 98.832C38.8659 98.3672 39.071 97.834 39.1895 97.2324H42.9082C42.7715 98.2077 42.4707 99.1237 42.0059 99.9805C41.5501 100.828 40.9486 101.576 40.2012 102.223C39.4629 102.861 38.597 103.362 37.6035 103.727C36.61 104.091 35.5072 104.273 34.2949 104.273ZM48.7188 95.0586V104H45.123V83.6289H48.6367V91.3262H48.8281C49.1836 90.4603 49.735 89.7767 50.4824 89.2754C51.2298 88.7741 52.1914 88.5234 53.3672 88.5234C54.4245 88.5234 55.3451 88.7467 56.1289 89.1934C56.9219 89.64 57.5371 90.2917 57.9746 91.1484C58.4121 92.0052 58.6309 93.0488 58.6309 94.2793V104H55.0215V94.8398C55.0215 93.8008 54.7572 92.9987 54.2285 92.4336C53.6999 91.8594 52.9616 91.5723 52.0137 91.5723C51.3757 91.5723 50.806 91.709 50.3047 91.9824C49.8125 92.2559 49.4251 92.6523 49.1426 93.1719C48.86 93.6823 48.7188 94.3112 48.7188 95.0586ZM72.0566 90.5059L71.0176 88.7148C72.2845 88.7148 73.1914 88.4049 73.7383 87.7852C74.2943 87.1654 74.5859 86.1719 74.6133 84.8047H77.5527C77.5345 86.6094 77.0423 88.013 76.0762 89.0156C75.11 90.0091 73.7702 90.5059 72.0566 90.5059ZM71.0176 97.5879V88.7148H74.6133V104H71.127V101.279H70.9629C70.6165 102.136 70.0514 102.838 69.2676 103.385C68.4837 103.932 67.5176 104.201 66.3691 104.191C65.3665 104.191 64.4824 103.973 63.7168 103.535C62.9603 103.089 62.3633 102.437 61.9258 101.58C61.4974 100.714 61.2832 99.6706 61.2832 98.4492V88.7148H64.8789V97.9023C64.8789 98.8594 65.1432 99.625 65.6719 100.199C66.2096 100.773 66.9115 101.056 67.7773 101.047C68.306 101.047 68.8164 100.919 69.3086 100.664C69.8099 100.409 70.2201 100.026 70.5391 99.5156C70.8581 99.0052 71.0176 98.3626 71.0176 97.5879ZM88.9141 93.1855L88.4492 91.2441C89.3242 91.2441 89.9395 90.9388 90.2949 90.3281C90.6504 89.7083 90.8281 88.7878 90.8281 87.5664H93.3301C93.3301 89.3802 92.9473 90.7474 92.1816 91.668C91.4251 92.5885 90.3359 93.0944 88.9141 93.1855ZM83.9375 104.301C82.4427 104.301 81.1484 103.973 80.0547 103.316C78.9609 102.66 78.1133 101.74 77.5117 100.555C76.9193 99.3698 76.623 97.9935 76.623 96.4258C76.623 94.849 76.9193 93.4681 77.5117 92.2832C78.1133 91.0892 78.9609 90.1641 80.0547 89.5078C81.1484 88.8516 82.4427 88.5234 83.9375 88.5234C85.4323 88.5234 86.7266 88.8516 87.8203 89.5078C88.9141 90.1641 89.7617 91.0892 90.3633 92.2832C90.9648 93.4681 91.2656 94.849 91.2656 96.4258C91.2656 97.9935 90.9648 99.3698 90.3633 100.555C89.7617 101.74 88.9141 102.66 87.8203 103.316C86.7266 103.973 85.4323 104.301 83.9375 104.301ZM83.9375 101.402C84.7669 101.402 85.4505 101.184 85.9883 100.746C86.526 100.299 86.9271 99.6979 87.1914 98.9414C87.4648 98.1849 87.6016 97.3464 87.6016 96.4258C87.6016 95.487 87.4648 94.6393 87.1914 93.8828C86.9271 93.1263 86.526 92.5293 85.9883 92.0918C85.4505 91.6452 84.7669 91.4219 83.9375 91.4219C83.1263 91.4219 82.4473 91.6452 81.9004 92.0918C81.3535 92.5293 80.9434 93.1263 80.6699 93.8828C80.4056 94.6393 80.2734 95.487 80.2734 96.4258C80.2734 97.3464 80.4056 98.1849 80.6699 98.9414C80.9434 99.6979 81.3535 100.299 81.9004 100.746C82.4473 101.184 83.1263 101.402 83.9375 101.402ZM96.8438 95.0586V104H93.248V88.7148H96.7754V91.3262H96.9531C97.2995 90.4694 97.8418 89.7904 98.5801 89.2891C99.3275 88.7786 100.275 88.5234 101.424 88.5234C102.481 88.5234 103.402 88.7467 104.186 89.1934C104.969 89.64 105.576 90.2962 106.004 91.1621C106.441 92.0189 106.66 93.0579 106.66 94.2793V104H103.064V94.8398C103.064 93.819 102.8 93.0215 102.271 92.4473C101.743 91.8639 101.014 91.5723 100.084 91.5723C99.4551 91.5723 98.8945 91.709 98.4023 91.9824C97.9193 92.2559 97.5365 92.6523 97.2539 93.1719C96.9805 93.6823 96.8438 94.3112 96.8438 95.0586ZM115.943 110.043C114.002 110.043 112.475 109.665 111.363 108.908C110.251 108.161 109.536 107.254 109.217 106.188L112.443 105.395C112.589 105.695 112.803 105.992 113.086 106.283C113.368 106.584 113.747 106.83 114.221 107.021C114.695 107.222 115.292 107.322 116.012 107.322C117.033 107.322 117.876 107.072 118.541 106.57C119.215 106.078 119.553 105.271 119.553 104.15V101.266H119.348C119.174 101.63 118.91 102.008 118.555 102.4C118.199 102.783 117.73 103.111 117.146 103.385C116.572 103.649 115.843 103.781 114.959 103.781C113.792 103.781 112.73 103.503 111.773 102.947C110.826 102.391 110.069 101.562 109.504 100.459C108.948 99.3561 108.67 97.9753 108.67 96.3164C108.67 94.6393 108.948 93.222 109.504 92.0645C110.069 90.9069 110.83 90.0273 111.787 89.4258C112.744 88.8242 113.811 88.5234 114.986 88.5234C115.88 88.5234 116.618 88.6738 117.201 88.9746C117.785 89.2754 118.249 89.64 118.596 90.0684C118.942 90.4876 119.211 90.8796 119.402 91.2441H119.594V88.7148H123.107V104.246C123.107 105.549 122.798 106.63 122.178 107.486C121.558 108.343 120.706 108.981 119.621 109.4C118.546 109.829 117.32 110.043 115.943 110.043ZM115.971 100.951C117.119 100.951 118.003 100.541 118.623 99.7207C119.252 98.8913 119.566 97.7474 119.566 96.2891C119.566 95.3229 119.43 94.4798 119.156 93.7598C118.883 93.0397 118.477 92.4792 117.939 92.0781C117.402 91.6771 116.745 91.4766 115.971 91.4766C115.169 91.4766 114.499 91.6862 113.961 92.1055C113.423 92.5247 113.018 93.099 112.744 93.8281C112.48 94.5482 112.348 95.3685 112.348 96.2891C112.348 97.2188 112.484 98.0345 112.758 98.7363C113.031 99.4382 113.437 99.985 113.975 100.377C114.521 100.76 115.187 100.951 115.971 100.951ZM139.281 88.7148V91.5039H130.518V88.7148H139.281ZM132.664 85.0781H136.26V99.4062C136.26 100.008 136.392 100.454 136.656 100.746C136.921 101.029 137.34 101.17 137.914 101.17C138.069 101.17 138.242 101.156 138.434 101.129C138.625 101.102 138.798 101.07 138.953 101.033L139.568 103.85C139.186 103.968 138.798 104.055 138.406 104.109C138.014 104.173 137.622 104.205 137.23 104.205C135.809 104.205 134.692 103.831 133.881 103.084C133.07 102.327 132.664 101.298 132.664 99.9941V85.0781ZM141.264 104V88.7148H144.75V91.2852H144.914C145.188 90.3919 145.666 89.7083 146.35 89.2344C147.033 88.7513 147.812 88.5098 148.688 88.5098C148.879 88.5098 149.098 88.5189 149.344 88.5371C149.599 88.5553 149.809 88.5781 149.973 88.6055V91.9141C149.818 91.8594 149.576 91.8138 149.248 91.7773C148.92 91.7409 148.605 91.7227 148.305 91.7227C147.639 91.7227 147.047 91.8639 146.527 92.1465C146.008 92.429 145.598 92.8164 145.297 93.3086C145.005 93.8008 144.859 94.375 144.859 95.0312V104H141.264ZM151.326 104V88.7148H154.922V104H151.326ZM151.941 86.8145L149.18 82.7812H152.639L154.553 86.8145H151.941ZM161.184 95.0586V104H157.588V88.7148H161.115V91.3262H161.293C161.639 90.4694 162.182 89.7904 162.92 89.2891C163.667 88.7786 164.615 88.5234 165.764 88.5234C166.821 88.5234 167.742 88.7467 168.525 89.1934C169.309 89.64 169.915 90.2962 170.344 91.1621C170.781 92.0189 171 93.0579 171 94.2793V104H167.404V94.8398C167.404 93.819 167.14 93.0215 166.611 92.4473C166.083 91.8639 165.354 91.5723 164.424 91.5723C163.795 91.5723 163.234 91.709 162.742 91.9824C162.259 92.2559 161.876 92.6523 161.594 93.1719C161.32 93.6823 161.184 94.3112 161.184 95.0586ZM177.262 95.0586V104H173.666V83.6289H177.18V91.3262H177.371C177.727 90.4603 178.278 89.7767 179.025 89.2754C179.773 88.7741 180.734 88.5234 181.91 88.5234C182.967 88.5234 183.888 88.7467 184.672 89.1934C185.465 89.64 186.08 90.2917 186.518 91.1484C186.955 92.0052 187.174 93.0488 187.174 94.2793V104H183.564V94.8398C183.564 93.8008 183.3 92.9987 182.771 92.4336C182.243 91.8594 181.505 91.5723 180.557 91.5723C179.919 91.5723 179.349 91.709 178.848 91.9824C178.355 92.2559 177.968 92.6523 177.686 93.1719C177.403 93.6823 177.262 94.3112 177.262 95.0586Z" fill="#082EF5"/>
<path d="M198.477 104V83.6289H202.168V92.2559H211.602V83.6289H215.293V104H211.602V95.3594H202.168V104H198.477ZM224.754 104.301C223.259 104.301 221.965 103.973 220.871 103.316C219.777 102.66 218.93 101.74 218.328 100.555C217.736 99.3698 217.439 97.9935 217.439 96.4258C217.439 94.849 217.736 93.4681 218.328 92.2832C218.93 91.0892 219.777 90.1641 220.871 89.5078C221.965 88.8516 223.259 88.5234 224.754 88.5234C226.249 88.5234 227.543 88.8516 228.637 89.5078C229.73 90.1641 230.578 91.0892 231.18 92.2832C231.781 93.4681 232.082 94.849 232.082 96.4258C232.082 97.9935 231.781 99.3698 231.18 100.555C230.578 101.74 229.73 102.66 228.637 103.316C227.543 103.973 226.249 104.301 224.754 104.301ZM224.754 101.402C225.583 101.402 226.267 101.184 226.805 100.746C227.342 100.299 227.743 99.6979 228.008 98.9414C228.281 98.1849 228.418 97.3464 228.418 96.4258C228.418 95.487 228.281 94.6393 228.008 93.8828C227.743 93.1263 227.342 92.5293 226.805 92.0918C226.267 91.6452 225.583 91.4219 224.754 91.4219C223.943 91.4219 223.264 91.6452 222.717 92.0918C222.17 92.5293 221.76 93.1263 221.486 93.8828C221.222 94.6393 221.09 95.487 221.09 96.4258C221.09 97.3464 221.222 98.1849 221.486 98.9414C221.76 99.6979 222.17 100.299 222.717 100.746C223.264 101.184 223.943 101.402 224.754 101.402ZM238.467 104.314C237.492 104.314 236.617 104.141 235.842 103.795C235.067 103.439 234.456 102.92 234.01 102.236C233.563 101.553 233.34 100.71 233.34 99.707C233.34 98.8503 233.499 98.1393 233.818 97.5742C234.137 97.0091 234.57 96.5579 235.117 96.2207C235.673 95.8835 236.298 95.6283 236.99 95.4551C237.683 95.2728 238.398 95.1452 239.137 95.0723C240.039 94.972 240.768 94.8854 241.324 94.8125C241.88 94.7396 242.281 94.6211 242.527 94.457C242.783 94.293 242.91 94.0378 242.91 93.6914V93.623C242.91 92.8848 242.691 92.3105 242.254 91.9004C241.816 91.4902 241.178 91.2852 240.34 91.2852C239.456 91.2852 238.754 91.4766 238.234 91.8594C237.724 92.2422 237.378 92.6934 237.195 93.2129L233.846 92.7344C234.11 91.8047 234.548 91.0299 235.158 90.4102C235.769 89.7812 236.512 89.3118 237.387 89.002C238.271 88.6829 239.246 88.5234 240.312 88.5234C241.042 88.5234 241.771 88.61 242.5 88.7832C243.229 88.9473 243.899 89.2298 244.51 89.6309C245.12 90.0319 245.608 90.5697 245.973 91.2441C246.337 91.9186 246.52 92.7617 246.52 93.7734V104H243.061V101.895H242.951C242.732 102.314 242.423 102.71 242.021 103.084C241.63 103.449 241.137 103.745 240.545 103.973C239.962 104.201 239.269 104.314 238.467 104.314ZM239.383 101.662C240.112 101.662 240.741 101.521 241.27 101.238C241.798 100.947 242.208 100.564 242.5 100.09C242.792 99.6068 242.938 99.0827 242.938 98.5176V96.7266C242.819 96.8177 242.628 96.9043 242.363 96.9863C242.099 97.0592 241.798 97.1276 241.461 97.1914C241.124 97.2552 240.791 97.3099 240.463 97.3555C240.144 97.401 239.866 97.4375 239.629 97.4648C239.091 97.5378 238.608 97.6608 238.18 97.834C237.76 97.998 237.428 98.2259 237.182 98.5176C236.936 98.8092 236.812 99.1875 236.812 99.6523C236.812 100.318 237.054 100.819 237.537 101.156C238.02 101.493 238.635 101.662 239.383 101.662ZM239.287 86.8145L236.525 82.7812H239.984L241.898 86.8145H239.287ZM252.781 95.0586V104H249.186V88.7148H252.713V91.3262H252.891C253.237 90.4694 253.779 89.7904 254.518 89.2891C255.265 88.7786 256.213 88.5234 257.361 88.5234C258.419 88.5234 259.339 88.7467 260.123 89.1934C260.907 89.64 261.513 90.2962 261.941 91.1621C262.379 92.0189 262.598 93.0579 262.598 94.2793V104H259.002V94.8398C259.002 93.819 258.738 93.0215 258.209 92.4473C257.68 91.8639 256.951 91.5723 256.021 91.5723C255.393 91.5723 254.832 91.709 254.34 91.9824C253.857 92.2559 253.474 92.6523 253.191 93.1719C252.918 93.6823 252.781 94.3112 252.781 95.0586ZM278.785 88.7148V91.5039H270.021V88.7148H278.785ZM272.168 85.0781H275.764V99.4062C275.764 100.008 275.896 100.454 276.16 100.746C276.424 101.029 276.844 101.17 277.418 101.17C277.573 101.17 277.746 101.156 277.938 101.129C278.129 101.102 278.302 101.07 278.457 101.033L279.072 103.85C278.689 103.968 278.302 104.055 277.91 104.109C277.518 104.173 277.126 104.205 276.734 104.205C275.312 104.205 274.196 103.831 273.385 103.084C272.574 102.327 272.168 101.298 272.168 99.9941V85.0781ZM287.262 104.301C285.767 104.301 284.473 103.973 283.379 103.316C282.285 102.66 281.438 101.74 280.836 100.555C280.243 99.3698 279.947 97.9935 279.947 96.4258C279.947 94.849 280.243 93.4681 280.836 92.2832C281.438 91.0892 282.285 90.1641 283.379 89.5078C284.473 88.8516 285.767 88.5234 287.262 88.5234C288.757 88.5234 290.051 88.8516 291.145 89.5078C292.238 90.1641 293.086 91.0892 293.688 92.2832C294.289 93.4681 294.59 94.849 294.59 96.4258C294.59 97.9935 294.289 99.3698 293.688 100.555C293.086 101.74 292.238 102.66 291.145 103.316C290.051 103.973 288.757 104.301 287.262 104.301ZM287.262 101.402C288.091 101.402 288.775 101.184 289.312 100.746C289.85 100.299 290.251 99.6979 290.516 98.9414C290.789 98.1849 290.926 97.3464 290.926 96.4258C290.926 95.487 290.789 94.6393 290.516 93.8828C290.251 93.1263 289.85 92.5293 289.312 92.0918C288.775 91.6452 288.091 91.4219 287.262 91.4219C286.451 91.4219 285.771 91.6452 285.225 92.0918C284.678 92.5293 284.268 93.1263 283.994 93.8828C283.73 94.6393 283.598 95.487 283.598 96.4258C283.598 97.3464 283.73 98.1849 283.994 98.9414C284.268 99.6979 284.678 100.299 285.225 100.746C285.771 101.184 286.451 101.402 287.262 101.402ZM300.975 104.314C299.999 104.314 299.124 104.141 298.35 103.795C297.575 103.439 296.964 102.92 296.518 102.236C296.071 101.553 295.848 100.71 295.848 99.707C295.848 98.8503 296.007 98.1393 296.326 97.5742C296.645 97.0091 297.078 96.5579 297.625 96.2207C298.181 95.8835 298.805 95.6283 299.498 95.4551C300.191 95.2728 300.906 95.1452 301.645 95.0723C302.547 94.972 303.276 94.8854 303.832 94.8125C304.388 94.7396 304.789 94.6211 305.035 94.457C305.29 94.293 305.418 94.0378 305.418 93.6914V93.623C305.418 92.8848 305.199 92.3105 304.762 91.9004C304.324 91.4902 303.686 91.2852 302.848 91.2852C301.964 91.2852 301.262 91.4766 300.742 91.8594C300.232 92.2422 299.885 92.6934 299.703 93.2129L296.354 92.7344C296.618 91.8047 297.055 91.0299 297.666 90.4102C298.277 89.7812 299.02 89.3118 299.895 89.002C300.779 88.6829 301.754 88.5234 302.82 88.5234C303.549 88.5234 304.279 88.61 305.008 88.7832C305.737 88.9473 306.407 89.2298 307.018 89.6309C307.628 90.0319 308.116 90.5697 308.48 91.2441C308.845 91.9186 309.027 92.7617 309.027 93.7734V104H305.568V101.895H305.459C305.24 102.314 304.93 102.71 304.529 103.084C304.137 103.449 303.645 103.745 303.053 103.973C302.469 104.201 301.777 104.314 300.975 104.314ZM301.891 101.662C302.62 101.662 303.249 101.521 303.777 101.238C304.306 100.947 304.716 100.564 305.008 100.09C305.299 99.6068 305.445 99.0827 305.445 98.5176V96.7266C305.327 96.8177 305.135 96.9043 304.871 96.9863C304.607 97.0592 304.306 97.1276 303.969 97.1914C303.632 97.2552 303.299 97.3099 302.971 97.3555C302.652 97.401 302.374 97.4375 302.137 97.4648C301.599 97.5378 301.116 97.6608 300.688 97.834C300.268 97.998 299.936 98.2259 299.689 98.5176C299.443 98.8092 299.32 99.1875 299.32 99.6523C299.32 100.318 299.562 100.819 300.045 101.156C300.528 101.493 301.143 101.662 301.891 101.662ZM301.795 86.8145L299.033 82.7812H302.492L304.406 86.8145H301.795ZM315.289 95.0586V104H311.693V88.7148H315.221V91.3262H315.398C315.745 90.4694 316.287 89.7904 317.025 89.2891C317.773 88.7786 318.721 88.5234 319.869 88.5234C320.926 88.5234 321.847 88.7467 322.631 89.1934C323.415 89.64 324.021 90.2962 324.449 91.1621C324.887 92.0189 325.105 93.0579 325.105 94.2793V104H321.51V94.8398C321.51 93.819 321.245 93.0215 320.717 92.4473C320.188 91.8639 319.459 91.5723 318.529 91.5723C317.9 91.5723 317.34 91.709 316.848 91.9824C316.365 92.2559 315.982 92.6523 315.699 93.1719C315.426 93.6823 315.289 94.3112 315.289 95.0586Z" fill="#082EF5"/>
<path d="M56.15 135.316L58.802 160H49.996L49.452 142.388L46.052 160H37.144L33.676 142.524L33.166 160H24.36L27.012 135.316H38.572L41.53 151.398L44.114 135.316H56.15ZM81.2683 142.082C78.571 141.946 76.5763 141.867 75.2843 141.844V153.472C76.599 153.449 78.5936 153.37 81.2683 153.234V160H61.5143V153.234C64.121 153.37 66.1043 153.449 67.4643 153.472V141.844C66.1043 141.867 64.121 141.946 61.5143 142.082V135.316H81.2683V142.082ZM92.0168 153.778C100.63 153.733 106.875 153.608 110.751 153.404C110.592 154.333 110.49 155.297 110.445 156.294C110.422 157.269 110.411 158.504 110.411 160H83.9928C84.1741 155.603 84.2648 151.489 84.2648 147.658C84.2648 143.827 84.1741 139.713 83.9928 135.316H110.411V141.47H92.0168V144.734C93.1048 144.757 94.7141 144.768 96.8448 144.768C100.449 144.768 104.177 144.7 108.031 144.564V150.412C104.177 150.276 100.449 150.208 96.8448 150.208C94.7141 150.208 93.1048 150.219 92.0168 150.242V153.778ZM100.517 129.026L103.407 133.956H98.9528L97.3548 131.032L95.7568 133.956H91.3368L94.2268 129.026H100.517ZM103.373 123.892C103.373 125.093 103.044 126.079 102.387 126.85C101.729 127.598 100.789 127.972 99.5648 127.972C98.6355 127.972 97.7515 127.643 96.9128 126.986C96.7088 126.805 96.4935 126.578 96.2668 126.306C96.0855 126.079 95.9268 125.921 95.7908 125.83C95.6548 125.717 95.5075 125.66 95.3488 125.66C95.1448 125.66 94.9861 125.751 94.8728 125.932C94.7595 126.091 94.7255 126.295 94.7708 126.544H91.4048C91.4048 125.479 91.7448 124.538 92.4248 123.722C93.1048 122.883 94.0341 122.464 95.2128 122.464C96.2555 122.464 97.1961 122.827 98.0348 123.552L98.5448 124.096C98.8848 124.527 99.1681 124.742 99.3948 124.742C99.6215 124.742 99.7801 124.685 99.8708 124.572C99.9615 124.436 100.007 124.209 100.007 123.892H103.373ZM142.003 135.35C141.845 139.181 141.765 143.283 141.765 147.658C141.765 152.055 141.845 156.169 142.003 160H129.831L121.603 141.436L122.215 160H113.477C113.659 155.603 113.749 151.489 113.749 147.658C113.749 143.85 113.659 139.747 113.477 135.35H125.989L134.251 154.424L133.673 135.35H142.003ZM166.964 135.35C171.475 135.35 174.614 136.155 176.382 137.764C178.15 139.351 179.034 141.595 179.034 144.496C179.034 146.491 178.683 148.191 177.98 149.596C177.277 150.979 176.042 152.067 174.274 152.86C172.506 153.631 170.069 154.016 166.964 154.016H159.892V160H151.528C151.709 155.603 151.8 151.489 151.8 147.658C151.8 143.827 151.709 139.713 151.528 135.316H159.892V135.35H166.964ZM164.584 147.454C166.465 147.454 167.871 147.386 168.8 147.25C169.752 147.091 170.409 146.819 170.772 146.434C171.157 146.049 171.35 145.482 171.35 144.734C171.35 143.986 171.169 143.431 170.806 143.068C170.466 142.683 169.82 142.422 168.868 142.286C167.939 142.15 166.511 142.082 164.584 142.082H159.892V147.454H164.584ZM210.235 135.316C210.076 139.147 209.997 143.261 209.997 147.658C209.997 152.055 210.076 156.169 210.235 160H202.245V150.752H189.733V160H181.743C181.924 155.603 182.015 151.489 182.015 147.658C182.015 143.827 181.924 139.713 181.743 135.316H189.733V144.564H202.245V135.316H210.235ZM232.708 142.082C230.01 141.946 228.016 141.867 226.724 141.844V153.472C228.038 153.449 230.033 153.37 232.708 153.234V160H212.954V153.234C215.56 153.37 217.544 153.449 218.904 153.472V141.844C217.544 141.867 215.56 141.946 212.954 142.082V135.316H232.708V142.082ZM224.786 133.82H220.468L221.284 128.55H227.574L224.786 133.82Z" fill="#F30761"/>
<path d="M28.625 197H25.8281V195.75H28.5312C29.4948 195.75 30.2917 195.565 30.9219 195.195C31.5573 194.826 32.0312 194.297 32.3438 193.609C32.6562 192.922 32.8125 192.104 32.8125 191.156C32.8125 190.219 32.6589 189.411 32.3516 188.734C32.0443 188.052 31.5833 187.529 30.9688 187.164C30.3594 186.794 29.599 186.609 28.6875 186.609H25.7656V185.359H28.7812C29.9115 185.359 30.8776 185.591 31.6797 186.055C32.487 186.518 33.1042 187.185 33.5312 188.055C33.9583 188.919 34.1719 189.953 34.1719 191.156C34.1719 192.37 33.9557 193.414 33.5234 194.289C33.0911 195.159 32.4609 195.828 31.6328 196.297C30.8099 196.766 29.8073 197 28.625 197ZM26.4375 185.359V197H25.0312V185.359H26.4375ZM38.1719 197.203C37.6198 197.203 37.1172 197.099 36.6641 196.891C36.2109 196.677 35.8516 196.37 35.5859 195.969C35.3203 195.568 35.1875 195.083 35.1875 194.516C35.1875 194.016 35.2865 193.612 35.4844 193.305C35.6823 192.992 35.9453 192.747 36.2734 192.57C36.6068 192.388 36.9714 192.253 37.3672 192.164C37.7682 192.076 38.1719 192.005 38.5781 191.953C39.1094 191.885 39.5391 191.833 39.8672 191.797C40.2005 191.76 40.4427 191.698 40.5938 191.609C40.75 191.521 40.8281 191.37 40.8281 191.156V191.109C40.8281 190.552 40.6745 190.12 40.3672 189.812C40.0651 189.5 39.6042 189.344 38.9844 189.344C38.349 189.344 37.849 189.484 37.4844 189.766C37.1198 190.042 36.8646 190.339 36.7188 190.656L35.4375 190.203C35.6667 189.672 35.9714 189.258 36.3516 188.961C36.737 188.664 37.1536 188.456 37.6016 188.336C38.0547 188.216 38.5 188.156 38.9375 188.156C39.2188 188.156 39.5417 188.19 39.9062 188.258C40.2708 188.32 40.625 188.456 40.9688 188.664C41.3177 188.867 41.6042 189.177 41.8281 189.594C42.0573 190.005 42.1719 190.557 42.1719 191.25V197H40.8281V195.812H40.7656C40.6771 196 40.526 196.203 40.3125 196.422C40.099 196.635 39.8151 196.82 39.4609 196.977C39.112 197.128 38.6823 197.203 38.1719 197.203ZM38.375 196C38.9062 196 39.3542 195.896 39.7188 195.688C40.0833 195.479 40.3594 195.211 40.5469 194.883C40.7344 194.549 40.8281 194.203 40.8281 193.844V192.609C40.7708 192.677 40.6458 192.74 40.4531 192.797C40.2656 192.849 40.0469 192.896 39.7969 192.938C39.5521 192.979 39.3125 193.016 39.0781 193.047C38.8438 193.073 38.6562 193.094 38.5156 193.109C38.1667 193.156 37.8411 193.232 37.5391 193.336C37.237 193.435 36.9922 193.583 36.8047 193.781C36.6224 193.979 36.5312 194.25 36.5312 194.594C36.5312 195.057 36.7031 195.409 37.0469 195.648C37.3958 195.883 37.8385 196 38.375 196ZM38.5781 187.172L37.0781 185.031H38.5938L39.6875 187.172H38.5781ZM45.2188 191.75V197H43.8906V188.266H45.1719V189.641H45.2969C45.5 189.193 45.8099 188.833 46.2266 188.562C46.6432 188.292 47.1823 188.156 47.8438 188.156C48.4323 188.156 48.9479 188.276 49.3906 188.516C49.8333 188.755 50.1771 189.12 50.4219 189.609C50.6719 190.094 50.7969 190.708 50.7969 191.453V197H49.4688V191.547C49.4688 190.865 49.2891 190.331 48.9297 189.945C48.5703 189.555 48.0807 189.359 47.4609 189.359C47.0339 189.359 46.651 189.453 46.3125 189.641C45.974 189.828 45.7057 190.099 45.5078 190.453C45.3151 190.807 45.2188 191.24 45.2188 191.75ZM53.8438 191.75V197H52.5156V185.359H53.8438V189.641H53.9688C54.1719 189.188 54.4766 188.828 54.8828 188.562C55.2943 188.292 55.8438 188.156 56.5312 188.156C57.125 188.156 57.6458 188.276 58.0938 188.516C58.5417 188.75 58.8906 189.112 59.1406 189.602C59.3906 190.086 59.5156 190.703 59.5156 191.453V197H58.1719V191.547C58.1719 190.849 57.9922 190.31 57.6328 189.93C57.2734 189.549 56.776 189.359 56.1406 189.359C55.6979 189.359 55.3047 189.453 54.9609 189.641C54.6172 189.828 54.3438 190.099 54.1406 190.453C53.9427 190.807 53.8438 191.24 53.8438 191.75ZM68.5156 197.188C67.7031 197.188 67 196.995 66.4062 196.609C65.8177 196.219 65.362 195.685 65.0391 195.008C64.7214 194.331 64.5625 193.557 64.5625 192.688C64.5625 191.797 64.7266 191.013 65.0547 190.336C65.3828 189.654 65.8411 189.12 66.4297 188.734C67.0234 188.349 67.7135 188.156 68.5 188.156C69.1146 188.156 69.6667 188.271 70.1562 188.5C70.651 188.724 71.0547 189.042 71.3672 189.453C71.6849 189.865 71.8802 190.344 71.9531 190.891H70.6094C70.5417 190.625 70.4193 190.375 70.2422 190.141C70.0651 189.906 69.8307 189.719 69.5391 189.578C69.2526 189.432 68.9115 189.359 68.5156 189.359C67.9948 189.359 67.5391 189.495 67.1484 189.766C66.7578 190.036 66.4531 190.419 66.2344 190.914C66.0156 191.404 65.9062 191.979 65.9062 192.641C65.9062 193.312 66.013 193.901 66.2266 194.406C66.4401 194.906 66.7422 195.294 67.1328 195.57C67.5286 195.846 67.9896 195.984 68.5156 195.984C69.0417 195.984 69.4922 195.849 69.8672 195.578C70.2422 195.302 70.4896 194.927 70.6094 194.453H71.9531C71.8802 194.969 71.6927 195.432 71.3906 195.844C71.0938 196.255 70.7005 196.583 70.2109 196.828C69.7266 197.068 69.1615 197.188 68.5156 197.188ZM74.5469 191.75V197H73.2188V185.359H74.5469V189.641H74.6719C74.875 189.188 75.1797 188.828 75.5859 188.562C75.9974 188.292 76.5469 188.156 77.2344 188.156C77.8281 188.156 78.349 188.276 78.7969 188.516C79.2448 188.75 79.5938 189.112 79.8438 189.602C80.0938 190.086 80.2188 190.703 80.2188 191.453V197H78.875V191.547C78.875 190.849 78.6953 190.31 78.3359 189.93C77.9766 189.549 77.4792 189.359 76.8438 189.359C76.401 189.359 76.0078 189.453 75.6641 189.641C75.3203 189.828 75.0469 190.099 74.8438 190.453C74.6458 190.807 74.5469 191.24 74.5469 191.75ZM85.4688 197.188C84.6823 197.188 83.9922 197 83.3984 196.625C82.8047 196.25 82.3411 195.724 82.0078 195.047C81.6797 194.37 81.5156 193.583 81.5156 192.688C81.5156 191.776 81.6797 190.982 82.0078 190.305C82.3411 189.622 82.8047 189.094 83.3984 188.719C83.9922 188.344 84.6823 188.156 85.4688 188.156C86.2604 188.156 86.9531 188.344 87.5469 188.719C88.1406 189.094 88.6042 189.622 88.9375 190.305C89.2708 190.982 89.4375 191.776 89.4375 192.688C89.4375 193.583 89.2708 194.37 88.9375 195.047C88.6042 195.724 88.1406 196.25 87.5469 196.625C86.9531 197 86.2604 197.188 85.4688 197.188ZM85.4688 195.984C86.0729 195.984 86.5677 195.831 86.9531 195.523C87.3385 195.216 87.625 194.812 87.8125 194.312C88 193.807 88.0938 193.266 88.0938 192.688C88.0938 192.099 88 191.552 87.8125 191.047C87.625 190.542 87.3385 190.135 86.9531 189.828C86.5677 189.516 86.0729 189.359 85.4688 189.359C84.875 189.359 84.3854 189.516 84 189.828C83.6146 190.135 83.3281 190.542 83.1406 191.047C82.9531 191.552 82.8594 192.099 82.8594 192.688C82.8594 193.266 82.9531 193.807 83.1406 194.312C83.3281 194.812 83.6146 195.216 84 195.523C84.3854 195.831 84.875 195.984 85.4688 195.984ZM98 200.453C97.026 200.453 96.2552 200.276 95.6875 199.922C95.125 199.568 94.7083 199.161 94.4375 198.703L95.5 197.953C95.6198 198.115 95.7734 198.297 95.9609 198.5C96.1484 198.708 96.4036 198.888 96.7266 199.039C97.0495 199.19 97.474 199.266 98 199.266C98.7031 199.266 99.2839 199.096 99.7422 198.758C100.206 198.419 100.438 197.885 100.438 197.156V195.391H100.312C100.219 195.547 100.081 195.742 99.8984 195.977C99.7214 196.206 99.4635 196.411 99.125 196.594C98.7917 196.771 98.3385 196.859 97.7656 196.859C97.0625 196.859 96.4323 196.693 95.875 196.359C95.3177 196.026 94.875 195.542 94.5469 194.906C94.224 194.271 94.0625 193.5 94.0625 192.594C94.0625 191.698 94.2188 190.919 94.5312 190.258C94.849 189.591 95.2891 189.076 95.8516 188.711C96.4141 188.341 97.0625 188.156 97.7969 188.156C98.3646 188.156 98.8151 188.25 99.1484 188.438C99.487 188.625 99.7448 188.839 99.9219 189.078C100.104 189.312 100.245 189.505 100.344 189.656H100.484V188.266H101.766V197.25C101.766 198 101.596 198.609 101.258 199.078C100.924 199.552 100.471 199.898 99.8984 200.117C99.3307 200.341 98.6979 200.453 98 200.453ZM97.9531 195.656C98.7604 195.656 99.3776 195.383 99.8047 194.836C100.237 194.289 100.453 193.531 100.453 192.562C100.453 191.932 100.359 191.378 100.172 190.898C99.9844 190.419 99.7031 190.044 99.3281 189.773C98.9583 189.497 98.5 189.359 97.9531 189.359C97.3854 189.359 96.9115 189.505 96.5312 189.797C96.1562 190.083 95.875 190.469 95.6875 190.953C95.5 191.438 95.4062 191.974 95.4062 192.562C95.4062 193.167 95.5 193.703 95.6875 194.172C95.8802 194.635 96.1667 195 96.5469 195.266C96.9271 195.526 97.3958 195.656 97.9531 195.656ZM103.484 197V188.266H104.812V197H103.484ZM104.156 186.812C103.896 186.812 103.672 186.724 103.484 186.547C103.297 186.37 103.203 186.156 103.203 185.906C103.203 185.656 103.297 185.443 103.484 185.266C103.672 185.089 103.896 185 104.156 185C104.417 185 104.641 185.089 104.828 185.266C105.016 185.443 105.109 185.656 105.109 185.906C105.109 186.156 105.016 186.37 104.828 186.547C104.641 186.724 104.417 186.812 104.156 186.812ZM109.094 197.203C108.542 197.203 108.039 197.099 107.586 196.891C107.133 196.677 106.773 196.37 106.508 195.969C106.242 195.568 106.109 195.083 106.109 194.516C106.109 194.016 106.208 193.612 106.406 193.305C106.604 192.992 106.867 192.747 107.195 192.57C107.529 192.388 107.893 192.253 108.289 192.164C108.69 192.076 109.094 192.005 109.5 191.953C110.031 191.885 110.461 191.833 110.789 191.797C111.122 191.76 111.365 191.698 111.516 191.609C111.672 191.521 111.75 191.37 111.75 191.156V191.109C111.75 190.552 111.596 190.12 111.289 189.812C110.987 189.5 110.526 189.344 109.906 189.344C109.271 189.344 108.771 189.484 108.406 189.766C108.042 190.042 107.786 190.339 107.641 190.656L106.359 190.203C106.589 189.672 106.893 189.258 107.273 188.961C107.659 188.664 108.076 188.456 108.523 188.336C108.977 188.216 109.422 188.156 109.859 188.156C110.141 188.156 110.464 188.19 110.828 188.258C111.193 188.32 111.547 188.456 111.891 188.664C112.24 188.867 112.526 189.177 112.75 189.594C112.979 190.005 113.094 190.557 113.094 191.25V197H111.75V195.812H111.688C111.599 196 111.448 196.203 111.234 196.422C111.021 196.635 110.737 196.82 110.383 196.977C110.034 197.128 109.604 197.203 109.094 197.203ZM109.297 196C109.828 196 110.276 195.896 110.641 195.688C111.005 195.479 111.281 195.211 111.469 194.883C111.656 194.549 111.75 194.203 111.75 193.844V192.609C111.693 192.677 111.568 192.74 111.375 192.797C111.188 192.849 110.969 192.896 110.719 192.938C110.474 192.979 110.234 193.016 110 193.047C109.766 193.073 109.578 193.094 109.438 193.109C109.089 193.156 108.763 193.232 108.461 193.336C108.159 193.435 107.914 193.583 107.727 193.781C107.544 193.979 107.453 194.25 107.453 194.594C107.453 195.057 107.625 195.409 107.969 195.648C108.318 195.883 108.76 196 109.297 196ZM109.297 187.172L110.391 185.031H111.906L110.406 187.172H109.297ZM118.344 197.188C117.557 197.188 116.867 197 116.273 196.625C115.68 196.25 115.216 195.724 114.883 195.047C114.555 194.37 114.391 193.583 114.391 192.688C114.391 191.776 114.555 190.982 114.883 190.305C115.216 189.622 115.68 189.094 116.273 188.719C116.867 188.344 117.557 188.156 118.344 188.156C119.135 188.156 119.828 188.344 120.422 188.719C121.016 189.094 121.479 189.622 121.812 190.305C122.146 190.982 122.312 191.776 122.312 192.688C122.312 193.583 122.146 194.37 121.812 195.047C121.479 195.724 121.016 196.25 120.422 196.625C119.828 197 119.135 197.188 118.344 197.188ZM118.344 195.984C118.948 195.984 119.443 195.831 119.828 195.523C120.214 195.216 120.5 194.812 120.688 194.312C120.875 193.807 120.969 193.266 120.969 192.688C120.969 192.099 120.875 191.552 120.688 191.047C120.5 190.542 120.214 190.135 119.828 189.828C119.443 189.516 118.948 189.359 118.344 189.359C117.75 189.359 117.26 189.516 116.875 189.828C116.49 190.135 116.203 190.542 116.016 191.047C115.828 191.552 115.734 192.099 115.734 192.688C115.734 193.266 115.828 193.807 116.016 194.312C116.203 194.812 116.49 195.216 116.875 195.523C117.26 195.831 117.75 195.984 118.344 195.984ZM134.484 188.266L131.266 197H129.891L126.672 188.266H128.125L130.531 195.234H130.625L133.031 188.266H134.484ZM135.516 197V188.266H136.844V197H135.516ZM136.188 186.812C135.927 186.812 135.703 186.724 135.516 186.547C135.328 186.37 135.234 186.156 135.234 185.906C135.234 185.656 135.328 185.443 135.516 185.266C135.703 185.089 135.927 185 136.188 185C136.448 185 136.672 185.089 136.859 185.266C137.047 185.443 137.141 185.656 137.141 185.906C137.141 186.156 137.047 186.37 136.859 186.547C136.672 186.724 136.448 186.812 136.188 186.812ZM142.219 197.188C141.38 197.188 140.654 197 140.039 196.625C139.43 196.25 138.961 195.727 138.633 195.055C138.305 194.378 138.141 193.594 138.141 192.703C138.141 191.807 138.302 191.018 138.625 190.336C138.948 189.654 139.401 189.12 139.984 188.734C140.573 188.349 141.26 188.156 142.047 188.156C142.5 188.156 142.951 188.232 143.398 188.383C143.846 188.534 144.253 188.779 144.617 189.117C144.987 189.456 145.281 189.904 145.5 190.461C145.719 191.018 145.828 191.703 145.828 192.516V193.094H139.094V191.938H145.102L144.484 192.375C144.484 191.792 144.393 191.273 144.211 190.82C144.029 190.367 143.755 190.01 143.391 189.75C143.031 189.49 142.583 189.359 142.047 189.359C141.51 189.359 141.049 189.492 140.664 189.758C140.284 190.018 139.992 190.359 139.789 190.781C139.586 191.203 139.484 191.656 139.484 192.141V192.906C139.484 193.568 139.599 194.128 139.828 194.586C140.057 195.044 140.378 195.393 140.789 195.633C141.201 195.867 141.677 195.984 142.219 195.984C142.568 195.984 142.885 195.935 143.172 195.836C143.458 195.732 143.706 195.578 143.914 195.375C144.122 195.167 144.281 194.911 144.391 194.609L145.688 194.984C145.552 195.422 145.323 195.807 145 196.141C144.682 196.469 144.286 196.727 143.812 196.914C143.339 197.096 142.807 197.188 142.219 197.188ZM143.188 187.234L142 185.641L140.828 187.234H139.547V187.141L141.391 184.766H142.625L144.453 187.141V187.234H143.188ZM148.422 191.75V197H147.094V188.266H148.375V189.641H148.5C148.703 189.193 149.013 188.833 149.43 188.562C149.846 188.292 150.385 188.156 151.047 188.156C151.635 188.156 152.151 188.276 152.594 188.516C153.036 188.755 153.38 189.12 153.625 189.609C153.875 190.094 154 190.708 154 191.453V197H152.672V191.547C152.672 190.865 152.492 190.331 152.133 189.945C151.773 189.555 151.284 189.359 150.664 189.359C150.237 189.359 149.854 189.453 149.516 189.641C149.177 189.828 148.909 190.099 148.711 190.453C148.518 190.807 148.422 191.24 148.422 191.75ZM164.453 191.391V192.641H159.359V191.391H164.453ZM171.141 191.75V197H169.812V185.359H171.141V189.641H171.266C171.469 189.188 171.773 188.828 172.18 188.562C172.591 188.292 173.141 188.156 173.828 188.156C174.422 188.156 174.943 188.276 175.391 188.516C175.839 188.75 176.188 189.112 176.438 189.602C176.688 190.086 176.812 190.703 176.812 191.453V197H175.469V191.547C175.469 190.849 175.289 190.31 174.93 189.93C174.57 189.549 174.073 189.359 173.438 189.359C172.995 189.359 172.602 189.453 172.258 189.641C171.914 189.828 171.641 190.099 171.438 190.453C171.24 190.807 171.141 191.24 171.141 191.75ZM182.062 197.188C181.276 197.188 180.586 197 179.992 196.625C179.398 196.25 178.935 195.724 178.602 195.047C178.273 194.37 178.109 193.583 178.109 192.688C178.109 191.776 178.273 190.982 178.602 190.305C178.935 189.622 179.398 189.094 179.992 188.719C180.586 188.344 181.276 188.156 182.062 188.156C182.854 188.156 183.547 188.344 184.141 188.719C184.734 189.094 185.198 189.622 185.531 190.305C185.865 190.982 186.031 191.776 186.031 192.688C186.031 193.583 185.865 194.37 185.531 195.047C185.198 195.724 184.734 196.25 184.141 196.625C183.547 197 182.854 197.188 182.062 197.188ZM182.062 195.984C182.667 195.984 183.161 195.831 183.547 195.523C183.932 195.216 184.219 194.812 184.406 194.312C184.594 193.807 184.688 193.266 184.688 192.688C184.688 192.099 184.594 191.552 184.406 191.047C184.219 190.542 183.932 190.135 183.547 189.828C183.161 189.516 182.667 189.359 182.062 189.359C181.469 189.359 180.979 189.516 180.594 189.828C180.208 190.135 179.922 190.542 179.734 191.047C179.547 191.552 179.453 192.099 179.453 192.688C179.453 193.266 179.547 193.807 179.734 194.312C179.922 194.812 180.208 195.216 180.594 195.523C180.979 195.831 181.469 195.984 182.062 195.984ZM182.062 199.875C181.802 199.875 181.578 199.786 181.391 199.609C181.203 199.432 181.109 199.219 181.109 198.969C181.109 198.719 181.203 198.505 181.391 198.328C181.578 198.151 181.802 198.062 182.062 198.062C182.323 198.062 182.547 198.151 182.734 198.328C182.922 198.505 183.016 198.719 183.016 198.969C183.016 199.219 182.922 199.432 182.734 199.609C182.547 199.786 182.323 199.875 182.062 199.875ZM190.859 197.188C190.047 197.188 189.344 196.995 188.75 196.609C188.161 196.219 187.706 195.685 187.383 195.008C187.065 194.331 186.906 193.557 186.906 192.688C186.906 191.797 187.07 191.013 187.398 190.336C187.727 189.654 188.185 189.12 188.773 188.734C189.367 188.349 190.057 188.156 190.844 188.156C191.458 188.156 192.01 188.271 192.5 188.5C192.995 188.724 193.398 189.042 193.711 189.453C194.029 189.865 194.224 190.344 194.297 190.891H192.953C192.885 190.625 192.763 190.375 192.586 190.141C192.409 189.906 192.174 189.719 191.883 189.578C191.596 189.432 191.255 189.359 190.859 189.359C190.339 189.359 189.883 189.495 189.492 189.766C189.102 190.036 188.797 190.419 188.578 190.914C188.359 191.404 188.25 191.979 188.25 192.641C188.25 193.312 188.357 193.901 188.57 194.406C188.784 194.906 189.086 195.294 189.477 195.57C189.872 195.846 190.333 195.984 190.859 195.984C191.385 195.984 191.836 195.849 192.211 195.578C192.586 195.302 192.833 194.927 192.953 194.453H194.297C194.224 194.969 194.036 195.432 193.734 195.844C193.438 196.255 193.044 196.583 192.555 196.828C192.07 197.068 191.505 197.188 190.859 197.188ZM205.484 190.234L204.281 190.562C204.167 190.266 203.969 189.984 203.688 189.719C203.411 189.448 202.979 189.312 202.391 189.312C201.859 189.312 201.417 189.438 201.062 189.688C200.708 189.932 200.531 190.24 200.531 190.609C200.531 190.943 200.651 191.208 200.891 191.406C201.135 191.604 201.516 191.766 202.031 191.891L203.328 192.203C204.104 192.391 204.682 192.68 205.062 193.07C205.448 193.461 205.641 193.958 205.641 194.562C205.641 195.062 205.497 195.51 205.211 195.906C204.924 196.302 204.526 196.615 204.016 196.844C203.505 197.073 202.911 197.188 202.234 197.188C201.344 197.188 200.607 196.992 200.023 196.602C199.445 196.211 199.078 195.646 198.922 194.906L200.188 194.594C200.307 195.062 200.536 195.414 200.875 195.648C201.219 195.883 201.667 196 202.219 196C202.839 196 203.333 195.867 203.703 195.602C204.078 195.331 204.266 195.01 204.266 194.641C204.266 194.026 203.833 193.615 202.969 193.406L201.516 193.062C200.714 192.87 200.125 192.576 199.75 192.18C199.375 191.784 199.188 191.286 199.188 190.688C199.188 190.193 199.326 189.755 199.602 189.375C199.883 188.995 200.266 188.698 200.75 188.484C201.234 188.266 201.781 188.156 202.391 188.156C203.26 188.156 203.94 188.349 204.43 188.734C204.924 189.115 205.276 189.615 205.484 190.234ZM206.922 197V188.266H208.25V197H206.922ZM207.594 186.812C207.333 186.812 207.109 186.724 206.922 186.547C206.734 186.37 206.641 186.156 206.641 185.906C206.641 185.656 206.734 185.443 206.922 185.266C207.109 185.089 207.333 185 207.594 185C207.854 185 208.078 185.089 208.266 185.266C208.453 185.443 208.547 185.656 208.547 185.906C208.547 186.156 208.453 186.37 208.266 186.547C208.078 186.724 207.854 186.812 207.594 186.812ZM211.297 191.75V197H209.969V188.266H211.25V189.641H211.375C211.578 189.193 211.888 188.833 212.305 188.562C212.721 188.292 213.26 188.156 213.922 188.156C214.51 188.156 215.026 188.276 215.469 188.516C215.911 188.755 216.255 189.12 216.5 189.609C216.75 190.094 216.875 190.708 216.875 191.453V197H215.547V191.547C215.547 190.865 215.367 190.331 215.008 189.945C214.648 189.555 214.159 189.359 213.539 189.359C213.112 189.359 212.729 189.453 212.391 189.641C212.052 189.828 211.784 190.099 211.586 190.453C211.393 190.807 211.297 191.24 211.297 191.75ZM219.922 191.75V197H218.594V185.359H219.922V189.641H220.047C220.25 189.188 220.555 188.828 220.961 188.562C221.372 188.292 221.922 188.156 222.609 188.156C223.203 188.156 223.724 188.276 224.172 188.516C224.62 188.75 224.969 189.112 225.219 189.602C225.469 190.086 225.594 190.703 225.594 191.453V197H224.25V191.547C224.25 190.849 224.07 190.31 223.711 189.93C223.352 189.549 222.854 189.359 222.219 189.359C221.776 189.359 221.383 189.453 221.039 189.641C220.695 189.828 220.422 190.099 220.219 190.453C220.021 190.807 219.922 191.24 219.922 191.75ZM236.047 191.391V192.641H230.953V191.391H236.047ZM241.406 200.266V188.266H242.688V189.656H242.844C242.943 189.505 243.081 189.312 243.258 189.078C243.435 188.839 243.69 188.625 244.023 188.438C244.357 188.25 244.807 188.156 245.375 188.156C246.109 188.156 246.755 188.341 247.312 188.711C247.87 189.076 248.305 189.596 248.617 190.273C248.935 190.945 249.094 191.74 249.094 192.656C249.094 193.578 248.938 194.38 248.625 195.062C248.312 195.74 247.878 196.263 247.32 196.633C246.763 197.003 246.12 197.188 245.391 197.188C244.833 197.188 244.385 197.094 244.047 196.906C243.708 196.714 243.448 196.497 243.266 196.258C243.083 196.013 242.943 195.812 242.844 195.656H242.734V200.266H241.406ZM245.219 195.984C245.776 195.984 246.242 195.836 246.617 195.539C246.992 195.237 247.273 194.833 247.461 194.328C247.654 193.823 247.75 193.26 247.75 192.641C247.75 192.026 247.656 191.471 247.469 190.977C247.281 190.482 247 190.089 246.625 189.797C246.255 189.505 245.786 189.359 245.219 189.359C244.672 189.359 244.214 189.497 243.844 189.773C243.474 190.044 243.193 190.427 243 190.922C242.812 191.411 242.719 191.984 242.719 192.641C242.719 193.297 242.815 193.878 243.008 194.383C243.201 194.883 243.482 195.276 243.852 195.562C244.227 195.844 244.682 195.984 245.219 195.984ZM251.719 191.75V197H250.391V185.359H251.719V189.641H251.844C252.047 189.188 252.352 188.828 252.758 188.562C253.169 188.292 253.719 188.156 254.406 188.156C255 188.156 255.521 188.276 255.969 188.516C256.417 188.75 256.766 189.112 257.016 189.602C257.266 190.086 257.391 190.703 257.391 191.453V197H256.047V191.547C256.047 190.849 255.867 190.31 255.508 189.93C255.148 189.549 254.651 189.359 254.016 189.359C253.573 189.359 253.18 189.453 252.836 189.641C252.492 189.828 252.219 190.099 252.016 190.453C251.818 190.807 251.719 191.24 251.719 191.75ZM264.609 193.438V188.266H265.938V197H264.609V195.516H264.516C264.307 195.958 263.987 196.336 263.555 196.648C263.128 196.961 262.583 197.115 261.922 197.109C261.375 197.109 260.891 196.992 260.469 196.758C260.047 196.518 259.714 196.154 259.469 195.664C259.229 195.174 259.109 194.557 259.109 193.812V188.266H260.438V193.734C260.438 194.365 260.617 194.87 260.977 195.25C261.341 195.63 261.802 195.818 262.359 195.812C262.693 195.812 263.031 195.729 263.375 195.562C263.724 195.391 264.016 195.13 264.25 194.781C264.49 194.427 264.609 193.979 264.609 193.438ZM262.531 199.875C262.271 199.875 262.047 199.786 261.859 199.609C261.672 199.432 261.578 199.219 261.578 198.969C261.578 198.719 261.672 198.505 261.859 198.328C262.047 198.151 262.271 198.062 262.531 198.062C262.792 198.062 263.016 198.151 263.203 198.328C263.391 198.505 263.484 198.719 263.484 198.969C263.484 199.219 263.391 199.432 263.203 199.609C263.016 199.786 262.792 199.875 262.531 199.875ZM272.734 191.75V197H271.406V185.359H272.734V189.641H272.859C273.062 189.188 273.367 188.828 273.773 188.562C274.185 188.292 274.734 188.156 275.422 188.156C276.016 188.156 276.536 188.276 276.984 188.516C277.432 188.75 277.781 189.112 278.031 189.602C278.281 190.086 278.406 190.703 278.406 191.453V197H277.062V191.547C277.062 190.849 276.883 190.31 276.523 189.93C276.164 189.549 275.667 189.359 275.031 189.359C274.589 189.359 274.195 189.453 273.852 189.641C273.508 189.828 273.234 190.099 273.031 190.453C272.833 190.807 272.734 191.24 272.734 191.75ZM285.625 193.438V188.266H286.953V197H285.625V195.516H285.531C285.323 195.958 285.003 196.336 284.57 196.648C284.143 196.961 283.599 197.115 282.938 197.109C282.391 197.109 281.906 196.992 281.484 196.758C281.062 196.518 280.729 196.154 280.484 195.664C280.245 195.174 280.125 194.557 280.125 193.812V188.266H281.453V193.734C281.453 194.365 281.633 194.87 281.992 195.25C282.357 195.63 282.818 195.818 283.375 195.812C283.708 195.812 284.047 195.729 284.391 195.562C284.74 195.391 285.031 195.13 285.266 194.781C285.505 194.427 285.625 193.979 285.625 193.438ZM289.531 200.266C289.302 200.271 289.099 200.255 288.922 200.219C288.745 200.182 288.62 200.146 288.547 200.109L288.891 198.938L289.023 198.969C289.471 199.073 289.846 199.049 290.148 198.898C290.456 198.753 290.724 198.365 290.953 197.734L291.203 197.047L287.984 188.266H289.438L291.844 195.234H291.938L294.344 188.266H295.797L292.094 198.266C291.927 198.719 291.721 199.094 291.477 199.391C291.232 199.688 290.948 199.906 290.625 200.047C290.302 200.193 289.938 200.266 289.531 200.266ZM298.156 191.75V197H296.828V188.266H298.109V189.641H298.234C298.438 189.193 298.747 188.833 299.164 188.562C299.581 188.292 300.12 188.156 300.781 188.156C301.37 188.156 301.885 188.276 302.328 188.516C302.771 188.755 303.115 189.12 303.359 189.609C303.609 190.094 303.734 190.708 303.734 191.453V197H302.406V191.547C302.406 190.865 302.227 190.331 301.867 189.945C301.508 189.555 301.018 189.359 300.398 189.359C299.971 189.359 299.589 189.453 299.25 189.641C298.911 189.828 298.643 190.099 298.445 190.453C298.253 190.807 298.156 191.24 298.156 191.75ZM306.781 191.75V197H305.453V185.359H306.781V189.641H306.906C307.109 189.188 307.414 188.828 307.82 188.562C308.232 188.292 308.781 188.156 309.469 188.156C310.062 188.156 310.583 188.276 311.031 188.516C311.479 188.75 311.828 189.112 312.078 189.602C312.328 190.086 312.453 190.703 312.453 191.453V197H311.109V191.547C311.109 190.849 310.93 190.31 310.57 189.93C310.211 189.549 309.714 189.359 309.078 189.359C308.635 189.359 308.242 189.453 307.898 189.641C307.555 189.828 307.281 190.099 307.078 190.453C306.88 190.807 306.781 191.24 306.781 191.75Z" fill="#1E1F20"/>
<g clip-path="url(#clip1_77_1412)">
<path d="M31.6357 401L61.0413 371.594C70.8834 361.752 70.8834 345.801 61.0413 335.959C51.1993 326.117 35.2476 326.117 25.4055 335.959L-4.00006 365.364L-33.4056 335.953C-43.2477 326.117 -59.2051 326.117 -69.0472 335.953C-78.8835 345.795 -78.8835 361.752 -69.0472 371.594L-39.6416 401L-69.0472 430.406C-78.8892 440.248 -78.8892 456.199 -69.0472 466.041C-59.2051 475.883 -43.2534 475.883 -33.4114 466.041L-4.00581 436.636L25.3998 466.041C35.2418 475.883 51.1935 475.883 61.0356 466.041C70.8776 456.199 70.8776 440.248 61.0356 430.406L31.63 401H31.6357Z" fill="#FCFCFD" stroke="#CCD4FF" stroke-width="2" stroke-miterlimit="10"/>
</g>
<g clip-path="url(#clip2_77_1412)">
<path d="M104.254 720.405C100.527 722.191 88.6117 730.644 84.0051 729.785C83.8084 729.822 83.5967 729.839 83.3726 729.839V729.991C83.2282 729.936 83.0813 729.882 82.9369 729.822C79.9463 729.611 75.25 727.074 71.2111 724.708C59.0421 718.578 48.4718 710.552 39.7465 701.257C26.2727 687.083 17.291 670.023 13.3094 652.174C13.1774 651.6 13.0554 651.024 12.9309 650.45C10.5554 639.064 10.2292 627.408 12.1565 616.072C20.3812 612.447 29.0143 609.18 37.7918 606.044C38.7306 605.706 39.6768 605.365 40.6305 605.032C50.668 601.449 60.8723 598.025 70.9098 594.484C74.5628 593.17 78.1883 591.833 81.7616 590.454C83.1012 589.977 84.0325 589.644 85.4668 590.158C108.497 598.43 131.518 606.705 154.541 614.977C155.181 615.019 155.749 615.357 155.889 616.06C155.896 616.12 155.911 616.174 155.918 616.236C156.028 616.46 156.058 616.641 155.998 616.781C162.024 655.658 143.035 697.321 104.254 720.402V720.405Z" fill="#FCFCFD" stroke="#CCD4FF" stroke-width="2" stroke-miterlimit="10"/>
<path d="M108.396 652.624C97.2325 659.109 88.5247 669.341 84.0003 681.592C79.4733 669.341 70.7655 659.109 59.6025 652.624C70.7655 646.138 79.4733 635.903 84.0003 623.653C88.5247 635.903 97.2325 646.138 108.396 652.624Z" fill="#FFE41B" stroke="#CCD4FF" stroke-width="2" stroke-miterlimit="10"/>
</g>
<rect x="220.811" y="330.825" width="18.5306" height="455.323" fill="#E1E4EA"/>
<path d="M228.113 594.721C224.055 594.721 221.842 596.565 220.735 599.516V561.153L239.548 555.251V782.478H234.384V600.992C234.384 598.779 232.17 594.721 228.113 594.721Z" fill="#1E1F20"/>
<path d="M228.113 440.996C224.055 440.996 221.842 442.84 220.735 445.791V407.428L239.548 401.526V628.753H234.384V447.267C234.384 445.054 232.17 440.996 228.113 440.996Z" fill="#1E1F20"/>
<g filter="url(#filter0_d_77_1412)">
<circle cx="231.472" cy="315.342" r="73.3416" fill="#F30761"/>
</g>
<ellipse cx="231.811" cy="315.342" rx="63.5402" ry="63.8782" fill="#082EF5"/>
<path d="M224.405 303.798C224.096 302.873 223.683 301.713 223.163 300.318L215.401 300.318L214.184 303.798L208.076 303.798L214.89 286.131L223.845 286.131L230.707 303.798L224.405 303.798ZM221.776 296.522C221.16 294.818 220.527 293.115 219.878 291.411L219.294 289.83C218.726 291.306 217.891 293.537 216.788 296.522L221.776 296.522ZM253.246 286.155C253.133 288.897 253.076 291.833 253.076 294.964C253.076 298.112 253.133 301.056 253.246 303.798L244.535 303.798L238.646 290.511L239.084 303.798L232.83 303.798C232.959 300.65 233.024 297.706 233.024 294.964C233.024 292.239 232.959 289.302 232.83 286.155L241.785 286.155L247.698 299.807L247.284 286.155L253.246 286.155ZM205.899 326.241C203.352 326.16 200.878 326.111 198.477 326.095L198.477 338.798L192.394 338.798L192.394 326.095C189.976 326.111 187.51 326.16 184.996 326.241L184.996 321.131L205.899 321.131L205.899 326.241ZM218.536 339.041C214.821 339.041 212.087 338.238 210.335 336.632C208.583 335.01 207.707 332.738 207.707 329.818C207.707 326.931 208.575 324.676 210.311 323.053C212.063 321.431 214.804 320.62 218.536 320.62C222.283 320.62 225.025 321.431 226.761 323.053C228.513 324.676 229.389 326.931 229.389 329.818C229.389 332.755 228.521 335.026 226.785 336.632C225.049 338.238 222.299 339.041 218.536 339.041ZM218.536 334.077C220.336 334.077 221.634 333.736 222.429 333.055C223.224 332.357 223.622 331.278 223.622 329.818C223.622 328.391 223.224 327.328 222.429 326.63C221.634 325.933 220.336 325.584 218.536 325.584C216.751 325.584 215.461 325.933 214.666 326.63C213.872 327.328 213.474 328.391 213.474 329.818C213.474 331.262 213.872 332.333 214.666 333.03C215.461 333.728 216.751 334.077 218.536 334.077ZM247.983 338.798C247.675 337.873 247.261 336.713 246.742 335.318L238.979 335.318L237.762 338.798L231.654 338.798L238.468 321.131L247.423 321.131L254.285 338.798L247.983 338.798ZM245.355 331.522C244.738 329.818 244.105 328.115 243.457 326.411L242.873 324.83C242.305 326.306 241.469 328.537 240.366 331.522L245.355 331.522ZM241.777 320.133L239.782 316.361L244.284 316.361L244.868 320.133L241.777 320.133ZM277.3 321.155C277.186 323.897 277.13 326.833 277.13 329.964C277.13 333.112 277.186 336.056 277.3 338.798L268.588 338.798L262.699 325.511L263.137 338.798L256.883 338.798C257.013 335.65 257.078 332.706 257.078 329.964C257.078 327.239 257.013 324.302 256.883 321.155L265.838 321.155L271.752 334.807L271.338 321.155L277.3 321.155Z" fill="#FCFCFD"/>
<g filter="url(#filter1_d_77_1412)">
<rect x="100.971" y="368.922" width="256.494" height="65.0948" rx="12.5237" transform="rotate(-0.117663 100.971 368.922)" fill="#082EF5"/>
</g>
<rect x="108.992" y="376.999" width="241.432" height="49.504" rx="6.14739" transform="rotate(-0.117662 108.992 376.999)" stroke="#FCFCFD" stroke-width="2.73371"/>
<path d="M151.231 399.974C148.967 399.897 146.768 399.85 144.633 399.831L144.612 411.122L139.204 411.112L139.226 399.821C137.077 399.831 134.885 399.87 132.65 399.938L132.659 395.395L151.239 395.431L151.231 399.974ZM171.543 400.705C171.54 401.96 171.228 403.019 170.606 403.883C169.999 404.747 168.952 405.372 167.466 405.759C167.639 405.99 167.761 406.17 167.833 406.3L171.328 411.174L165.444 411.163C164.812 409.979 163.813 408.304 162.447 406.138L159.267 406.132L159.258 411.151L154.153 411.141C154.274 408.343 154.336 405.726 154.341 403.289C154.346 400.852 154.293 398.235 154.183 395.437L159.288 395.447L159.288 395.468L163.722 395.477C166.635 395.483 168.668 395.955 169.819 396.895C170.971 397.834 171.546 399.104 171.543 400.705ZM159.28 399.622L159.275 402.087L162.195 402.093C163.421 402.095 164.344 402.061 164.964 401.99C165.599 401.905 166.039 401.776 166.285 401.603C166.53 401.431 166.653 401.179 166.654 400.847C166.654 400.53 166.539 400.284 166.309 400.111C166.079 399.937 165.646 399.814 165.012 399.741C164.378 399.667 163.44 399.63 162.2 399.627L159.28 399.622ZM196.012 392.143C196.212 393.038 196.311 393.896 196.31 394.718C196.306 396.506 195.54 397.399 194.012 397.396C193.622 397.395 193.168 397.329 192.649 397.198L192.636 404.099C192.603 406.218 191.871 407.969 190.441 409.351C189.025 410.732 186.637 411.42 183.277 411.413C179.874 411.407 177.546 410.746 176.294 409.431C175.042 408.102 174.433 406.364 174.466 404.215L174.483 395.454L179.847 395.465L179.831 403.879C179.83 404.514 179.872 405.033 179.958 405.437C180.058 405.826 180.36 406.195 180.864 406.542C181.382 406.889 182.211 407.063 183.351 407.066C184.591 407.068 185.5 406.897 186.077 406.552C186.654 406.192 186.994 405.797 187.096 405.364C187.212 404.932 187.271 404.377 187.272 403.699L187.288 395.479L192.22 395.489C192.494 395.489 192.667 395.425 192.739 395.295C192.812 395.151 192.848 394.906 192.849 394.56C192.85 393.983 192.722 393.319 192.463 392.569L196.012 392.143ZM212.173 396.955C213.958 398.328 214.848 400.435 214.843 403.276C214.838 405.886 214.062 407.904 212.517 409.328C210.971 410.753 208.525 411.462 205.18 411.456C201.877 411.449 199.449 410.731 197.894 409.3C196.34 407.855 195.565 405.835 195.57 403.239C195.575 400.687 196.336 398.698 197.853 397.273C199.37 395.834 201.75 395.103 204.995 395.081C206.452 395.084 207.512 394.985 208.175 394.784C208.839 394.583 209.171 394.224 209.172 393.704L209.175 392.298L214.734 392.309L214.731 393.953C214.73 394.588 214.512 395.15 214.079 395.639C213.645 396.129 213.01 396.567 212.173 396.955ZM205.188 407.043C206.789 407.046 207.943 406.745 208.651 406.141C209.359 405.522 209.714 404.564 209.716 403.266C209.719 401.997 209.367 401.052 208.662 400.431C207.957 399.809 206.803 399.497 205.203 399.494C203.617 399.491 202.47 399.799 201.762 400.417C201.054 401.036 200.699 401.98 200.696 403.249C200.694 404.532 201.045 405.485 201.751 406.106C202.456 406.728 203.602 407.04 205.188 407.043ZM202.985 394.341L201.218 390.985L205.219 390.993L205.732 394.347L202.985 394.341ZM235.934 395.616C235.828 398.053 235.772 400.663 235.767 403.446C235.762 406.244 235.807 408.861 235.903 411.299L228.159 411.284L222.948 399.463L223.314 411.274L217.755 411.264C217.876 408.466 217.939 405.849 217.943 403.412C217.948 400.989 217.895 398.379 217.785 395.581L225.745 395.597L230.978 407.742L230.634 395.606L235.934 395.616ZM247.765 402.366L257.002 402.384L256.984 411.339L253.177 411.332L252.73 407.502C252.295 408.872 251.522 409.887 250.41 410.548C249.298 411.209 247.942 411.538 246.342 411.535C244.885 411.532 243.588 411.205 242.45 410.554C241.326 409.903 240.441 408.971 239.795 407.759C239.163 406.546 238.848 405.132 238.851 403.517C238.856 400.936 239.632 398.897 241.177 397.4C242.723 395.903 245.126 395.158 248.385 395.165C250.245 395.168 251.881 395.474 253.293 396.082C254.72 396.691 255.929 397.631 256.922 398.901C256.272 399.232 255.002 399.893 253.111 400.884L252.57 401.186C252.008 400.622 251.353 400.203 250.604 399.928C249.854 399.638 249.061 399.492 248.225 399.49C246.841 399.488 245.809 399.853 245.13 400.588C244.451 401.307 244.11 402.201 244.108 403.268C244.106 404.421 244.464 405.352 245.184 406.06C245.918 406.768 247.035 407.124 248.535 407.127C249.184 407.128 249.811 407.035 250.417 406.849C251.038 406.663 251.557 406.339 251.976 405.879L247.759 405.871L247.765 402.366ZM283.608 395.687C283.502 398.124 283.447 400.741 283.441 403.538C283.436 406.336 283.481 408.953 283.578 411.391L278.494 411.381L278.506 405.497L270.546 405.482L270.534 411.365L265.451 411.356C265.572 408.558 265.635 405.941 265.639 403.504C265.644 401.067 265.591 398.45 265.482 395.652L270.565 395.662L270.553 401.545L278.513 401.56L278.525 395.677L283.608 395.687ZM296.136 411.631C292.834 411.625 290.406 410.906 288.851 409.476C287.296 408.031 286.522 406.01 286.527 403.415C286.531 400.848 287.307 398.845 288.853 397.406C290.413 395.967 292.851 395.25 296.168 395.257C299.499 395.263 301.935 395.989 303.475 397.434C305.03 398.879 305.804 400.885 305.799 403.452C305.794 406.062 305.019 408.079 303.473 409.504C301.928 410.929 299.482 411.638 296.136 411.631ZM296.145 407.219C297.746 407.222 298.9 406.921 299.608 406.317C300.315 405.698 300.67 404.74 300.673 403.442C300.675 402.173 300.324 401.228 299.619 400.606C298.913 399.985 297.76 399.672 296.159 399.669C294.573 399.666 293.426 399.974 292.718 400.593C292.011 401.212 291.655 402.155 291.653 403.424C291.651 404.708 292.002 405.66 292.707 406.282C293.413 406.903 294.559 407.215 296.145 407.219ZM296.128 415.763C295.652 415.762 295.242 415.588 294.896 415.241C294.565 414.894 294.4 414.483 294.401 414.007C294.402 413.531 294.569 413.121 294.901 412.775C295.233 412.444 295.645 412.279 296.135 412.28C296.597 412.281 297 412.448 297.345 412.78C297.691 413.127 297.863 413.538 297.862 414.014C297.861 414.49 297.687 414.9 297.341 415.246C296.994 415.591 296.59 415.764 296.128 415.763ZM318.229 411.674C314.97 411.668 312.57 410.971 311.03 409.583C309.489 408.196 308.722 406.219 308.727 403.652C308.732 401.071 309.507 399.032 311.053 397.535C312.599 396.038 315.001 395.293 318.26 395.299C322.817 395.308 325.864 396.879 327.401 400.011C326.102 400.455 324.58 401.123 322.833 402.014C322.417 401.205 321.754 400.606 320.847 400.215C319.953 399.823 319.038 399.627 318.101 399.625C316.716 399.623 315.684 399.988 315.005 400.722C314.326 401.442 313.986 402.336 313.983 403.403C313.981 404.556 314.34 405.502 315.06 406.238C315.794 406.961 316.911 407.323 318.41 407.326C319.607 407.329 320.559 407.136 321.267 406.748C321.974 406.345 322.494 405.712 322.828 404.847C324.009 405.484 325.522 406.201 327.366 406.998C326.642 408.741 325.435 409.957 323.747 410.646C322.058 411.335 320.219 411.678 318.229 411.674Z" fill="#FCFCFD"/>
<g filter="url(#filter2_d_77_1412)">
<rect x="101.696" y="449.365" width="256.494" height="65.0947" rx="12.5237" fill="#082EF5"/>
</g>
<rect x="109.417" y="457.459" width="241.432" height="49.504" rx="6.14739" stroke="#FCFCFD" stroke-width="2.73371"/>
<path d="M159.244 476.043C159.134 478.48 159.073 481.09 159.062 483.873C159.052 486.67 159.092 489.288 159.183 491.725L151.44 491.695L146.251 479.865L146.594 491.676L141.035 491.655C141.162 488.858 141.229 486.241 141.239 483.804C141.248 481.381 141.201 478.771 141.096 475.973L149.056 476.004L154.265 488.159L153.945 476.022L159.244 476.043ZM175.765 491.789C175.494 490.966 175.131 489.934 174.674 488.692L167.774 488.665L166.68 491.754L161.251 491.733L167.369 476.053L175.329 476.084L181.367 491.811L175.765 491.789ZM173.454 485.313C172.912 483.797 172.356 482.28 171.785 480.764L171.271 479.356C170.761 480.666 170.011 482.646 169.02 485.296L173.454 485.313ZM173.311 472.074L175.137 475.218L172.304 475.207L171.294 473.343L170.27 475.199L167.458 475.188L169.309 472.059L173.311 472.074ZM201.934 476.209C201.824 478.645 201.763 481.255 201.752 484.038C201.742 486.836 201.782 489.453 201.873 491.891L194.13 491.861L188.941 480.03L189.284 491.842L183.725 491.82C183.852 489.023 183.919 486.406 183.929 483.969C183.938 481.546 183.891 478.936 183.786 476.138L191.746 476.169L196.955 488.324L196.635 476.188L201.934 476.209ZM213.753 482.982L222.989 483.017L222.954 491.972L219.147 491.958L218.708 488.127C218.27 489.496 217.495 490.509 216.382 491.168C215.269 491.827 213.912 492.154 212.311 492.147C210.855 492.142 209.558 491.812 208.421 491.159C207.299 490.506 206.416 489.572 205.772 488.358C205.142 487.145 204.83 485.73 204.836 484.115C204.846 481.534 205.626 479.496 207.175 478.003C208.723 476.509 211.127 475.768 214.386 475.781C216.247 475.788 217.882 476.097 219.293 476.708C220.718 477.32 221.926 478.262 222.916 479.534C222.266 479.864 220.994 480.522 219.101 481.51L218.559 481.81C217.999 481.246 217.345 480.825 216.596 480.548C215.847 480.257 215.055 480.11 214.218 480.106C212.834 480.101 211.801 480.465 211.121 481.198C210.44 481.916 210.098 482.809 210.094 483.876C210.089 485.029 210.446 485.961 211.164 486.67C211.897 487.38 213.013 487.737 214.513 487.743C215.162 487.746 215.79 487.654 216.396 487.469C217.017 487.284 217.537 486.962 217.957 486.502L213.739 486.486L213.753 482.982ZM244.127 484.246C247.415 484.258 249.055 485.31 249.047 487.401C249.043 488.382 248.816 489.217 248.366 489.908C247.917 490.584 247.114 491.114 245.959 491.499C244.804 491.87 243.203 492.051 241.155 492.043L231.421 492.005C231.547 489.208 231.615 486.591 231.625 484.154C231.634 481.717 231.587 479.099 231.482 476.301L236.565 476.321L236.565 476.343L241.172 476.361C242.961 476.368 244.366 476.524 245.389 476.831C246.426 477.124 247.152 477.552 247.568 478.116C247.999 478.68 248.212 479.395 248.209 480.26C248.206 481.139 247.892 481.924 247.27 482.614C246.661 483.289 245.614 483.833 244.127 484.246ZM236.55 480.28L236.542 482.291L240.695 482.307C241.589 482.311 242.21 482.234 242.556 482.077C242.917 481.919 243.099 481.632 243.1 481.213C243.102 480.882 242.915 480.65 242.541 480.519C242.181 480.373 241.568 480.299 240.703 480.296L236.55 480.28ZM240.673 488.083C241.423 488.086 241.992 488.059 242.382 488.003C242.786 487.932 243.075 487.818 243.248 487.66C243.422 487.488 243.51 487.257 243.511 486.969C243.512 486.594 243.304 486.326 242.887 486.166C242.483 485.991 241.748 485.902 240.681 485.898L236.528 485.882L236.52 488.067L240.673 488.083ZM273.549 473.09C273.748 473.985 273.845 474.843 273.842 475.665C273.835 477.453 273.067 478.345 271.539 478.339C271.149 478.337 270.695 478.27 270.177 478.139L270.15 485.039C270.113 487.158 269.378 488.908 267.945 490.287C266.526 491.665 264.137 492.348 260.777 492.335C257.374 492.322 255.048 491.657 253.798 490.34C252.549 489.008 251.943 487.268 251.98 485.12L252.014 476.359L257.378 476.38L257.346 484.794C257.343 485.429 257.384 485.948 257.469 486.352C257.569 486.742 257.87 487.111 258.374 487.459C258.891 487.807 259.72 487.983 260.859 487.988C262.099 487.993 263.008 487.823 263.586 487.479C264.165 487.121 264.505 486.726 264.608 486.294C264.725 485.861 264.785 485.306 264.787 484.629L264.819 476.409L269.751 476.428C270.025 476.429 270.198 476.365 270.271 476.236C270.343 476.092 270.38 475.847 270.382 475.501C270.384 474.924 270.257 474.26 270 473.509L273.549 473.09ZM289.701 477.933C291.484 479.31 292.37 481.419 292.359 484.26C292.349 486.87 291.569 488.886 290.021 490.307C288.472 491.729 286.025 492.433 282.68 492.42C279.377 492.407 276.95 491.684 275.398 490.251C273.847 488.802 273.076 486.781 273.086 484.185C273.096 481.633 273.861 479.645 275.38 478.224C276.9 476.788 279.282 476.061 282.527 476.045C283.983 476.051 285.044 475.954 285.708 475.755C286.372 475.555 286.705 475.196 286.707 474.677L286.712 473.271L292.271 473.292L292.265 474.936C292.263 475.571 292.044 476.132 291.61 476.621C291.175 477.11 290.539 477.547 289.701 477.933ZM282.697 488.008C284.297 488.014 285.452 487.715 286.161 487.113C286.87 486.495 287.227 485.538 287.232 484.24C287.237 482.971 286.888 482.025 286.183 481.402C285.479 480.779 284.327 480.465 282.726 480.459C281.14 480.452 279.992 480.758 279.283 481.375C278.574 481.993 278.217 482.936 278.212 484.205C278.207 485.488 278.557 486.441 279.261 487.064C279.965 487.687 281.111 488.001 282.697 488.008ZM282.746 475.354L279.999 475.343L280.531 471.992L284.533 472.008L282.746 475.354ZM304.772 492.506C301.513 492.493 299.115 491.792 297.577 490.401C296.039 489.011 295.276 487.033 295.286 484.466C295.296 481.884 296.075 479.847 297.624 478.353C299.173 476.86 301.576 476.119 304.835 476.132C309.392 476.149 312.436 477.726 313.967 480.861C312.667 481.303 311.143 481.968 309.395 482.855C308.98 482.046 308.319 481.445 307.412 481.052C306.52 480.659 305.605 480.461 304.667 480.457C303.283 480.452 302.25 480.815 301.57 481.548C300.889 482.267 300.547 483.159 300.543 484.227C300.538 485.38 300.895 486.326 301.613 487.064C302.346 487.788 303.462 488.153 304.962 488.159C306.159 488.163 307.111 487.972 307.819 487.586C308.528 487.185 309.049 486.552 309.384 485.688C310.564 486.328 312.076 487.047 313.918 487.847C313.19 489.59 311.982 490.803 310.292 491.489C308.602 492.175 306.762 492.514 304.772 492.506Z" fill="#FCFCFD"/>
<g filter="url(#filter3_d_77_1412)">
<rect x="102.013" y="520.624" width="256.494" height="65.0947" rx="12.5237" transform="rotate(0.0882221 102.013 520.624)" fill="#082EF5"/>
</g>
<rect x="109.721" y="528.73" width="241.432" height="49.504" rx="6.14739" transform="rotate(0.0882226 109.721 528.73)" stroke="#FCFCFD" stroke-width="2.73371"/>
<path d="M163.843 551.941C161.579 551.857 159.38 551.801 157.246 551.775L157.184 563.066L151.776 563.036L151.839 551.745C149.69 551.748 147.498 551.779 145.262 551.839L145.287 547.296L163.868 547.399L163.843 551.941ZM188.352 544.16C188.549 545.055 188.646 545.913 188.641 546.735C188.631 548.523 187.862 549.413 186.333 549.405C185.944 549.403 185.49 549.335 184.972 549.203L184.934 556.103C184.893 558.222 184.155 559.97 182.72 561.347C181.299 562.723 178.909 563.402 175.549 563.384C172.146 563.365 169.82 562.696 168.573 561.377C167.326 560.043 166.723 558.302 166.763 556.154L166.812 547.394L172.176 547.423L172.13 555.837C172.126 556.472 172.167 556.991 172.251 557.395C172.35 557.785 172.65 558.155 173.153 558.504C173.67 558.853 174.499 559.03 175.638 559.036C176.878 559.043 177.787 558.875 178.366 558.532C178.945 558.175 179.286 557.78 179.389 557.348C179.507 556.916 179.568 556.362 179.572 555.684L179.617 547.464L184.549 547.491C184.823 547.493 184.996 547.429 185.069 547.3C185.142 547.156 185.179 546.911 185.181 546.565C185.184 545.988 185.058 545.324 184.803 544.573L188.352 544.16ZM204.496 549.029C206.277 550.409 207.159 552.519 207.144 555.36C207.129 557.97 206.346 559.985 204.796 561.404C203.245 562.823 200.797 563.523 197.451 563.505C194.149 563.487 191.723 562.759 190.174 561.323C188.624 559.873 187.857 557.849 187.871 555.254C187.885 552.701 188.653 550.716 190.175 549.296C191.697 547.863 194.081 547.14 197.325 547.129C198.782 547.137 199.842 547.042 200.507 546.844C201.171 546.646 201.505 546.287 201.508 545.768L201.515 544.362L207.074 544.393L207.065 546.037C207.062 546.671 206.842 547.232 206.407 547.72C205.972 548.208 205.335 548.645 204.496 549.029ZM197.475 559.092C199.076 559.101 200.231 558.805 200.941 558.203C201.651 557.587 202.01 556.63 202.017 555.332C202.024 554.063 201.676 553.116 200.973 552.492C200.27 551.868 199.118 551.552 197.517 551.543C195.931 551.534 194.783 551.838 194.073 552.454C193.363 553.07 193.004 554.013 192.997 555.282C192.99 556.565 193.338 557.519 194.041 558.143C194.745 558.767 195.889 559.083 197.475 559.092ZM228.262 547.776C228.147 550.213 228.082 552.822 228.067 555.606C228.051 558.403 228.087 561.021 228.175 563.458L220.431 563.415L215.262 551.576L215.586 563.389L210.027 563.358C210.158 560.561 210.23 557.944 210.244 555.507C210.257 553.084 210.214 550.474 210.114 547.676L218.074 547.72L223.263 559.884L222.962 547.747L228.262 547.776ZM240.069 554.569L249.305 554.62L249.256 563.575L245.449 563.554L245.016 559.723C244.576 561.09 243.798 562.102 242.684 562.76C241.57 563.417 240.213 563.741 238.612 563.732C237.156 563.724 235.86 563.393 234.724 562.737C233.603 562.082 232.721 561.147 232.079 559.932C231.451 558.717 231.142 557.303 231.151 555.687C231.165 553.106 231.948 551.07 233.499 549.579C235.05 548.088 237.455 547.351 240.714 547.369C242.575 547.379 244.21 547.691 245.62 548.305C247.044 548.918 248.25 549.862 249.238 551.137C248.587 551.465 247.315 552.121 245.42 553.106L244.878 553.406C244.318 552.84 243.664 552.418 242.916 552.14C242.168 551.848 241.376 551.699 240.539 551.694C239.155 551.687 238.122 552.049 237.44 552.78C236.758 553.498 236.414 554.39 236.408 555.457C236.402 556.611 236.757 557.543 237.475 558.253C238.206 558.964 239.322 559.323 240.821 559.332C241.47 559.335 242.098 559.245 242.705 559.061C243.326 558.877 243.847 558.555 244.268 558.096L240.05 558.073L240.069 554.569ZM263.024 559.281C267.207 559.275 270.668 559.223 273.408 559.122C273.217 559.857 273.097 560.563 273.05 561.24C273.003 561.918 272.977 562.739 272.972 563.706L257.723 563.621C257.853 560.825 257.926 558.208 257.939 555.771C257.952 553.334 257.909 550.716 257.809 547.918L263.087 547.947L263.024 559.281ZM289.96 563.799C289.69 562.976 289.328 561.943 288.873 560.7L281.973 560.662L280.875 563.749L275.446 563.719L281.589 548.049L289.549 548.093L295.562 563.83L289.96 563.799ZM287.659 557.319C287.12 555.802 286.566 554.285 285.997 552.767L285.486 551.359C284.974 552.668 284.22 554.647 283.225 557.295L287.659 557.319ZM310.55 552.514C308.834 552.418 307.566 552.36 306.744 552.341L306.703 559.739C307.539 559.729 308.809 559.686 310.511 559.608L310.487 563.913L297.92 563.843L297.943 559.539C299.601 559.635 300.863 559.692 301.728 559.711L301.769 552.314C300.903 552.323 299.641 552.367 297.983 552.444L298.006 548.14L310.574 548.209L310.55 552.514Z" fill="#FCFCFD"/>
<g clip-path="url(#clip3_77_1412)">
<path d="M352.545 676.229V660.543C348.489 661.34 344.52 662.48 340.655 663.963C332.653 667.035 325.465 671.429 319.295 677.026C314.813 681.096 311.03 685.651 307.997 690.624C304.965 685.651 301.182 681.096 296.699 677.026C290.529 671.429 283.345 667.035 275.339 663.963C271.483 662.48 267.51 661.34 263.454 660.543V676.229C271.456 678.357 278.785 682.284 284.846 687.783C289.101 691.644 292.502 696.074 294.962 700.882C286.742 695.709 276.989 692.926 266.769 692.926C265.659 692.926 264.55 692.961 263.454 693.024V708.287C264.545 708.189 265.65 708.135 266.769 708.135C280.604 708.135 292.471 715.936 297.299 726.947H263.454V743.555H352.545V726.947H318.695C323.524 715.936 335.39 708.135 349.226 708.135C350.344 708.135 351.454 708.189 352.54 708.287V693.024C351.44 692.957 350.335 692.926 349.226 692.926C339.005 692.926 329.257 695.709 321.032 700.882C323.492 696.074 326.897 691.644 331.153 687.783C337.214 682.284 344.543 678.357 352.54 676.229H352.545Z" fill="white" stroke="#CCD4FF" stroke-width="2" stroke-miterlimit="10"/>
</g>
<path d="M83.6585 298.506L85.2968 304.657C85.5255 305.513 86.5038 305.919 87.2737 305.476L92.7819 302.286C93.3869 301.936 94.0642 302.613 93.714 303.218L90.5242 308.726C90.0785 309.493 90.4866 310.475 91.3434 310.703L97.4942 312.342C98.1686 312.521 98.1686 313.479 97.4942 313.658L91.3434 315.297C90.4866 315.525 90.0814 316.504 90.5242 317.274L93.714 322.782C94.0642 323.387 93.3869 324.064 92.7819 323.714L87.2737 320.524C86.5067 320.078 85.5255 320.487 85.2968 321.343L83.6585 327.494C83.479 328.169 82.521 328.169 82.3415 327.494L80.7032 321.343C80.4746 320.487 79.4962 320.081 78.7263 320.524L73.2181 323.714C72.6131 324.064 71.9358 323.387 72.286 322.782L75.4758 317.274C75.9215 316.507 75.5134 315.525 74.6566 315.297L68.5058 313.658C67.8314 313.479 67.8314 312.521 68.5058 312.342L74.6566 310.703C75.5134 310.475 75.9186 309.496 75.4758 308.726L72.286 303.218C71.9358 302.613 72.6131 301.936 73.2181 302.286L78.7263 305.476C79.4933 305.922 80.4746 305.513 80.7032 304.657L82.3415 298.506C82.521 297.831 83.479 297.831 83.6585 298.506Z" fill="#FFE41B" stroke="#CCD4FF" stroke-width="2" stroke-miterlimit="10"/>
<path d="M189 743C181.678 746.804 175.969 752.811 173 760C170.031 752.811 164.322 746.808 157 743C164.322 739.196 170.031 733.189 173 726C175.969 733.189 181.678 739.196 189 743Z" fill="#FCFCFD" stroke="#CCD4FF" stroke-width="2" stroke-miterlimit="10"/>
</g>
<path d="M375 767H0V771H375V767Z" fill="#CCD4FF" mask="url(#path-1-inside-1_77_1412)"/>
<defs>
<filter id="filter0_d_77_1412" x="158.131" y="242" width="148.007" height="149.33" filterUnits="userSpaceOnUse" color-interpolation-filters="sRGB">
<feFlood flood-opacity="0" result="BackgroundImageFix"/>
<feColorMatrix in="SourceAlpha" type="matrix" values="0 0 0 0 0 0 0 0 0 0 0 0 0 0 0 0 0 0 127 0" result="hardAlpha"/>
<feOffset dx="1.32361" dy="2.64723"/>
<feComposite in2="hardAlpha" operator="out"/>
<feColorMatrix type="matrix" values="0 0 0 0 0.0823529 0 0 0 0 0.0823529 0 0 0 0 0.0823529 0 0 0 1 0"/>
<feBlend mode="normal" in2="BackgroundImageFix" result="effect1_dropShadow_77_1412"/>
<feBlend mode="normal" in="SourceGraphic" in2="effect1_dropShadow_77_1412" result="shape"/>
</filter>
<filter id="filter1_d_77_1412" x="100.997" y="368.421" width="257.943" height="68.3038" filterUnits="userSpaceOnUse" color-interpolation-filters="sRGB">
<feFlood flood-opacity="0" result="BackgroundImageFix"/>
<feColorMatrix in="SourceAlpha" type="matrix" values="0 0 0 0 0 0 0 0 0 0 0 0 0 0 0 0 0 0 127 0" result="hardAlpha"/>
<feOffset dx="1.36685" dy="2.73371"/>
<feComposite in2="hardAlpha" operator="out"/>
<feColorMatrix type="matrix" values="0 0 0 0 0.0823529 0 0 0 0 0.0823529 0 0 0 0 0.0823529 0 0 0 1 0"/>
<feBlend mode="normal" in2="BackgroundImageFix" result="effect1_dropShadow_77_1412"/>
<feBlend mode="normal" in="SourceGraphic" in2="effect1_dropShadow_77_1412" result="shape"/>
</filter>
<filter id="filter2_d_77_1412" x="101.697" y="449.339" width="257.865" height="67.8531" filterUnits="userSpaceOnUse" color-interpolation-filters="sRGB">
<feFlood flood-opacity="0" result="BackgroundImageFix"/>
<feColorMatrix in="SourceAlpha" type="matrix" values="0 0 0 0 0 0 0 0 0 0 0 0 0 0 0 0 0 0 127 0" result="hardAlpha"/>
<feOffset dx="1.36685" dy="2.73371"/>
<feComposite in2="hardAlpha" operator="out"/>
<feColorMatrix type="matrix" values="0 0 0 0 0.0823529 0 0 0 0 0.0823529 0 0 0 0 0.0823529 0 0 0 1 0"/>
<feBlend mode="normal" in2="BackgroundImageFix" result="effect1_dropShadow_77_1412"/>
<feBlend mode="normal" in="SourceGraphic" in2="effect1_dropShadow_77_1412" result="shape"/>
</filter>
<filter id="filter3_d_77_1412" x="101.932" y="520.643" width="257.923" height="68.1848" filterUnits="userSpaceOnUse" color-interpolation-filters="sRGB">
<feFlood flood-opacity="0" result="BackgroundImageFix"/>
<feColorMatrix in="SourceAlpha" type="matrix" values="0 0 0 0 0 0 0 0 0 0 0 0 0 0 0 0 0 0 127 0" result="hardAlpha"/>
<feOffset dx="1.36685" dy="2.73371"/>
<feComposite in2="hardAlpha" operator="out"/>
<feColorMatrix type="matrix" values="0 0 0 0 0.0823529 0 0 0 0 0.0823529 0 0 0 0 0.0823529 0 0 0 1 0"/>
<feBlend mode="normal" in2="BackgroundImageFix" result="effect1_dropShadow_77_1412"/>
<feBlend mode="normal" in="SourceGraphic" in2="effect1_dropShadow_77_1412" result="shape"/>
</filter>
<clipPath id="clip0_77_1412">
<path d="M0 0H375V769H0V0Z" fill="white"/>
</clipPath>
<clipPath id="clip1_77_1412">
<rect width="148" height="148" fill="white" transform="translate(-78 327)"/>
</clipPath>
<clipPath id="clip2_77_1412">
<rect width="148" height="142" fill="white" transform="translate(10 589)"/>
</clipPath>
<clipPath id="clip3_77_1412">
<rect width="90" height="84" fill="white" transform="translate(263 660)"/>
</clipPath>
</defs>
</svg>
