<svg width="192" height="170" viewBox="0 0 192 170" fill="none" xmlns="http://www.w3.org/2000/svg">
<mask id="mask0_1_304" style="mask-type:alpha" maskUnits="userSpaceOnUse" x="0" y="0" width="192" height="170">
<rect width="192" height="170" rx="20" fill="#D9D9D9"/>
</mask>
<g mask="url(#mask0_1_304)">
<path d="M207 11.7455V-20C199.625 -18.387 192.408 -16.0802 185.381 -13.0796C170.83 -6.86205 157.759 2.03175 146.54 13.3585C138.389 21.5945 131.51 30.8127 125.996 40.8779C120.482 30.8127 113.603 21.5945 105.451 13.3585C94.2325 2.03175 81.1699 -6.86205 66.611 -13.0796C59.6003 -16.0802 52.3745 -18.387 45 -20V11.7455C59.5507 16.0528 72.8777 24.0004 83.8982 35.1289C91.6365 42.9414 97.8205 51.9073 102.293 61.6391C87.3457 51.1684 69.6121 45.5366 51.0269 45.5366C49.0097 45.5366 46.9924 45.6087 45 45.7348V76.6243C46.9842 76.4261 48.9932 76.318 51.0269 76.318C76.1847 76.318 97.7626 92.1051 106.543 114.389H45V148H207V114.389H145.449C154.229 92.1051 175.807 76.318 200.965 76.318C202.999 76.318 205.016 76.4261 206.992 76.6243V45.7348C204.991 45.5997 202.982 45.5366 200.965 45.5366C182.38 45.5366 164.654 51.1684 149.699 61.6391C154.171 51.9073 160.364 42.9414 168.102 35.1289C179.122 24.0004 192.449 16.0528 206.992 11.7455H207Z" fill="#F6E3A5"/>
</g>
</svg>
