<svg width="32" height="33" viewBox="0 0 32 33" fill="none" xmlns="http://www.w3.org/2000/svg">
<g clip-path="url(#clip0_1_288)">
<path d="M23.4232 25.8541L23.4234 25.8539C26.3104 23.4915 29.748 19.1695 29.748 12.1128V5.11279C29.748 4.25084 29.4056 3.42419 28.7961 2.8147C28.1867 2.2052 27.36 1.86279 26.498 1.86279H6.49805C5.63609 1.86279 4.80944 2.2052 4.19995 2.8147C3.59046 3.42419 3.24805 4.25084 3.24805 5.11279V12.1128C3.24805 19.1694 6.6856 23.4909 9.56384 25.8528L9.56605 25.8546C12.6057 28.3374 15.6222 29.209 15.9084 29.2852C16.2921 29.3887 16.6964 29.3887 17.0801 29.2853C17.3654 29.2093 20.3864 28.3378 23.4232 25.8541Z" stroke="#082EF5" stroke-width="2.5"/>
</g>
<defs>
<clipPath id="clip0_1_288">
<rect width="31" height="32" fill="white" transform="translate(0.5 0.0563965)"/>
</clipPath>
</defs>
</svg>
