<svg width="339" height="201" viewBox="0 0 339 201" fill="none" xmlns="http://www.w3.org/2000/svg">
<g clip-path="url(#clip0_84_2340)">
<line x1="48" y1="239" x2="48" y2="2.0565e-08" stroke="#A8B6FF" stroke-width="2"/>
<line x1="174" y1="39" x2="174" y2="3.35579e-09" stroke="#A8B6FF" stroke-width="2"/>
<path d="M302 200L302 0" stroke="#A8B6FF" stroke-width="2"/>
<line x1="-15" y1="38" x2="1216" y2="38" stroke="#A8B6FF" stroke-width="2"/>
<line x1="-15" y1="156" x2="1216" y2="156" stroke="#A8B6FF" stroke-width="2"/>
<line x1="174" y1="239" x2="174" y2="157" stroke="#A8B6FF" stroke-width="2"/>
<path d="M69 38C59.3902 43.3704 51.8963 51.8507 48 62C44.1037 51.8507 36.6098 43.3763 27 38C36.6098 32.6296 44.1037 24.1493 48 14C51.8963 24.1493 59.3902 32.6296 69 38Z" fill="#FFE41B" stroke="#A8B6FF" stroke-width="2" stroke-miterlimit="10"/>
</g>
<rect x="1" y="1" width="337" height="199" rx="19" stroke="#082EF5" stroke-width="2"/>
<path d="M105.072 76.576C104.96 79.28 104.904 82.184 104.904 85.288C104.904 88.392 104.96 91.296 105.072 94H99.432V87.472H90.6V94H84.96C85.088 90.896 85.152 87.992 85.152 85.288C85.152 82.584 85.088 79.68 84.96 76.576H90.6V83.104H99.432V76.576H105.072ZM115.199 94.24C112.463 94.24 110.447 93.616 109.151 92.368C107.871 91.104 107.231 89.448 107.231 87.4C107.231 85.4 107.871 83.776 109.151 82.528C110.447 81.28 112.463 80.656 115.199 80.656C117.039 80.656 118.575 80.96 119.807 81.568C121.055 82.16 121.975 82.968 122.567 83.992C123.159 85 123.455 86.136 123.455 87.4C123.455 89.464 122.767 91.12 121.391 92.368C120.031 93.616 117.967 94.24 115.199 94.24ZM115.295 90.16C116.335 90.16 117.111 89.912 117.623 89.416C118.135 88.92 118.391 88.256 118.391 87.424C118.391 86.64 118.135 86 117.623 85.504C117.111 84.992 116.335 84.736 115.295 84.736C114.255 84.736 113.495 84.984 113.015 85.48C112.535 85.976 112.295 86.624 112.295 87.424C112.295 88.256 112.535 88.92 113.015 89.416C113.495 89.912 114.255 90.16 115.295 90.16ZM141.007 90.016C141.007 90.56 141.071 90.944 141.199 91.168C141.327 91.392 141.583 91.552 141.967 91.648L141.871 93.904C141.359 93.984 140.911 94.04 140.527 94.072C140.159 94.104 139.663 94.12 139.039 94.12C137.663 94.12 136.751 93.816 136.303 93.208C135.855 92.584 135.631 91.792 135.631 90.832V90.232C135.167 91.544 134.487 92.52 133.591 93.16C132.711 93.8 131.583 94.12 130.207 94.12C128.607 94.12 127.399 93.8 126.583 93.16C125.783 92.52 125.383 91.568 125.383 90.304C125.383 89.264 125.727 88.448 126.415 87.856C127.103 87.264 128.167 86.856 129.607 86.632C128.391 85.768 127.175 85.016 125.959 84.376C126.919 83.16 128.015 82.24 129.247 81.616C130.479 80.976 131.975 80.656 133.735 80.656C136.199 80.656 138.023 81.192 139.207 82.264C140.407 83.32 141.007 84.952 141.007 87.16V90.016ZM134.239 84.88C133.423 84.88 132.703 85.016 132.079 85.288C131.455 85.56 130.895 85.968 130.399 86.512C131.359 86.4 132.559 86.344 133.999 86.344C134.591 86.344 135.007 86.272 135.247 86.128C135.487 85.984 135.607 85.8 135.607 85.576C135.607 85.384 135.487 85.224 135.247 85.096C135.007 84.952 134.671 84.88 134.239 84.88ZM131.719 90.208C132.615 90.208 133.423 90.04 134.143 89.704C134.863 89.352 135.359 88.896 135.631 88.336V87.712C135.247 87.904 134.823 88.056 134.359 88.168C133.895 88.264 133.335 88.36 132.679 88.456L131.815 88.6C130.919 88.776 130.471 89.08 130.471 89.512C130.471 89.976 130.887 90.208 131.719 90.208ZM133.567 98.656C133.039 98.656 132.583 98.464 132.199 98.08C131.831 97.696 131.647 97.24 131.647 96.712C131.647 96.184 131.831 95.728 132.199 95.344C132.567 94.976 133.023 94.792 133.567 94.792C134.079 94.792 134.527 94.976 134.911 95.344C135.295 95.728 135.487 96.184 135.487 96.712C135.487 97.24 135.295 97.696 134.911 98.08C134.527 98.464 134.079 98.656 133.567 98.656ZM154.764 85.192C153.292 85.096 151.948 85.024 150.732 84.976L150.708 87.52C150.708 88.384 150.892 89.064 151.26 89.56C151.644 90.04 152.316 90.28 153.276 90.28C153.644 90.28 153.996 90.248 154.332 90.184C154.268 90.776 154.236 91.376 154.236 91.984C154.236 92.272 154.252 92.928 154.284 93.952C153.58 94.08 152.988 94.16 152.508 94.192C152.028 94.224 151.404 94.24 150.636 94.24C148.764 94.24 147.436 93.792 146.652 92.896C145.884 91.984 145.5 90.72 145.5 89.104L145.524 85.048C144.772 85.08 143.988 85.128 143.172 85.192V80.944C144.004 80.944 144.708 80.68 145.284 80.152C145.86 79.624 146.204 78.992 146.316 78.256H152.844C152.028 79.376 151.124 80.272 150.132 80.944H154.764V85.192ZM179.386 80.512H177.538C177.522 81.424 177.514 82.8 177.514 84.64C177.514 87.872 177.562 90.992 177.658 94H172.234L172.306 91.12C171.842 92.192 171.17 92.984 170.29 93.496C169.41 93.992 168.37 94.24 167.17 94.24C166.13 94.24 165.194 93.944 164.362 93.352C163.53 92.76 162.882 91.96 162.418 90.952C161.954 89.928 161.722 88.808 161.722 87.592C161.722 86.392 161.954 85.264 162.418 84.208C162.882 83.136 163.53 82.28 164.362 81.64C165.21 80.984 166.17 80.656 167.242 80.656C168.49 80.656 169.554 80.92 170.434 81.448C171.33 81.96 171.994 82.76 172.426 83.848C172.426 82.776 172.402 81.664 172.354 80.512H170.17V76.768H172.258C172.242 76.432 172.234 75.952 172.234 75.328H177.658L177.61 76.768H179.386V80.512ZM169.69 90.208C170.474 90.208 171.114 89.992 171.61 89.56C172.106 89.112 172.354 88.408 172.354 87.448C172.354 86.6 172.106 85.976 171.61 85.576C171.114 85.176 170.49 84.976 169.738 84.976C169.018 84.976 168.41 85.208 167.914 85.672C167.434 86.12 167.194 86.712 167.194 87.448C167.194 88.264 167.418 88.928 167.866 89.44C168.314 89.952 168.922 90.208 169.69 90.208ZM187.795 94.24C185.059 94.24 183.043 93.616 181.747 92.368C180.467 91.104 179.827 89.448 179.827 87.4C179.827 85.4 180.467 83.776 181.747 82.528C183.043 81.28 185.059 80.656 187.795 80.656C189.635 80.656 191.171 80.96 192.403 81.568C193.651 82.16 194.571 82.968 195.163 83.992C195.755 85 196.051 86.136 196.051 87.4C196.051 89.464 195.363 91.12 193.987 92.368C192.627 93.616 190.563 94.24 187.795 94.24ZM187.891 90.16C188.931 90.16 189.707 89.912 190.219 89.416C190.731 88.92 190.987 88.256 190.987 87.424C190.987 86.64 190.731 86 190.219 85.504C189.707 84.992 188.931 84.736 187.891 84.736C186.851 84.736 186.091 84.984 185.611 85.48C185.131 85.976 184.891 86.624 184.891 87.424C184.891 88.256 185.131 88.92 185.611 89.416C186.091 89.912 186.851 90.16 187.891 90.16ZM190.003 76.216L192.043 79.696H188.899L187.771 77.632L186.643 79.696H183.523L185.563 76.216H190.003ZM187.795 98.824C187.267 98.824 186.811 98.632 186.427 98.248C186.059 97.864 185.875 97.408 185.875 96.88C185.875 96.352 186.059 95.896 186.427 95.512C186.795 95.144 187.251 94.96 187.795 94.96C188.307 94.96 188.755 95.144 189.139 95.512C189.523 95.896 189.715 96.352 189.715 96.88C189.715 97.408 189.523 97.864 189.139 98.248C188.755 98.632 188.307 98.824 187.795 98.824ZM207.578 94C207.674 91.648 207.722 89.48 207.722 87.496C207.722 86.792 207.546 86.232 207.194 85.816C206.858 85.4 206.426 85.192 205.898 85.192C205.37 85.192 204.922 85.432 204.554 85.912C204.186 86.376 203.97 87.016 203.906 87.832C203.874 89.048 203.858 89.912 203.858 90.424C203.858 91.512 203.89 92.704 203.954 94H198.218C198.346 91.696 198.41 89.52 198.41 87.472C198.41 85.424 198.346 83.232 198.218 80.896C199.274 80.944 200.082 80.968 200.642 80.968C201.234 80.968 202.042 80.944 203.066 80.896L203.762 84.424C204.13 83.144 204.706 82.2 205.49 81.592C206.274 80.968 207.186 80.656 208.226 80.656C209.186 80.656 210.018 80.872 210.722 81.304C211.426 81.72 211.954 82.288 212.306 83.008C212.674 83.728 212.858 84.536 212.858 85.432V88.888C212.858 91.016 212.898 92.72 212.978 94H207.578ZM226.714 80.896H231.322C231.242 83.52 231.202 87.248 231.202 92.08C231.202 93.984 230.818 95.544 230.05 96.76C229.298 97.976 228.298 98.856 227.05 99.4C225.802 99.96 224.41 100.24 222.874 100.24C221.354 100.24 219.994 100.016 218.794 99.568C217.594 99.136 216.682 98.552 216.058 97.816L217.138 94.144C218.002 94.64 218.818 94.992 219.586 95.2C220.354 95.424 221.154 95.536 221.986 95.536C224.706 95.536 226.066 94.384 226.066 92.08C226.066 91.744 226.074 91.504 226.09 91.36C226.09 91.264 226.09 91.136 226.09 90.976C226.106 90.816 226.106 90.608 226.09 90.352C225.274 92.624 223.546 93.76 220.906 93.76C219.834 93.76 218.874 93.472 218.026 92.896C217.194 92.32 216.546 91.544 216.082 90.568C215.618 89.576 215.386 88.488 215.386 87.304C215.386 86.088 215.618 84.976 216.082 83.968C216.546 82.944 217.194 82.136 218.026 81.544C218.858 80.952 219.794 80.656 220.834 80.656C223.538 80.656 225.298 81.608 226.114 83.512L226.714 80.896ZM223.402 89.92C223.77 89.92 224.154 89.84 224.554 89.68C224.954 89.504 225.298 89.232 225.586 88.864C225.874 88.48 226.018 88.008 226.018 87.448C226.018 86.456 225.794 85.752 225.346 85.336C224.898 84.904 224.234 84.688 223.354 84.688C222.586 84.688 221.978 84.944 221.53 85.456C221.082 85.968 220.858 86.632 220.858 87.448C220.858 88.184 221.098 88.784 221.578 89.248C222.074 89.696 222.682 89.92 223.402 89.92ZM102.384 114.512H100.536C100.52 115.424 100.512 116.8 100.512 118.64C100.512 121.872 100.56 124.992 100.656 128H95.232L95.304 125.12C94.84 126.192 94.168 126.984 93.288 127.496C92.408 127.992 91.368 128.24 90.168 128.24C89.128 128.24 88.192 127.944 87.36 127.352C86.528 126.76 85.88 125.96 85.416 124.952C84.952 123.928 84.72 122.808 84.72 121.592C84.72 120.392 84.952 119.264 85.416 118.208C85.88 117.136 86.528 116.28 87.36 115.64C88.208 114.984 89.168 114.656 90.24 114.656C91.488 114.656 92.552 114.92 93.432 115.448C94.328 115.96 94.992 116.76 95.424 117.848C95.424 116.776 95.4 115.664 95.352 114.512H93.168V110.768H95.256C95.24 110.432 95.232 109.952 95.232 109.328H100.656L100.608 110.768H102.384V114.512ZM92.688 124.208C93.472 124.208 94.112 123.992 94.608 123.56C95.104 123.112 95.352 122.408 95.352 121.448C95.352 120.6 95.104 119.976 94.608 119.576C94.112 119.176 93.488 118.976 92.736 118.976C92.016 118.976 91.408 119.208 90.912 119.672C90.432 120.12 90.192 120.712 90.192 121.448C90.192 122.264 90.416 122.928 90.864 123.44C91.312 123.952 91.92 124.208 92.688 124.208ZM118.449 124.016C118.449 124.56 118.513 124.944 118.641 125.168C118.769 125.392 119.025 125.552 119.409 125.648L119.313 127.904C118.801 127.984 118.353 128.04 117.969 128.072C117.601 128.104 117.105 128.12 116.481 128.12C115.105 128.12 114.193 127.816 113.745 127.208C113.297 126.584 113.073 125.792 113.073 124.832V124.232C112.609 125.544 111.929 126.52 111.033 127.16C110.153 127.8 109.025 128.12 107.649 128.12C106.049 128.12 104.841 127.8 104.025 127.16C103.225 126.52 102.825 125.568 102.825 124.304C102.825 123.264 103.169 122.448 103.857 121.856C104.545 121.264 105.609 120.856 107.049 120.632C105.833 119.768 104.617 119.016 103.401 118.376C104.361 117.16 105.457 116.24 106.689 115.616C107.921 114.976 109.417 114.656 111.177 114.656C113.641 114.656 115.465 115.192 116.649 116.264C117.849 117.32 118.449 118.952 118.449 121.16V124.016ZM111.681 118.88C110.865 118.88 110.145 119.016 109.521 119.288C108.897 119.56 108.337 119.968 107.841 120.512C108.801 120.4 110.001 120.344 111.441 120.344C112.033 120.344 112.449 120.272 112.689 120.128C112.929 119.984 113.049 119.8 113.049 119.576C113.049 119.384 112.929 119.224 112.689 119.096C112.449 118.952 112.113 118.88 111.681 118.88ZM109.161 124.208C110.057 124.208 110.865 124.04 111.585 123.704C112.305 123.352 112.801 122.896 113.073 122.336V121.712C112.689 121.904 112.265 122.056 111.801 122.168C111.337 122.264 110.777 122.36 110.121 122.456L109.257 122.6C108.361 122.776 107.913 123.08 107.913 123.512C107.913 123.976 108.329 124.208 109.161 124.208ZM130.694 128C130.79 125.648 130.838 123.48 130.838 121.496C130.838 120.792 130.662 120.232 130.31 119.816C129.974 119.4 129.542 119.192 129.014 119.192C128.486 119.192 128.038 119.432 127.67 119.912C127.302 120.376 127.086 121.016 127.022 121.832C126.99 123.048 126.974 123.912 126.974 124.424C126.974 125.512 127.006 126.704 127.07 128H121.334C121.462 125.696 121.526 123.52 121.526 121.472C121.526 119.424 121.462 117.232 121.334 114.896C122.39 114.944 123.198 114.968 123.758 114.968C124.35 114.968 125.158 114.944 126.182 114.896L126.878 118.424C127.246 117.144 127.822 116.2 128.606 115.592C129.39 114.968 130.302 114.656 131.342 114.656C132.302 114.656 133.134 114.872 133.838 115.304C134.542 115.72 135.07 116.288 135.422 117.008C135.79 117.728 135.974 118.536 135.974 119.432V122.888C135.974 125.016 136.014 126.72 136.094 128H130.694ZM149.83 114.896H154.438C154.358 117.52 154.318 121.248 154.318 126.08C154.318 127.984 153.934 129.544 153.166 130.76C152.414 131.976 151.414 132.856 150.166 133.4C148.918 133.96 147.526 134.24 145.99 134.24C144.47 134.24 143.11 134.016 141.91 133.568C140.71 133.136 139.798 132.552 139.174 131.816L140.254 128.144C141.118 128.64 141.934 128.992 142.702 129.2C143.47 129.424 144.27 129.536 145.102 129.536C147.822 129.536 149.182 128.384 149.182 126.08C149.182 125.744 149.19 125.504 149.206 125.36C149.206 125.264 149.206 125.136 149.206 124.976C149.222 124.816 149.222 124.608 149.206 124.352C148.39 126.624 146.662 127.76 144.022 127.76C142.95 127.76 141.99 127.472 141.142 126.896C140.31 126.32 139.662 125.544 139.198 124.568C138.734 123.576 138.502 122.488 138.502 121.304C138.502 120.088 138.734 118.976 139.198 117.968C139.662 116.944 140.31 116.136 141.142 115.544C141.974 114.952 142.91 114.656 143.95 114.656C146.654 114.656 148.414 115.608 149.23 117.512L149.83 114.896ZM146.518 123.92C146.886 123.92 147.27 123.84 147.67 123.68C148.07 123.504 148.414 123.232 148.702 122.864C148.99 122.48 149.134 122.008 149.134 121.448C149.134 120.456 148.91 119.752 148.462 119.336C148.014 118.904 147.35 118.688 146.47 118.688C145.702 118.688 145.094 118.944 144.646 119.456C144.198 119.968 143.974 120.632 143.974 121.448C143.974 122.184 144.214 122.784 144.694 123.248C145.19 123.696 145.798 123.92 146.518 123.92ZM177.822 109.328C177.726 112.304 177.678 115.416 177.678 118.664C177.678 121.88 177.726 124.992 177.822 128H172.398L172.47 125.12C172.006 126.192 171.334 126.984 170.454 127.496C169.574 127.992 168.534 128.24 167.334 128.24C166.294 128.24 165.358 127.944 164.526 127.352C163.694 126.76 163.046 125.96 162.582 124.952C162.118 123.928 161.886 122.808 161.886 121.592C161.886 120.392 162.118 119.264 162.582 118.208C163.046 117.136 163.694 116.28 164.526 115.64C165.374 114.984 166.334 114.656 167.406 114.656C168.654 114.656 169.718 114.92 170.598 115.448C171.494 115.96 172.158 116.76 172.59 117.848C172.59 116.936 172.558 115.472 172.494 113.456C172.43 111.504 172.398 110.128 172.398 109.328H177.822ZM169.854 124.208C170.638 124.208 171.278 123.992 171.774 123.56C172.27 123.112 172.518 122.408 172.518 121.448C172.518 120.6 172.27 119.976 171.774 119.576C171.278 119.176 170.654 118.976 169.902 118.976C169.182 118.976 168.574 119.208 168.078 119.672C167.598 120.12 167.358 120.712 167.358 121.448C167.358 122.264 167.582 122.928 168.03 123.44C168.478 123.952 169.086 124.208 169.854 124.208ZM183.447 113.48C182.439 113.48 181.687 113.232 181.191 112.736C180.711 112.24 180.471 111.592 180.471 110.792C180.471 110.008 180.711 109.36 181.191 108.848C181.687 108.336 182.439 108.08 183.447 108.08C184.407 108.08 185.143 108.344 185.655 108.872C186.167 109.384 186.423 110.024 186.423 110.792C186.423 111.592 186.175 112.24 185.679 112.736C185.183 113.232 184.439 113.48 183.447 113.48ZM180.663 128C180.775 125.424 180.831 123.296 180.831 121.616C180.831 119.616 180.767 117.376 180.639 114.896H186.399C186.271 117.28 186.207 119.52 186.207 121.616C186.207 123.376 186.263 125.504 186.375 128H180.663ZM201.75 122H193.926C194.054 122.704 194.366 123.28 194.862 123.728C195.374 124.16 196.094 124.376 197.022 124.376C197.694 124.376 198.326 124.248 198.918 123.992C199.51 123.72 199.982 123.344 200.334 122.864C201.406 123.392 202.83 123.96 204.606 124.568C204.11 125.688 203.206 126.584 201.894 127.256C200.598 127.912 198.902 128.24 196.806 128.24C194.086 128.24 192.07 127.616 190.758 126.368C189.462 125.104 188.814 123.448 188.814 121.4C188.814 119.4 189.462 117.776 190.758 116.528C192.054 115.28 194.07 114.656 196.806 114.656C198.438 114.656 199.854 114.928 201.054 115.472C202.254 116.016 203.174 116.776 203.814 117.752C204.454 118.712 204.774 119.816 204.774 121.064C204.774 121.48 204.758 121.792 204.726 122H201.75ZM197.142 118.28C196.342 118.28 195.686 118.432 195.174 118.736C194.662 119.04 194.302 119.456 194.094 119.984H199.758C199.566 119.472 199.254 119.064 198.822 118.76C198.39 118.44 197.83 118.28 197.142 118.28ZM199.014 110.216L201.054 113.696H197.91L196.782 111.632L195.654 113.696H192.534L194.574 110.216H199.014ZM201.03 106.736C201.03 107.584 200.798 108.28 200.334 108.824C199.87 109.352 199.206 109.616 198.342 109.616C197.686 109.616 197.062 109.384 196.47 108.92C196.326 108.792 196.174 108.632 196.014 108.44C195.886 108.28 195.774 108.168 195.678 108.104C195.582 108.024 195.478 107.984 195.366 107.984C195.222 107.984 195.11 108.048 195.03 108.176C194.95 108.288 194.926 108.432 194.958 108.608H192.582C192.582 107.856 192.822 107.192 193.302 106.616C193.782 106.024 194.438 105.728 195.27 105.728C196.006 105.728 196.67 105.984 197.262 106.496L197.622 106.88C197.862 107.184 198.062 107.336 198.222 107.336C198.382 107.336 198.494 107.296 198.558 107.216C198.622 107.12 198.654 106.96 198.654 106.736H201.03ZM216.285 128C216.381 125.648 216.429 123.48 216.429 121.496C216.429 120.792 216.253 120.232 215.901 119.816C215.565 119.4 215.133 119.192 214.605 119.192C214.077 119.192 213.629 119.432 213.261 119.912C212.893 120.376 212.677 121.016 212.613 121.832C212.581 123.048 212.565 123.912 212.565 124.424C212.565 125.512 212.597 126.704 212.661 128H206.925C207.053 125.696 207.117 123.52 207.117 121.472C207.117 119.424 207.053 117.232 206.925 114.896C207.981 114.944 208.789 114.968 209.349 114.968C209.941 114.968 210.749 114.944 211.773 114.896L212.469 118.424C212.837 117.144 213.413 116.2 214.197 115.592C214.981 114.968 215.893 114.656 216.933 114.656C217.893 114.656 218.725 114.872 219.429 115.304C220.133 115.72 220.661 116.288 221.013 117.008C221.381 117.728 221.565 118.536 221.565 119.432V122.888C221.565 125.016 221.605 126.72 221.685 128H216.285ZM234.945 118.448C235.617 116.032 237.289 114.824 239.961 114.824C240.425 114.824 240.873 114.856 241.305 114.92L240.537 120.296C239.385 119.864 238.441 119.648 237.705 119.648C236.793 119.648 236.121 119.92 235.689 120.464C235.257 121.008 235.041 121.736 235.041 122.648V122.624L235.017 124.208C235.017 125.344 235.049 126.608 235.113 128H229.377C229.505 125.696 229.569 123.52 229.569 121.472C229.569 119.424 229.505 117.232 229.377 114.896C230.433 114.944 231.241 114.968 231.801 114.968C232.393 114.968 233.201 114.944 234.225 114.896L234.945 118.448ZM257.663 124.016C257.663 124.56 257.727 124.944 257.855 125.168C257.983 125.392 258.239 125.552 258.623 125.648L258.527 127.904C258.015 127.984 257.567 128.04 257.183 128.072C256.815 128.104 256.319 128.12 255.695 128.12C254.319 128.12 253.407 127.816 252.959 127.208C252.511 126.584 252.287 125.792 252.287 124.832V124.232C251.823 125.544 251.143 126.52 250.247 127.16C249.367 127.8 248.239 128.12 246.863 128.12C245.263 128.12 244.055 127.8 243.239 127.16C242.439 126.52 242.039 125.568 242.039 124.304C242.039 123.264 242.383 122.448 243.071 121.856C243.759 121.264 244.823 120.856 246.263 120.632C245.047 119.768 243.831 119.016 242.615 118.376C243.575 117.16 244.671 116.24 245.903 115.616C247.135 114.976 248.631 114.656 250.391 114.656C252.855 114.656 254.679 115.192 255.863 116.264C257.063 117.32 257.663 118.952 257.663 121.16V124.016ZM250.895 118.88C250.079 118.88 249.359 119.016 248.735 119.288C248.111 119.56 247.551 119.968 247.055 120.512C248.015 120.4 249.215 120.344 250.655 120.344C251.247 120.344 251.663 120.272 251.903 120.128C252.143 119.984 252.263 119.8 252.263 119.576C252.263 119.384 252.143 119.224 251.903 119.096C251.663 118.952 251.327 118.88 250.895 118.88ZM248.375 124.208C249.271 124.208 250.079 124.04 250.799 123.704C251.519 123.352 252.015 122.896 252.287 122.336V121.712C251.903 121.904 251.479 122.056 251.015 122.168C250.551 122.264 249.991 122.36 249.335 122.456L248.471 122.6C247.575 122.776 247.127 123.08 247.127 123.512C247.127 123.976 247.543 124.208 248.375 124.208Z" fill="#082EF5"/>
<defs>
<clipPath id="clip0_84_2340">
<rect width="339" height="201" rx="20" fill="white"/>
</clipPath>
</defs>
</svg>
