<svg width="278" height="262" viewBox="0 0 278 262" fill="none" xmlns="http://www.w3.org/2000/svg">
<mask id="mask0_1_331" style="mask-type:alpha" maskUnits="userSpaceOnUse" x="0" y="0" width="278" height="262">
<rect width="278" height="262" rx="20" fill="#D9D9D9"/>
</mask>
<g mask="url(#mask0_1_331)">
<path d="M338 91.0049C338 67.405 318.006 48.2699 293.347 48.2699H282.797L290.251 41.1359C307.692 24.4443 307.692 -2.60981 290.251 -19.3015C272.81 -35.9932 244.542 -35.9932 227.102 -19.3015L219.647 -12.1675V-22.265C219.647 -45.8649 199.654 -65 174.995 -65C150.336 -65 130.342 -45.8649 130.342 -22.265V-12.1774L122.888 -19.3113C105.448 -36.003 77.1795 -36.003 59.7388 -19.3113C42.2982 -2.61963 42.2982 24.4443 59.7388 41.1261L67.1929 48.2601H56.6526C31.9937 48.2601 12 67.3952 12 90.9951C12 114.595 31.9937 133.73 56.6526 133.73H67.2031L59.7491 140.864C42.3084 157.556 42.3084 184.61 59.7491 201.301C77.1897 217.993 105.458 217.993 122.898 201.301L130.353 194.168V204.265C130.353 227.865 150.346 247 175.005 247C199.664 247 219.658 227.865 219.658 204.265V194.168L227.112 201.301C244.552 217.993 272.821 217.993 290.261 201.301C307.702 184.61 307.702 157.556 290.261 140.864L282.807 133.73H293.347C318.006 133.73 338 114.595 338 90.9951V91.0049Z" fill="#E7CFF5"/>
</g>
</svg>
