<svg width="200" height="216" viewBox="0 0 200 216" fill="none" xmlns="http://www.w3.org/2000/svg">
<mask id="mask0_1_314" style="mask-type:alpha" maskUnits="userSpaceOnUse" x="0" y="0" width="200" height="216">
<rect width="200" height="216" rx="20" fill="#D9D9D9"/>
</mask>
<g mask="url(#mask0_1_314)">
<path d="M158.264 179.529C164.648 179.529 169.824 174.348 169.824 167.956C169.824 161.565 164.648 156.383 158.264 156.383H96.9785C90.5942 156.383 85.4187 161.565 85.4187 167.956C85.4187 174.348 90.5942 179.529 96.9785 179.529H158.264Z" fill="#FBBFD7"/>
<path d="M127.635 148.618C135.275 148.618 141.469 142.417 141.469 134.768C141.469 127.119 135.275 120.919 127.635 120.919C119.995 120.919 113.802 127.119 113.802 134.768C113.802 142.417 119.995 148.618 127.635 148.618Z" fill="#FBBFD7"/>
<path d="M127.635 215C135.275 215 141.469 208.799 141.469 201.151C141.469 193.502 135.275 187.301 127.635 187.301C119.995 187.301 113.802 193.502 113.802 201.151C113.802 208.799 119.995 215 127.635 215Z" fill="#FBBFD7"/>
<path d="M-7.04875 174.847L-23.3526 191.15C-28.8092 196.607 -28.8092 205.451 -23.3526 210.908C-17.896 216.364 -9.05213 216.364 -3.59554 210.908L12.7083 194.604L29.0122 210.908C34.4688 216.364 43.3127 216.364 48.7693 210.908C54.2259 205.451 54.2259 196.607 48.7693 191.15L32.4654 174.847L48.7693 158.543C54.2259 153.086 54.2259 144.242 48.7693 138.786C43.3127 133.329 34.4688 133.329 29.0122 138.786L12.7083 155.09L-3.59554 138.786C-9.05213 133.329 -17.896 133.329 -23.3526 138.786C-28.8092 144.242 -28.8092 153.086 -23.3526 158.543L-7.04875 174.847Z" fill="#FBBFD7"/>
<path d="M-1.06581 85.5231V107.355C-1.06581 114.66 4.85898 120.585 12.1647 120.585C19.4704 120.585 25.3952 114.66 25.3952 107.355V85.5231H47.2268C54.5325 85.5231 60.4573 79.5983 60.4573 72.2926C60.4573 64.9869 54.5325 59.0621 47.2268 59.0621H25.3952V37.2305C25.3952 29.9248 19.4704 24 12.1647 24C4.85898 24 -1.06581 29.9248 -1.06581 37.2305V59.0621H-22.8974C-30.2031 59.0621 -36.1279 64.9869 -36.1279 72.2926C-36.1279 79.5983 -30.2031 85.5231 -22.8974 85.5231H-1.06581Z" fill="#FBBFD7"/>
<path d="M94.6511 59.8127C87.7536 59.8127 82.1621 65.4003 82.1621 72.2928C82.1621 79.1854 87.7536 84.7729 94.6511 84.7729H160.832C167.73 84.7729 173.321 79.1854 173.321 72.2928C173.321 65.4003 167.73 59.8127 160.832 59.8127H94.6511Z" fill="#FBBFD7"/>
</g>
</svg>
