<svg width="192" height="170" viewBox="0 0 192 170" fill="none" xmlns="http://www.w3.org/2000/svg">
<mask id="mask0_1_293" style="mask-type:alpha" maskUnits="userSpaceOnUse" x="0" y="0" width="192" height="170">
<rect width="192" height="170" rx="20" fill="#D9D9D9"/>
</mask>
<g mask="url(#mask0_1_293)">
<path d="M153.047 147.477C148.253 149.811 132.931 160.854 127.007 159.731C126.754 159.779 126.481 159.802 126.193 159.802V160C126.008 159.929 125.819 159.857 125.633 159.779C121.787 159.503 115.748 156.189 110.554 153.099C94.9048 145.092 81.3115 134.607 70.0911 122.465C52.7641 103.95 41.2138 81.664 36.0936 58.3488C35.9238 57.599 35.7669 56.846 35.6068 56.0962C32.5519 41.2236 32.1325 25.9972 34.6109 11.1895C45.1877 6.45373 56.2897 2.1854 67.5774 -1.9109C68.7846 -2.35234 70.0014 -2.79702 71.2279 -3.23197C84.1358 -7.91253 97.2584 -12.3854 110.166 -17.0107C114.864 -18.7278 119.526 -20.4741 124.121 -22.2755C125.844 -22.8987 127.042 -23.3337 128.886 -22.6618C158.503 -11.8563 188.107 -1.0475 217.715 9.75803C218.538 9.81321 219.268 10.2547 219.447 11.1732C219.457 11.2511 219.476 11.3225 219.485 11.4037C219.626 11.6958 219.665 11.9328 219.588 12.1145C227.337 62.8996 202.917 117.323 153.047 147.474V147.477Z" fill="#C7D8FF"/>
<path d="M159 64.5016C144.587 72.8968 133.343 86.1425 127.502 102C121.657 86.1425 110.413 72.8968 96 64.5016C110.413 56.1064 121.657 42.8575 127.502 27C133.343 42.8575 144.587 56.1064 159 64.5016Z" fill="#E7F1FF"/>
</g>
</svg>
