<svg width="29" height="36" viewBox="0 0 29 36" fill="none" xmlns="http://www.w3.org/2000/svg">
<path d="M22.0537 24.6314L22.0537 24.6314C21.9593 24.7037 21.8827 24.7967 21.8298 24.9032C21.7772 25.0088 21.7494 25.1249 21.7482 25.2428V25.9881C21.7482 26.85 21.4058 27.6767 20.7963 28.2862C20.586 28.4965 20.3497 28.675 20.0951 28.8187C20.4678 28.9212 20.8111 29.119 21.0892 29.3971C21.5112 29.819 21.7482 30.3913 21.7482 30.9881C21.7482 31.5848 21.5112 32.1571 21.0892 32.5791C20.6672 33.001 20.0949 33.2381 19.4982 33.2381H9.49821C8.90148 33.2381 8.32918 33.001 7.90722 32.5791C7.48526 32.1571 7.24821 31.5848 7.24821 30.9881C7.24821 30.3913 7.48526 29.819 7.90722 29.3971C8.1853 29.119 8.52867 28.9212 8.9013 28.8187C8.64669 28.675 8.41047 28.4965 8.20011 28.2862C7.59062 27.6767 7.24821 26.85 7.24821 25.9881L7.24821 25.2389C7.24821 25.2388 7.24821 25.2387 7.24821 25.2386C7.24809 25.1241 7.22173 25.011 7.17114 24.9082C7.12052 24.8054 7.04698 24.7155 6.95618 24.6455L6.95139 24.6418C5.49156 23.5048 4.30949 22.0507 3.49466 20.3894C2.68007 18.7286 2.25384 16.9043 2.24822 15.0545C2.21287 8.4171 7.56943 2.89733 14.2031 2.73842L22.0537 24.6314ZM22.0537 24.6314L22.0629 24.6242M22.0537 24.6314L22.0629 24.6242M22.0629 24.6242C23.5265 23.4805 24.7094 22.0175 25.5214 20.3469C26.3332 18.6768 26.7528 16.8434 26.7482 14.9865M22.0629 24.6242L26.7482 14.9865M18.322 15.8115C18.322 15.8115 18.3219 15.8116 18.3219 15.8116L18.322 15.8115ZM18.322 15.8115L18.3221 15.8114C18.3221 15.8114 18.322 15.8115 18.322 15.8115ZM26.7482 14.9865C26.7484 13.3533 26.4221 11.7366 25.7883 10.2314C25.1543 8.72556 24.2255 7.36179 23.0566 6.22033C21.8876 5.07887 20.5021 4.18278 18.9816 3.58481C17.4612 2.98686 15.8366 2.69908 14.2033 2.73841L26.7482 14.9865ZM18.6748 16.1643C18.6747 16.1643 18.6747 16.1643 18.6747 16.1644L18.6748 16.1643Z" stroke="#FA6813" stroke-width="2.5"/>
</svg>
